<svg width="2612" height="2612" viewBox="0 0 2612 2612" fill="none" xmlns="http://www.w3.org/2000/svg">
<path d="M1306 2498.23C596.921 2498.23 20.0388 1963.38 20.0388 1306C20.0388 648.617 596.921 113.771 1306 113.771C2015.08 113.771 2591.96 648.588 2591.96 1306V1309.63C2591.62 1514.53 2424.7 1681.19 2219.83 1681.19H1581.45C1445.03 1681.19 1331.52 1783.43 1323.06 1913.95C1318.55 1983.82 1342.26 2050.29 1389.9 2101.15C1437.6 2152.02 1502.27 2180.03 1571.94 2180.03C1633.23 2180.03 1688.67 2176.54 1741.45 2169.39C1810.3 2160.28 1856.51 2204.66 1871.57 2252.95C1886.65 2301.39 1874.02 2364.4 1811.81 2395.95C1676.19 2464.77 1510.72 2498.23 1306 2498.23ZM1306 170.354C628.098 170.354 76.5925 679.794 76.5925 1306C76.5925 1932.21 628.098 2441.65 1306 2441.65C1501.64 2441.65 1658.72 2410.18 1786.26 2345.51C1821.27 2327.74 1825.01 2293.59 1817.61 2269.76C1810.24 2246.04 1787.78 2220.15 1749.06 2225.43C1693.73 2232.92 1635.83 2236.55 1571.97 2236.55C1487.69 2236.55 1406.3 2201.29 1348.67 2139.79C1290.23 2077.46 1261.08 1995.93 1266.62 1910.29C1276.99 1750.11 1415.28 1624.6 1581.45 1624.6H2219.8C2393.52 1624.6 2535.09 1483.29 2535.38 1309.57V1306C2535.38 679.794 1983.87 170.354 1306 170.354Z" fill="black"/>
<path d="M1306 866.316C1175.37 866.316 1069.1 760.039 1069.1 629.385C1069.1 498.731 1175.37 392.482 1306 392.482C1436.62 392.482 1542.9 498.76 1542.9 629.385C1542.9 760.01 1436.62 866.316 1306 866.316ZM1306 449.065C1206.55 449.065 1125.65 529.966 1125.65 629.414C1125.65 728.861 1206.55 809.762 1306 809.762C1405.45 809.762 1486.35 728.861 1486.35 629.414C1486.35 529.966 1405.45 449.065 1306 449.065Z" fill="black"/>
<path d="M1984.73 1233.99C1854.11 1233.99 1747.83 1127.71 1747.83 997.055C1747.83 866.401 1854.11 760.152 1984.73 760.152C2115.36 760.152 2221.63 866.43 2221.63 997.055C2221.63 1127.68 2115.38 1233.99 1984.73 1233.99ZM1984.73 816.706C1885.28 816.706 1804.38 897.607 1804.38 997.055C1804.38 1096.5 1885.28 1177.4 1984.73 1177.4C2084.18 1177.4 2165.08 1096.5 2165.08 997.055C2165.08 897.607 2084.21 816.706 1984.73 816.706Z" fill="black"/>
<path d="M655.532 1233.99C524.907 1233.99 418.629 1127.71 418.629 997.055C418.629 866.401 524.907 760.152 655.532 760.152C786.157 760.152 892.435 866.43 892.435 997.055C892.435 1127.68 786.186 1233.99 655.532 1233.99ZM655.532 816.706C556.084 816.706 475.183 897.607 475.183 997.055C475.183 1096.5 556.084 1177.4 655.532 1177.4C754.98 1177.4 835.881 1096.5 835.881 997.055C835.881 897.607 754.98 816.706 655.532 816.706Z" fill="black"/>
<path d="M712.086 1969.27C581.461 1969.27 475.184 1862.99 475.184 1732.37C475.184 1601.74 581.461 1495.46 712.086 1495.46C842.711 1495.46 948.989 1601.74 948.989 1732.37C948.989 1862.99 842.74 1969.27 712.086 1969.27ZM712.086 1552.02C612.639 1552.02 531.737 1632.92 531.737 1732.37C531.737 1831.82 612.639 1912.72 712.086 1912.72C811.534 1912.72 892.435 1831.82 892.435 1732.37C892.435 1632.92 811.534 1552.02 712.086 1552.02Z" fill="black"/>
</svg>
