<svg width="2837" height="2843" viewBox="0 0 2837 2843" fill="none" xmlns="http://www.w3.org/2000/svg">
<path d="M510.805 2524.13L510.016 2524.92L510.079 2526.03L512.347 2565.98C519.636 2694.37 440.365 2802.63 315.668 2834.58L316.289 2837.01L315.668 2834.58C295.127 2839.85 268.59 2841.52 242.076 2839.91C215.563 2838.3 189.282 2833.4 169.248 2825.67C89.6009 2794.91 -20.13 2695.77 6.60246 2520.07C19.0766 2473.73 38.7893 2440.65 76.3977 2403.06C133.54 2345.96 194.714 2322.88 274.255 2328.37L314.191 2331.13L315.327 2331.21L316.132 2330.41L481.974 2164.37L480.205 2162.61L481.974 2164.37C527.586 2118.7 568.871 2076.64 598.643 2045.65C613.527 2030.16 625.545 2017.43 633.79 2008.4C637.909 2003.89 641.107 2000.28 643.255 1997.7C644.324 1996.41 645.168 1995.34 645.741 1994.53C646.022 1994.13 646.286 1993.72 646.48 1993.34C646.574 1993.16 646.694 1992.9 646.779 1992.6C646.839 1992.39 647.021 1991.71 646.752 1990.93L646.751 1990.92C646.592 1990.46 646.307 1990.06 646.189 1989.89L646.185 1989.88C646.007 1989.63 645.783 1989.34 645.53 1989.03C645.02 1988.39 644.311 1987.56 643.427 1986.55C641.655 1984.53 639.111 1981.72 635.89 1978.23C629.443 1971.24 620.235 1961.46 608.953 1949.61C586.387 1925.9 555.493 1893.87 521.718 1859.23L400.644 1735.07L458.493 1677.33L456.727 1675.56L458.493 1677.33L516.319 1619.6L868.369 1971.74L1220.42 2323.88L1162.36 2382.08L1104.3 2440.27L981.751 2317.75C947.553 2283.56 915.702 2252.47 891.933 2229.92C880.052 2218.65 870.176 2209.5 863.03 2203.16C859.462 2200 856.548 2197.51 854.395 2195.8C853.323 2194.95 852.399 2194.26 851.655 2193.78C851.287 2193.54 850.914 2193.31 850.558 2193.14C850.303 2193.01 849.688 2192.72 848.958 2192.72C848.443 2192.72 848.028 2192.87 847.829 2192.95C847.589 2193.04 847.367 2193.15 847.179 2193.26C846.804 2193.47 846.39 2193.74 845.961 2194.05C845.095 2194.67 843.977 2195.56 842.64 2196.68C839.956 2198.93 836.252 2202.22 831.658 2206.43C822.461 2214.84 809.615 2227 794.063 2241.99C762.956 2271.97 720.979 2313.32 675.639 2358.79L510.805 2524.13ZM2713.69 55.8493C2757.84 37.9508 2814.15 12.9011 2832.7 4.64638C2832.61 4.87902 2832.52 5.11866 2832.43 5.36522C2830.99 9.1398 2828.92 14.489 2826.35 21.0224C2821.21 34.0868 2814.13 51.8613 2806.34 71.1905C2790.75 109.854 2749 213.395 2713.57 301.277C2678.14 389.16 2624.76 521.984 2594.97 596.442C2568.07 663.645 2554.53 697.41 2544.6 717.429C2539.66 727.397 2535.65 733.867 2531.39 739.317C2527.11 744.788 2522.53 749.296 2516.3 755.365C2502.56 768.741 2400.6 860.565 2289.67 959.46C2178.77 1058.33 2029.03 1191.95 1956.93 1256.4C1884.83 1320.84 1801.87 1394.96 1772.59 1421.1C1668.2 1514.26 1500.48 1664.08 1422.31 1733.98C1378.64 1773.03 1302.87 1840.68 1253.94 1884.31C1205.01 1927.93 1138.28 1987.66 1105.64 2017.03L1048.08 2068.84L990.199 2011.07L932.416 1953.39L1640.65 1244.96C1835.91 1049.66 2013.41 871.588 2142.1 742.021C2206.45 677.238 2258.59 624.579 2294.65 587.956C2312.68 569.645 2326.69 555.339 2336.2 545.528C2340.95 540.625 2344.58 536.836 2347.03 534.23C2348.25 532.93 2349.19 531.909 2349.83 531.186C2350.15 530.829 2350.42 530.518 2350.61 530.271C2350.71 530.152 2350.82 530.008 2350.92 529.859C2350.96 529.788 2351.04 529.666 2351.12 529.514L2351.12 529.506C2351.16 529.432 2351.39 528.974 2351.39 528.361C2351.39 527.498 2351.08 526.668 2350.81 526.054C2350.51 525.372 2350.09 524.627 2349.6 523.852C2348.62 522.295 2347.24 520.429 2345.59 518.389C2342.28 514.297 2337.75 509.343 2332.79 504.491L2314.93 487.057L2313.17 485.33L2311.42 487.078L1598.18 1200.48L886.717 1912.12L828.998 1854.26L771.159 1796.3L800.303 1762.94C817.163 1743.64 870.894 1683.23 919.706 1628.69C968.518 1574.14 1052.38 1480.27 1106.08 1420.1C1318.63 1181.86 1415.68 1073.12 1476.41 1005.16C1511.32 966.098 1595.03 872.357 1662.43 796.841C1729.84 721.325 1829.72 609.475 1884.39 548.287C1939.06 487.097 2010.49 406.962 2043.12 370.214L2102.06 303.851L2153.55 283.489C2182.19 272.167 2230.58 252.642 2261.09 240.095C2291.6 227.554 2358.49 200.259 2409.74 179.443C2460.99 158.626 2529.88 130.596 2562.83 117.161C2595.77 103.726 2663.66 76.1373 2713.69 55.8493Z" fill="black" stroke="black" stroke-width="5"/>
</svg>
