<svg width="2789" height="4011" viewBox="0 0 2789 4011" fill="none"
  xmlns="http://www.w3.org/2000/svg">
  <mask id="path-1-outside-1_106_55" maskUnits="userSpaceOnUse" x="0" y="0" width="2789" height="4011" fill="black">
    <rect fill="white" width="2789" height="4011"/>
    <path d="M1352.7 194.216C1370.74 123.914 1388.13 59.2029 1391.34 50.4151C1398.97 29.5694 1395.21 17.2567 1471.24 311.579C1507.54 452.078 1557.18 642.522 1581.56 734.8L1625.89 902.567H1725.58L1725.54 953.164C1725.5 998.914 1720.56 1009.36 1673.9 1062.35L1622.29 1120.93L1622.21 1284.97L1741.09 1291.36L1743.99 1421.85C1746.7 1543.53 1748.26 1552.33 1767.25 1552.33C1786.79 1552.33 1787.61 1544.17 1787.61 1349.95V1147.56H1761.77C1743.3 1147.56 1735.92 1141.81 1735.92 1127.4C1735.92 1116.31 1742.19 1104.75 1749.84 1101.73C1757.5 1098.7 1781.19 1040.19 1802.49 971.687C1823.79 903.195 1848.32 829.665 1857.01 808.287L1872.79 769.418L1924.26 929.197C1952.58 1017.08 1982.25 1094.3 1990.22 1100.8C2014.36 1120.53 2007.79 1147.56 1978.86 1147.56H1953.01V1562.98H1984.02C2013.89 1562.98 2015.04 1564.76 2015.04 1610.92V1658.85H2118.41V1765.37H2283.81L2283.72 1725.43C2283.68 1703.46 2280.73 1660.61 2277.19 1630.2C2270.9 1576.28 2269.01 1573.67 2199.91 1523.68L2129.08 1472.44L2128.75 1168.86H2201.11C2250.5 1168.86 2273.47 1172.92 2273.47 1181.65C2273.47 1217.6 2298.67 1152.16 2371.7 926.534C2415.79 790.317 2454.82 678.877 2458.45 678.877C2462.08 678.877 2500.2 787.931 2543.16 921.208L2621.26 1163.54L2749 1169.88L2748.33 1472.44L2671.35 1525.7C2596.12 1577.75 2594.35 1579.99 2594.14 1623.74C2594.03 1648.38 2587.14 1830.53 2578.84 2028.51C2570.54 2226.51 2558.89 2520.32 2552.97 2681.43C2547.03 2842.54 2539.43 3011.11 2536.05 3056.04C2530.06 3135.75 2530.5 3137.8 2554.17 3141.25C2578.38 3144.78 2578.44 3145.17 2581.25 3321.21L2584.09 3497.62L1894.04 3970.31H898.23L216.307 3500.74V3320.11C216.307 3146.57 217.123 3139.46 236.981 3139.46C254.751 3139.46 257.655 3132.36 257.655 3088.86C257.655 3037.62 212.438 1958.57 199.898 1710.49L193.086 1575.71L40 1465.57L45.7369 1174.19L169.788 1167.96L246.118 931.412C288.098 801.3 325.892 688.145 330.099 679.932C334.772 670.825 371.439 769.578 424.336 933.777C471.961 1081.59 512.464 1194.76 514.345 1185.25C517.199 1170.88 530.266 1168.49 591.877 1171.08L665.988 1174.19L671.725 1465.55L516.59 1578.96L516.227 1632.22C516.03 1661.52 512.982 1703.46 509.456 1725.43L503.049 1765.37H671.156V1659.97L779.701 1653.53L782.873 1608.25C785.684 1568.25 788.996 1562.98 811.304 1562.98H836.555V1147.56H810.713C791.765 1147.56 784.868 1141.88 784.868 1126.26C784.868 1114.54 791.389 1104.95 799.349 1104.95C808.818 1104.95 830.757 1052.32 862.628 953.164C889.464 869.685 914.904 794.695 919.153 786.535C923.98 777.3 947.208 834.522 980.794 938.325C1010.43 1029.97 1038.96 1104.95 1044.17 1104.95C1049.38 1104.95 1053.64 1114.54 1053.64 1126.26C1053.64 1140.46 1046.75 1147.56 1032.97 1147.56C1013.02 1147.56 1012.3 1154.67 1012.3 1349.95C1012.3 1520.86 1014.65 1552.33 1027.48 1552.33C1039.86 1552.33 1043.2 1528.16 1045.57 1421.85L1048.48 1291.36L1167.36 1284.97V1109.48L1115.67 1057.02C1067.93 1008.56 1063.98 1000.66 1063.98 953.568V902.567H1166.48L1186.99 830.667C1198.27 791.127 1217.42 718.023 1229.57 668.225C1241.72 618.428 1267.01 520.164 1285.78 449.861C1304.55 379.559 1334.66 264.519 1352.7 194.216Z"/>
  </mask>
  <path d="M1352.7 194.216C1370.74 123.914 1388.13 59.2029 1391.34 50.4151C1398.97 29.5694 1395.21 17.2567 1471.24 311.579C1507.54 452.078 1557.18 642.522 1581.56 734.8L1625.89 902.567H1725.58L1725.54 953.164C1725.5 998.914 1720.56 1009.36 1673.9 1062.35L1622.29 1120.93L1622.21 1284.97L1741.09 1291.36L1743.99 1421.85C1746.7 1543.53 1748.26 1552.33 1767.25 1552.33C1786.79 1552.33 1787.61 1544.17 1787.61 1349.95V1147.56H1761.77C1743.3 1147.56 1735.92 1141.81 1735.92 1127.4C1735.92 1116.31 1742.19 1104.75 1749.84 1101.73C1757.5 1098.7 1781.19 1040.19 1802.49 971.687C1823.79 903.195 1848.32 829.665 1857.01 808.287L1872.79 769.418L1924.26 929.197C1952.58 1017.08 1982.25 1094.3 1990.22 1100.8C2014.36 1120.53 2007.79 1147.56 1978.86 1147.56H1953.01V1562.98H1984.02C2013.89 1562.98 2015.04 1564.76 2015.04 1610.92V1658.85H2118.41V1765.37H2283.81L2283.72 1725.43C2283.68 1703.46 2280.73 1660.61 2277.19 1630.2C2270.9 1576.28 2269.01 1573.67 2199.91 1523.68L2129.08 1472.44L2128.75 1168.86H2201.11C2250.5 1168.86 2273.47 1172.92 2273.47 1181.65C2273.47 1217.6 2298.67 1152.16 2371.7 926.534C2415.79 790.317 2454.82 678.877 2458.45 678.877C2462.08 678.877 2500.2 787.931 2543.16 921.208L2621.26 1163.54L2749 1169.88L2748.33 1472.44L2671.35 1525.7C2596.12 1577.75 2594.35 1579.99 2594.14 1623.74C2594.03 1648.38 2587.14 1830.53 2578.84 2028.51C2570.54 2226.51 2558.89 2520.32 2552.97 2681.43C2547.03 2842.54 2539.43 3011.11 2536.05 3056.04C2530.06 3135.75 2530.5 3137.8 2554.17 3141.25C2578.38 3144.78 2578.44 3145.17 2581.25 3321.21L2584.09 3497.62L1894.04 3970.31H898.23L216.307 3500.74V3320.11C216.307 3146.57 217.123 3139.46 236.981 3139.46C254.751 3139.46 257.655 3132.36 257.655 3088.86C257.655 3037.62 212.438 1958.57 199.898 1710.49L193.086 1575.71L40 1465.57L45.7369 1174.19L169.788 1167.96L246.118 931.412C288.098 801.3 325.892 688.145 330.099 679.932C334.772 670.825 371.439 769.578 424.336 933.777C471.961 1081.59 512.464 1194.76 514.345 1185.25C517.199 1170.88 530.266 1168.49 591.877 1171.08L665.988 1174.19L671.725 1465.55L516.59 1578.96L516.227 1632.22C516.03 1661.52 512.982 1703.46 509.456 1725.43L503.049 1765.37H671.156V1659.97L779.701 1653.53L782.873 1608.25C785.684 1568.25 788.996 1562.98 811.304 1562.98H836.555V1147.56H810.713C791.765 1147.56 784.868 1141.88 784.868 1126.26C784.868 1114.54 791.389 1104.95 799.349 1104.95C808.818 1104.95 830.757 1052.32 862.628 953.164C889.464 869.685 914.904 794.695 919.153 786.535C923.98 777.3 947.208 834.522 980.794 938.325C1010.43 1029.97 1038.96 1104.95 1044.17 1104.95C1049.38 1104.95 1053.64 1114.54 1053.64 1126.26C1053.64 1140.46 1046.75 1147.56 1032.97 1147.56C1013.02 1147.56 1012.3 1154.67 1012.3 1349.95C1012.3 1520.86 1014.65 1552.33 1027.48 1552.33C1039.86 1552.33 1043.2 1528.16 1045.57 1421.85L1048.48 1291.36L1167.36 1284.97V1109.48L1115.67 1057.02C1067.93 1008.56 1063.98 1000.66 1063.98 953.568V902.567H1166.48L1186.99 830.667C1198.27 791.127 1217.42 718.023 1229.57 668.225C1241.72 618.428 1267.01 520.164 1285.78 449.861C1304.55 379.559 1334.66 264.519 1352.7 194.216Z" fill="#646363"/>
  <path d="M1352.7 194.216C1370.74 123.914 1388.13 59.2029 1391.34 50.4151C1398.97 29.5694 1395.21 17.2567 1471.24 311.579C1507.54 452.078 1557.18 642.522 1581.56 734.8L1625.89 902.567H1725.58L1725.54 953.164C1725.5 998.914 1720.56 1009.36 1673.9 1062.35L1622.29 1120.93L1622.21 1284.97L1741.09 1291.36L1743.99 1421.85C1746.7 1543.53 1748.26 1552.33 1767.25 1552.33C1786.79 1552.33 1787.61 1544.17 1787.61 1349.95V1147.56H1761.77C1743.3 1147.56 1735.92 1141.81 1735.92 1127.4C1735.92 1116.31 1742.19 1104.75 1749.84 1101.73C1757.5 1098.7 1781.19 1040.19 1802.49 971.687C1823.79 903.195 1848.32 829.665 1857.01 808.287L1872.79 769.418L1924.26 929.197C1952.58 1017.08 1982.25 1094.3 1990.22 1100.8C2014.36 1120.53 2007.79 1147.56 1978.86 1147.56H1953.01V1562.98H1984.02C2013.89 1562.98 2015.04 1564.76 2015.04 1610.92V1658.85H2118.41V1765.37H2283.81L2283.72 1725.43C2283.68 1703.46 2280.73 1660.61 2277.19 1630.2C2270.9 1576.28 2269.01 1573.67 2199.91 1523.68L2129.08 1472.44L2128.75 1168.86H2201.11C2250.5 1168.86 2273.47 1172.92 2273.47 1181.65C2273.47 1217.6 2298.67 1152.16 2371.7 926.534C2415.79 790.317 2454.82 678.877 2458.45 678.877C2462.08 678.877 2500.2 787.931 2543.16 921.208L2621.26 1163.54L2749 1169.88L2748.33 1472.44L2671.35 1525.7C2596.12 1577.75 2594.35 1579.99 2594.14 1623.74C2594.03 1648.38 2587.14 1830.53 2578.84 2028.51C2570.54 2226.51 2558.89 2520.32 2552.97 2681.43C2547.03 2842.54 2539.43 3011.11 2536.05 3056.04C2530.06 3135.75 2530.5 3137.8 2554.17 3141.25C2578.38 3144.78 2578.44 3145.17 2581.25 3321.21L2584.09 3497.62L1894.04 3970.31H898.23L216.307 3500.74V3320.11C216.307 3146.57 217.123 3139.46 236.981 3139.46C254.751 3139.46 257.655 3132.36 257.655 3088.86C257.655 3037.62 212.438 1958.57 199.898 1710.49L193.086 1575.71L40 1465.57L45.7369 1174.19L169.788 1167.96L246.118 931.412C288.098 801.3 325.892 688.145 330.099 679.932C334.772 670.825 371.439 769.578 424.336 933.777C471.961 1081.59 512.464 1194.76 514.345 1185.25C517.199 1170.88 530.266 1168.49 591.877 1171.08L665.988 1174.19L671.725 1465.55L516.59 1578.96L516.227 1632.22C516.03 1661.52 512.982 1703.46 509.456 1725.43L503.049 1765.37H671.156V1659.97L779.701 1653.53L782.873 1608.25C785.684 1568.25 788.996 1562.98 811.304 1562.98H836.555V1147.56H810.713C791.765 1147.56 784.868 1141.88 784.868 1126.26C784.868 1114.54 791.389 1104.95 799.349 1104.95C808.818 1104.95 830.757 1052.32 862.628 953.164C889.464 869.685 914.904 794.695 919.153 786.535C923.98 777.3 947.208 834.522 980.794 938.325C1010.43 1029.97 1038.96 1104.95 1044.17 1104.95C1049.38 1104.95 1053.64 1114.54 1053.64 1126.26C1053.64 1140.46 1046.75 1147.56 1032.97 1147.56C1013.02 1147.56 1012.3 1154.67 1012.3 1349.95C1012.3 1520.86 1014.65 1552.33 1027.48 1552.33C1039.86 1552.33 1043.2 1528.16 1045.57 1421.85L1048.48 1291.36L1167.36 1284.97V1109.48L1115.67 1057.02C1067.93 1008.56 1063.98 1000.66 1063.98 953.568V902.567H1166.48L1186.99 830.667C1198.27 791.127 1217.42 718.023 1229.57 668.225C1241.72 618.428 1267.01 520.164 1285.78 449.861C1304.55 379.559 1334.66 264.519 1352.7 194.216Z" stroke="#0075FF" stroke-width="80" stroke-linejoin="round" mask="url(#path-1-outside-1_106_55)"/>
  <path d="M2567.79 2440.33C1625.49 2994.52 614.601 2673.54 225.799 2442.63L223.505 2795.88C612.307 3026.79 1625.49 3350.06 2567.79 2795.88V2440.33Z" fill="#0075FF" stroke="#0075FF"/>
  <path d="M2560 2970.21C1616.2 3525.29 623.422 3201.49 234 2970.21L203 3326.16C592.422 3557.44 1644.7 3870.73 2588.5 3315.66L2560 2970.21Z" fill="#0075FF" stroke="#0075FF"/>
  <path d="M1112.04 1751.68C1124.41 1760.79 1136.78 1767.63 1149.15 1772.19C1162.17 1776.09 1173.89 1778.7 1184.3 1780C1196.02 1781.95 1207.74 1782.28 1219.46 1780.98C1230.53 1779.67 1241.92 1775.77 1253.64 1769.26C1265.36 1762.75 1279.03 1755.91 1294.66 1748.75C1310.28 1741.59 1328.51 1735.4 1349.34 1730.2C1370.83 1724.34 1396.54 1721.41 1426.49 1721.41C1439.51 1721.41 1453.18 1724.01 1467.51 1729.22C1482.48 1734.43 1496.8 1741.26 1510.48 1749.73C1524.15 1757.54 1536.52 1766.33 1547.59 1776.09C1559.3 1785.86 1568.09 1795.62 1573.95 1805.39C1580.46 1815.16 1585.02 1831.11 1587.62 1853.24C1590.23 1874.73 1591.21 1898.16 1590.55 1923.55C1589.9 1948.95 1587.62 1974.01 1583.72 1998.75C1580.46 2023.49 1575.58 2043.67 1569.07 2059.3C1561.26 2072.97 1546.28 2090.55 1524.15 2112.03C1505.27 2130.26 1476.95 2153.7 1439.19 2182.34C1401.43 2210.99 1350.65 2245.17 1286.84 2284.88C1324.6 2284.23 1356.18 2283.26 1381.57 2281.95C1407.61 2280 1428.77 2278.05 1445.05 2276.09C1463.93 2273.49 1478.9 2270.89 1489.97 2268.28C1499.73 2264.38 1510.15 2258.84 1521.22 2251.68C1530.33 2245.17 1540.1 2236.71 1550.52 2226.29C1561.58 2215.87 1572.33 2202.2 1582.74 2185.27C1584.7 2220.43 1586.65 2248.1 1588.6 2268.28C1589.9 2280 1590.88 2290.09 1591.53 2298.55C1592.18 2306.37 1592.83 2315.48 1593.48 2325.9C1594.14 2335.01 1594.46 2345.43 1594.46 2357.15C1595.11 2368.87 1596.09 2381.24 1597.39 2394.26C1564.84 2385.79 1535.22 2379.28 1508.52 2374.73C1481.83 2369.52 1459.04 2365.94 1440.16 2363.98C1418.03 2361.38 1398.17 2360.08 1380.59 2360.08C1362.36 2360.73 1342.18 2362.36 1320.05 2364.96C1300.52 2367.57 1277.08 2371.47 1249.73 2376.68C1223.04 2381.24 1192.77 2388.07 1158.91 2397.19C1156.31 2390.03 1154.03 2382.86 1152.08 2375.7C1150.12 2367.89 1148.5 2360.4 1147.2 2353.24C1145.24 2345.43 1143.61 2337.62 1142.31 2329.8C1141.01 2321.99 1139.71 2314.51 1138.41 2307.34C1137.1 2300.83 1136.13 2294 1135.48 2286.84C1134.83 2279.67 1134.17 2272.84 1133.52 2266.33C1185.61 2233.12 1227.92 2203.18 1260.48 2176.48C1293.03 2149.14 1318.74 2126.03 1337.62 2107.15C1359.11 2085.01 1375.39 2064.83 1386.45 2046.6C1397.52 2024.47 1406.64 2000.05 1413.8 1973.36C1420.96 1946.67 1423.24 1921.93 1420.63 1899.14C1418.68 1876.35 1410.87 1857.8 1397.2 1843.48C1383.52 1828.5 1361.71 1821.99 1331.77 1823.95C1312.23 1825.25 1293.68 1832.08 1276.1 1844.45C1259.17 1856.82 1243.55 1871.8 1229.23 1889.38C1214.9 1906.95 1202.21 1925.83 1191.14 1946.02C1180.07 1965.55 1170.63 1984.1 1162.82 2001.68C1155.66 2019.26 1149.8 2033.91 1145.24 2045.62C1141.34 2057.34 1139.38 2063.53 1139.38 2064.18C1138.73 2065.48 1137.76 2060.6 1136.45 2049.53C1135.8 2038.46 1134.83 2024.79 1133.52 2008.52C1132.87 1991.59 1131.9 1974.01 1130.59 1955.78C1129.29 1937.55 1127.99 1922.25 1126.69 1909.88C1126.04 1900.12 1125.06 1887.42 1123.76 1871.8C1121.8 1846.41 1117.9 1806.37 1112.04 1751.68Z" fill="#0075FF"/>
</svg>
