<svg width="3688" height="3646" viewBox="0 0 3688 3646" fill="none" xmlns="http://www.w3.org/2000/svg">
<mask id="mask0_3_42" style="mask-type:alpha" maskUnits="userSpaceOnUse" x="-1433" y="0" width="6554" height="3646">
<path fill-rule="evenodd" clip-rule="evenodd" d="M1984.55 5.44921C1974.89 8.18802 1947.79 14.6044 1924.33 19.7106C1900.87 24.822 1872.39 31.6304 1861.03 34.8437C1849.68 38.0622 1831.62 46.8356 1820.89 54.3403C1810.16 61.8449 1794.61 68.545 1786.32 69.2206C1778.04 69.9015 1769.83 70.7216 1768.07 71.0413C1766.31 71.3611 1753.38 79.7478 1739.33 89.6766C1725.29 99.6054 1710.27 107.729 1705.95 107.729C1701.63 107.729 1688.9 112.557 1677.64 118.457C1666.39 124.358 1652.58 130.098 1646.95 131.213C1641.32 132.327 1630.94 138.521 1623.88 144.984C1616.83 151.442 1601.94 166.384 1590.8 178.185C1579.65 189.986 1563.01 209.194 1553.83 220.871C1544.64 232.548 1525.77 265.832 1511.89 294.834C1498.02 323.837 1481.52 361.494 1475.24 378.515C1468.95 395.536 1460.33 418.746 1456.06 430.093C1451.8 441.441 1442.69 479.737 1435.82 515.198C1428.96 550.658 1423.1 588.954 1422.81 600.302C1422.52 611.649 1419.99 644.803 1417.18 673.981C1414.37 703.154 1413.55 729.48 1415.35 732.476C1417.15 735.478 1418.38 762.319 1418.07 792.132C1417.55 842.606 1416.61 847.439 1404.42 862.33C1394.06 874.977 1391.83 882.177 1393.74 896.789C1395.06 906.945 1400.67 925.627 1406.19 938.305C1411.71 950.977 1419.32 970.324 1423.09 981.295C1427.27 993.457 1434.5 1003.02 1441.6 1005.79C1448.01 1008.3 1454.8 1010.35 1456.69 1010.35C1458.58 1010.36 1459 990.507 1457.62 966.245C1456.21 941.456 1457.2 919.989 1459.88 917.24C1462.5 914.553 1462.98 912.35 1460.95 912.35C1458.92 912.35 1460.02 907.131 1463.38 900.745C1466.75 894.36 1469.05 875.214 1468.49 858.193C1467.93 841.172 1471 813.32 1475.3 796.299C1479.61 779.278 1487.21 757.229 1492.18 747.3C1497.17 737.371 1503.78 721.124 1506.89 711.195C1510 701.266 1513.72 679.216 1515.17 662.196C1516.87 642.353 1523.46 619.411 1533.56 598.259C1542.21 580.114 1557.23 556.249 1566.92 545.221L1584.54 525.178L1581.52 484.89C1579.46 457.456 1580.35 442.699 1584.3 438.64C1587.49 435.354 1594.96 432.672 1600.9 432.672C1607.41 432.672 1620.76 422.563 1634.51 407.218C1651.46 388.299 1662.29 380.836 1676.66 378.169C1687.29 376.194 1700.51 372.274 1706.03 369.453C1711.55 366.637 1721.15 359.575 1727.36 353.763C1733.57 347.95 1738.65 338.593 1738.65 332.977C1738.65 327.36 1747.46 314.15 1758.22 303.629C1768.98 293.107 1784.08 283.26 1791.77 281.749C1799.47 280.238 1808.75 280.176 1812.4 281.615C1816.04 283.054 1820.2 289.197 1821.63 295.268C1823.05 301.338 1819.92 317.911 1814.66 332.095C1809.41 346.279 1803.47 361.927 1801.47 366.869C1799.02 372.914 1800.53 376.916 1806.09 379.108C1811.62 381.29 1820.52 376.014 1832.96 363.186C1843.19 352.633 1858.34 340.414 1866.62 336.035C1874.9 331.651 1888.06 322.589 1895.86 315.894C1903.66 309.204 1914.46 303.727 1919.86 303.727C1925.25 303.727 1930.97 307.208 1932.55 311.463C1934.14 315.718 1939.27 319.2 1943.94 319.2C1948.61 319.2 1955.11 316.456 1958.37 313.098C1961.64 309.741 1965.84 308.565 1967.72 310.488C1969.58 312.412 1964.78 330.176 1957.02 349.966C1945.18 380.202 1943.98 387.247 1949.51 394.102C1954.76 400.601 1961.77 401.555 1984.13 398.79C1999.54 396.882 2019.2 392.369 2027.8 388.759C2036.4 385.148 2050.98 372.553 2060.19 360.772L2076.94 339.352L2103.79 342.802C2126.77 345.752 2132.24 344.721 2141.66 335.648C2147.71 329.815 2158.51 322.769 2165.65 319.994C2175.47 316.167 2183.52 317.194 2198.76 324.203C2209.84 329.299 2220.19 336.933 2221.77 341.167C2223.35 345.402 2221.43 354.954 2217.51 362.402C2213.59 369.845 2207.01 382.322 2202.89 390.12C2198.77 397.924 2195.38 415.404 2195.36 428.969C2195.34 442.534 2198.6 461.685 2202.6 471.521C2209.13 487.577 2211.86 489.408 2229.36 489.408C2240.09 489.408 2261.48 486.804 2276.91 483.616C2302.77 478.278 2306.18 478.721 2320.56 489.238C2330.18 496.284 2341.9 513.671 2351.16 534.653C2359.41 553.35 2369.62 582.734 2373.85 599.951C2378.08 617.163 2385.1 641.064 2389.45 653.061C2393.96 665.512 2404.7 680.63 2414.47 688.294C2423.88 695.675 2443.14 705.588 2457.26 710.323C2471.38 715.058 2484.56 722.413 2486.57 726.668C2488.57 730.924 2494.19 747.171 2499.04 762.773C2503.9 778.376 2509.82 793.349 2512.19 796.041C2514.56 798.734 2516.51 810.406 2516.51 821.97C2516.51 833.539 2519.71 847.702 2523.62 853.443C2527.53 859.183 2532.31 872.501 2534.23 883.044C2536.41 894.984 2535.27 908.492 2531.2 918.885C2527.6 928.056 2516.05 943.287 2505.53 952.726C2491.6 965.223 2486.4 973.961 2486.4 984.859C2486.4 997.001 2489.94 1001.64 2505.22 1009.45C2515.57 1014.73 2548.37 1027.88 2578.11 1038.65C2607.85 1049.41 2633.64 1056.73 2635.42 1054.9C2637.21 1053.07 2633.76 1046.21 2627.77 1039.66C2621.78 1033.1 2616.88 1024.08 2616.88 1019.61C2616.88 1015.15 2621.2 1006.01 2626.48 999.316L2636.08 987.139L2651.91 999.162C2660.62 1005.77 2671.05 1009.88 2675.08 1008.29C2679.69 1006.47 2684.53 1010.16 2688.09 1018.19C2691.21 1025.22 2695.44 1030.98 2697.49 1030.98C2699.53 1030.98 2703.77 1023.43 2706.91 1014.22C2710.05 1005 2713.97 984.194 2715.62 967.983C2717.94 945.293 2716.72 935.504 2710.3 925.431C2703.81 915.249 2697.76 912.35 2683 912.35C2672.58 912.35 2661.34 909.565 2658.03 906.161C2654.71 902.757 2652 893.643 2652 885.906C2652 877.257 2656.58 868.143 2663.87 862.242C2670.4 856.971 2679.31 845.546 2683.68 836.86C2690.27 823.77 2691.28 806.187 2689.63 733.9C2688.54 685.953 2684.92 632.796 2681.58 615.775C2678.25 598.754 2675 568.581 2674.37 548.723C2673.73 528.866 2671.7 502.174 2669.86 489.408C2668.01 476.643 2663.32 453.433 2659.43 437.83C2654.06 416.296 2648.09 405.924 2634.62 394.778C2620.68 383.245 2616.88 376.385 2616.88 362.82C2616.88 352.236 2609.76 333.064 2598.51 313.346C2588.42 295.634 2563.43 264.176 2542.98 243.437C2517.48 217.555 2502.01 205.728 2493.7 205.728C2484.67 205.728 2479.04 200.606 2471.58 185.586C2466.08 174.507 2455.57 160.581 2448.22 154.639C2440.87 148.698 2430.02 143.834 2424.11 143.834C2418.2 143.834 2405.94 136.871 2396.87 128.36C2387.81 119.85 2375.02 112.887 2368.45 112.887C2361.88 112.887 2355.11 110.566 2353.41 107.729C2351.7 104.892 2345.66 102.571 2339.99 102.571C2334.31 102.571 2322.59 94.7313 2313.94 85.148C2305.29 75.5648 2289.17 62.7114 2278.13 56.5788C2267.09 50.4513 2251.01 40.8422 2242.39 35.2305C2233.77 29.6137 2223.25 26.39 2219 28.0663C2214.76 29.7374 2209.9 36.7934 2208.2 43.741C2205.53 54.691 2203.73 55.6143 2194.74 50.6679C2189.03 47.5268 2179.09 46.3147 2172.66 47.9755C2162.77 50.5287 2160.11 48.2902 2155.33 33.3943C2152.22 23.7183 2146.19 14.429 2141.94 12.7475C2137.68 11.0713 2132.15 11.0042 2129.64 12.598C2127.12 14.1917 2125.07 22.3205 2125.07 30.6658C2125.07 43.2871 2123.02 45.835 2112.88 45.835C2106.18 45.835 2097.07 42.1059 2092.64 37.5516C2086 30.7278 2085.71 27.8652 2091.02 21.2838C2094.57 16.8945 2097.1 12.1802 2096.64 10.803C2096.19 9.43107 2092.8 6.34152 2089.11 3.93797C2085.43 1.53958 2064.35 -0.224391 2042.27 0.0231847C2020.18 0.270761 1994.21 2.7104 1984.55 5.44921ZM-1433 437.763C-1433 443.395 -1420.91 474.152 -1406.12 506.104C-1391.34 538.057 -1368.76 581.496 -1355.94 602.643C-1343.12 623.79 -1332.63 644.932 -1332.63 649.626C-1332.63 654.325 -1325.57 671.836 -1316.94 688.547C-1308.32 705.258 -1296.17 728.381 -1289.94 739.929C-1283.72 751.472 -1268.99 777.004 -1257.21 796.665C-1245.43 816.322 -1232.35 839.367 -1228.15 847.878C-1223.94 856.388 -1219.13 864.512 -1217.45 865.93C-1215.77 867.348 -1204.87 884.307 -1193.22 903.623C-1181.57 922.934 -1172.04 939.718 -1172.04 940.914C-1172.04 942.116 -1164.23 955.325 -1154.68 970.278C-1145.14 985.225 -1132.77 1003.26 -1127.19 1010.35C-1121.62 1017.44 -1117.01 1025.06 -1116.95 1027.28C-1116.89 1029.51 -1101.34 1055.04 -1082.39 1084.02C-1063.45 1113.01 -1035.78 1152.71 -1020.92 1172.26C-1006.05 1191.8 -972.589 1235.9 -946.553 1270.26C-920.523 1304.61 -881.123 1355.92 -859.002 1384.29C-836.885 1412.66 -805.114 1452.12 -788.402 1471.97C-771.691 1491.83 -756.324 1508.85 -754.257 1509.8C-752.189 1510.75 -750.493 1514.81 -750.493 1518.82C-750.493 1522.85 -748.742 1526.13 -746.604 1526.13C-744.461 1526.13 -713.412 1562.62 -677.6 1607.23C-641.789 1651.83 -575.224 1727.77 -529.682 1775.99C-484.14 1824.21 -423.166 1888.19 -394.184 1918.16C-346.855 1967.12 -338.424 1973.63 -311.38 1982.07C-294.819 1987.25 -258.687 2003.08 -231.085 2017.26C-203.484 2031.44 -179.772 2044.59 -178.392 2046.47C-177.012 2048.35 -169.303 2054.2 -161.264 2059.47C-153.224 2064.73 -119.35 2098.27 -85.9872 2134C-52.6247 2169.74 6.28668 2231.84 44.9286 2272.01C83.5706 2312.19 130.438 2361.56 149.076 2381.73C174.138 2408.84 184.552 2424.5 189.058 2441.81C193.499 2458.89 198.172 2466 206.322 2468.11C212.464 2469.69 219.425 2469.76 221.783 2468.26C224.142 2466.77 229.165 2467.5 232.944 2469.91C238.143 2473.21 235.639 2476.9 222.672 2485.03C213.237 2490.95 197.614 2498.39 187.954 2501.58C178.294 2504.76 168.452 2509.19 166.089 2511.42C163.72 2513.66 166.756 2518.21 172.833 2521.56C178.911 2524.9 204.56 2528.81 229.833 2530.26C273.574 2532.75 279.385 2531.75 351.053 2509.4C413.884 2489.8 428.663 2483.24 440.436 2469.79C451.999 2456.58 453.946 2450.73 451.236 2437.35C449.414 2428.37 444.707 2415.8 440.778 2409.41C436.843 2403.03 431.418 2397.81 428.723 2397.81C426.028 2397.81 423.785 2401.87 423.745 2406.83C423.7 2411.79 421.808 2418.87 419.535 2422.55C417.261 2426.24 403.185 2432.67 388.245 2436.85C373.31 2441.03 352.057 2444.64 341.016 2444.86C329.976 2445.09 313.902 2449.68 305.295 2455.06C296.688 2460.45 285.462 2464.86 280.343 2464.86C271.496 2464.86 271.526 2464.39 280.936 2455.35C286.376 2450.13 301.36 2441.89 314.228 2437.05C327.095 2432.21 338.928 2424.75 340.524 2420.48C342.145 2416.13 336.264 2402.39 327.165 2389.27C318.222 2376.38 283.605 2335.31 250.233 2298.01C216.865 2260.7 183.212 2218.57 175.448 2204.39C167.684 2190.2 142.778 2160.03 120.095 2137.34C97.4165 2114.64 71.8525 2083.31 63.286 2067.7C54.7196 2052.1 24.4986 2011.35 -3.86558 1977.14C-32.2298 1942.93 -68.9898 1896.78 -85.5506 1874.59C-102.111 1852.4 -127.52 1819.63 -142.008 1801.77C-156.501 1783.92 -168.355 1767.01 -168.355 1764.2C-168.355 1761.39 -170.247 1758.32 -172.56 1757.37C-174.874 1756.43 -203.363 1718.52 -235.878 1673.13C-268.387 1627.74 -313.839 1561.55 -336.879 1526.03C-368.239 1477.68 -380.223 1454.34 -384.544 1433.19C-387.715 1417.64 -391.545 1401.44 -393.045 1397.19C-394.551 1392.93 -395.484 1387.91 -395.123 1386.02C-394.766 1384.14 -397.762 1371.37 -401.792 1357.66C-408.206 1335.8 -413.003 1330.09 -440.54 1311.54C-457.828 1299.89 -492.295 1278 -517.136 1262.9C-541.977 1247.79 -570.206 1229.18 -579.866 1221.54C-589.527 1213.9 -616.993 1194.01 -640.901 1177.34C-664.808 1160.67 -702.994 1130.78 -725.762 1110.93C-748.531 1091.07 -786.556 1057.58 -810.263 1036.51C-833.975 1015.44 -886.021 965.538 -925.922 925.621C-965.829 885.7 -1027.93 824.054 -1063.93 788.635C-1099.93 753.216 -1194.97 657.471 -1275.12 575.874C-1355.27 494.277 -1423.58 427.514 -1426.92 427.514C-1430.26 427.514 -1433 432.126 -1433 437.763ZM2212.89 670.866C2204.61 673.321 2190.4 673.992 2181.32 672.357C2168.32 670.02 2161.57 672.166 2149.72 682.414C2141.43 689.584 2125.17 698.074 2113.58 701.282C2101.99 704.49 2084.59 711.267 2074.91 716.343C2065.24 721.418 2052.81 730.697 2047.29 736.964C2041.78 743.23 2031.17 751.601 2023.71 755.563C2016.25 759.529 2003.68 762.773 1995.78 762.773C1986.34 762.773 1976.42 768.127 1966.86 778.381L1952.31 793.989L1966.19 807.208C1975.54 816.121 1979.73 824.894 1979.04 834.153C1978.48 841.698 1978.36 856.615 1978.78 867.297C1979.33 881.512 1984.09 891.822 1996.55 905.8C2013.04 924.286 2014.96 924.997 2058.03 928.458C2082.48 930.423 2103.5 931.017 2104.73 929.768C2105.97 928.525 2103.02 920.629 2098.2 912.227C2089.57 897.222 2089.64 896.738 2101.84 885.308C2108.67 878.907 2121.3 868.189 2129.9 861.499C2139.95 853.68 2149.5 850.328 2156.63 852.117C2162.73 853.649 2177.89 857.44 2190.31 860.54C2202.73 863.635 2220.03 870.02 2228.77 874.719C2242.71 882.229 2247.95 882.45 2271.86 876.555C2286.83 872.862 2307.92 871.124 2318.72 872.687C2329.52 874.255 2344 876.565 2350.9 877.824C2357.8 879.082 2368.38 878.211 2374.43 875.884C2381.13 873.3 2387.31 864.553 2390.31 853.386C2393.01 843.339 2398.8 831.439 2403.17 826.942C2407.54 822.449 2411.12 812.417 2411.12 804.655C2411.12 796.887 2407.88 786.03 2403.93 780.521C2399.18 773.904 2395.09 772.259 2391.87 775.668C2389.19 778.505 2386.19 785.468 2385.21 791.141C2384.18 797.083 2378.73 802.143 2372.37 803.077C2366.3 803.969 2350.52 799.683 2337.3 793.55C2318.92 785.024 2302.36 782.198 2266.96 781.548C2233.23 780.929 2218.6 778.582 2213.08 772.914C2206.33 765.971 2206.45 763.186 2214.22 747.197C2219.01 737.33 2229.12 726.235 2236.69 722.542C2244.26 718.849 2265.8 715.533 2284.56 715.177C2306.62 714.759 2327.84 717.926 2344.7 724.151C2359.02 729.449 2372.43 732.048 2374.49 729.933C2376.55 727.814 2374.86 719.901 2370.73 712.345C2366.6 704.784 2353.11 692.369 2340.75 684.746C2321.98 673.171 2310.85 670.526 2273.11 668.648C2248.27 667.415 2221.17 668.416 2212.89 670.866ZM1551.81 710.514C1548.31 711.597 1539.23 718.431 1531.64 725.699C1523.3 733.683 1517.84 744.313 1517.84 752.561C1517.84 760.071 1519.15 767.56 1520.75 769.21C1522.36 770.861 1533.09 767.818 1544.59 762.448C1556.1 757.079 1574.1 752.633 1584.59 752.571C1595.93 752.504 1623.42 761.082 1652.34 773.708C1679.11 785.396 1702.66 797.583 1704.68 800.786C1706.92 804.345 1702.68 809.065 1693.8 812.907C1685.79 816.368 1660.43 820.737 1637.43 822.614C1596.86 825.926 1595.06 826.638 1576.54 846.707C1561.45 863.047 1557.78 870.742 1558.98 883.42C1560.42 898.615 1561.74 899.538 1584.15 901.019C1606.89 902.525 1608.09 901.895 1615.01 884.885C1618.97 875.152 1624.56 865.693 1627.43 863.867C1630.3 862.041 1638 866.477 1644.53 873.718C1651.24 881.156 1664.45 888.227 1674.87 889.965C1685.33 891.709 1699.87 890.254 1708.45 886.597C1716.78 883.054 1723.59 878.113 1723.59 875.621C1723.59 873.125 1728.38 871.088 1734.22 871.088C1740.07 871.088 1752.57 878.051 1762 886.561C1771.43 895.072 1782.46 902.035 1786.5 902.035C1790.55 902.035 1793.84 904.939 1793.83 908.482C1793.82 912.031 1784.23 918.705 1772.5 923.321C1760.79 927.937 1741.9 934.318 1730.55 937.505C1719.19 940.687 1703.95 948.105 1696.67 953.984C1689.4 959.864 1683.45 967.988 1683.45 972.042C1683.45 977.148 1689.39 979.402 1702.85 979.402C1715.45 979.402 1739.04 971.227 1770.14 956.084C1801.14 940.992 1826.21 924.482 1841.23 909.266L1864.42 885.762L1861.11 833.296C1859.3 804.438 1855.56 777.927 1852.82 774.378C1850.07 770.835 1843.8 767.931 1838.87 767.931C1833.95 767.931 1812.37 755.743 1790.92 740.853C1753.22 714.671 1750.66 713.733 1713.92 712.541C1693.02 711.86 1649.43 710.684 1617.05 709.926C1584.67 709.168 1555.32 709.436 1551.81 710.514ZM2209.74 892.003C2205.95 897.836 2199.45 903.108 2195.29 903.727C2191.13 904.345 2182.16 908.859 2175.36 913.758C2168.55 918.658 2154.45 922.666 2144.02 922.666C2133.6 922.666 2125.07 924.925 2125.07 927.69C2125.07 930.454 2132.4 936.613 2141.36 941.379C2152.79 947.449 2175.07 950.771 2215.93 952.504C2252.82 954.062 2275.38 953.035 2277.38 949.698C2279.13 946.8 2274.74 940.507 2267.63 935.721C2255.41 927.494 2255.17 926.493 2263.15 917.431C2267.79 912.154 2270.21 905.552 2268.53 902.757C2266.85 899.961 2258.75 896.155 2250.53 894.298C2242.31 892.441 2234.3 888.784 2232.72 886.164C2231.15 883.544 2226.88 881.403 2223.24 881.403C2219.6 881.403 2213.53 886.174 2209.74 892.003ZM2054.84 1020.64C2048.81 1024.48 2049.14 1026.84 2056.93 1035.69C2062.01 1041.47 2070.33 1047.55 2075.42 1049.21C2081.73 1051.27 2088.7 1065.31 2097.31 1093.35C2104.26 1115.97 2114.75 1141.14 2120.61 1149.29C2126.47 1157.44 2129.74 1166.65 2127.87 1169.75C2126.01 1172.86 2120.15 1175.4 2114.85 1175.4C2109.56 1175.4 2101.36 1169.33 2096.63 1161.92C2088.25 1148.77 2086.95 1148.5 2044.26 1150.6C2004.47 1152.55 1997.79 1154.46 1970.79 1171.59C1954.45 1181.95 1932.16 1192.49 1921.26 1195.01C1910.35 1197.53 1895.85 1198.82 1889.04 1197.88C1882.23 1196.93 1867.13 1193.53 1855.48 1190.32C1838.27 1185.56 1830.71 1185.95 1814.99 1192.42C1804.36 1196.79 1793.48 1198.81 1790.82 1196.91C1788.17 1195.01 1783.24 1179.39 1779.89 1162.2C1776.53 1145 1773.71 1124.12 1773.62 1115.78L1773.46 1100.61L1762.33 1114.1C1756.2 1121.53 1747.24 1132.58 1742.41 1138.67C1737.59 1144.75 1733.63 1151.83 1733.63 1154.4C1733.63 1156.97 1731.73 1159.84 1729.41 1160.79C1727.08 1161.73 1718.97 1175.27 1711.37 1190.87C1703.78 1206.48 1692.29 1233.56 1685.86 1251.06C1679.43 1268.56 1670.32 1306.54 1665.61 1335.45C1659.5 1373 1658.64 1389.02 1662.58 1391.52C1665.61 1393.45 1677.29 1423.95 1688.54 1459.29C1699.78 1494.63 1709.35 1527.52 1709.81 1532.37C1710.46 1539.22 1715.32 1541.09 1731.64 1540.75L1752.64 1540.32L1750.68 1511.3C1749.61 1495.35 1747.96 1464.3 1747.02 1442.32C1745.71 1411.54 1746.86 1402.34 1752.02 1402.34C1755.71 1402.34 1758.72 1399.06 1758.72 1395.04C1758.72 1391.02 1756.61 1386.96 1754.03 1386.01C1751.45 1385.07 1757.66 1371.53 1767.83 1355.92C1782.02 1334.16 1789.68 1327.16 1800.74 1325.86C1808.66 1324.93 1817.67 1326.76 1820.75 1329.93C1823.83 1333.1 1826.38 1339.66 1826.41 1344.51C1826.46 1351.89 1832.13 1353.5 1860.63 1354.31C1886.98 1355.05 1895.44 1353.5 1897.67 1347.53C1899.37 1342.97 1896.07 1336.56 1889.62 1331.92C1881.03 1325.74 1879.93 1322.51 1884.49 1316.86C1887.68 1312.91 1898.26 1307.42 1907.99 1304.65C1921.1 1300.94 1930.07 1301.51 1942.57 1306.88C1951.86 1310.87 1959.46 1317.65 1959.46 1321.95C1959.46 1326.26 1954.68 1332.4 1948.84 1335.61C1939.4 1340.81 1939.05 1342.32 1945.75 1349.19C1951.83 1355.44 1955.41 1355.75 1964.42 1350.8C1972.92 1346.12 1981.01 1346.07 1998.32 1350.54C2010.82 1353.78 2037.58 1355.98 2057.78 1355.43C2084.47 1354.7 2097.89 1356.71 2106.9 1362.78C2113.71 1367.37 2120.83 1376.12 2122.72 1382.22C2124.88 1389.24 2123.64 1394.95 2119.33 1397.75C2115.59 1400.19 2104.31 1402.22 2094.28 1402.27C2084.24 1402.31 2069.57 1405.81 2061.66 1410.05C2053.75 1414.28 2043.61 1417.77 2039.11 1417.79C2034.62 1417.8 2022.2 1421.58 2011.51 1426.18C1995.92 1432.89 1975.22 1434.4 1906.77 1433.85C1832.16 1433.24 1820.62 1432.03 1814.79 1424.2C1810.68 1418.68 1809.02 1407.31 1810.47 1394.61C1811.76 1383.26 1814.5 1369.33 1816.56 1363.66C1819.12 1356.6 1815.33 1358.73 1804.56 1370.43C1795.91 1379.82 1788.83 1389.49 1788.83 1391.92C1788.83 1394.34 1786.42 1397.16 1783.46 1398.17C1779.65 1399.47 1779.71 1431.41 1783.67 1508.2C1786.74 1567.71 1790.3 1623.47 1791.59 1632.1C1792.87 1640.75 1800.29 1655.66 1808.07 1665.24C1817.35 1676.66 1824.96 1681.58 1830.16 1679.53C1836.72 1676.94 1837.29 1672.7 1833.47 1655.22C1830.35 1640.92 1830.64 1630.58 1834.38 1623.41C1838.71 1615.09 1842.8 1613.55 1853.27 1616.31C1860.61 1618.24 1872.88 1620.22 1880.53 1620.69C1891.01 1621.34 1897.42 1626.68 1906.49 1642.31C1913.12 1653.73 1928.31 1670.26 1940.25 1679.05C1952.2 1687.84 1969.29 1696.66 1978.23 1698.66C1988.97 1701.07 1999.62 1699.68 2009.55 1694.58C2017.83 1690.34 2031.96 1685.22 2040.96 1683.19C2049.96 1681.17 2070.9 1671.18 2087.5 1660.99C2104.09 1650.8 2125.89 1631.71 2135.94 1618.56C2150.69 1599.25 2158.13 1594.02 2174.61 1591.31C2189.49 1588.86 2200.34 1582.27 2214.62 1566.99L2234.23 1546.02L2237.85 1610.57C2240.18 1652.06 2243.93 1678.44 2248.35 1684.44C2252.14 1689.56 2255.3 1700.65 2255.39 1709.06C2255.48 1717.48 2252.02 1733.85 2247.71 1745.46C2240.72 1764.27 2240.68 1768.95 2247.33 1788.79C2251.43 1801.02 2253.47 1814.82 2251.87 1819.45C2250.27 1824.07 2240.29 1843.33 2229.7 1862.24C2213.31 1891.49 2207.14 1897.92 2188.3 1905.31C2169.22 1912.8 2164.22 1913.04 2152.07 1907.04C2144.32 1903.21 2131.26 1889.79 2123.06 1877.22C2108.86 1855.5 2108.6 1854.1 2117.55 1848.85C2122.74 1845.82 2132.76 1837.26 2139.82 1829.84C2146.89 1822.41 2158.63 1814.88 2165.92 1813.12C2173.21 1811.35 2180.54 1806.22 2182.22 1801.71C2183.91 1797.21 2183.98 1788.18 2182.38 1781.65C2180.24 1772.87 2174.81 1768.99 2161.56 1766.78C2148.81 1764.65 2136.29 1767.2 2118.05 1775.63C2103.97 1782.14 2074.38 1791.23 2052.3 1795.82C2030.22 1800.41 1994.09 1805.32 1972.01 1806.72C1940.99 1808.69 1923.3 1806.84 1894.22 1798.58C1873.52 1792.69 1848.93 1786.72 1839.57 1785.3C1823.11 1782.81 1822.67 1783.19 1826.06 1797.06C1827.98 1804.93 1836.2 1817.77 1844.32 1825.56C1855.64 1836.42 1859.09 1844.31 1859.09 1859.26C1859.09 1872.01 1862.76 1882.79 1869.66 1890.34C1875.46 1896.69 1878.72 1904.38 1876.89 1907.43C1875.06 1910.48 1869.12 1912.97 1863.7 1912.97C1858.28 1912.97 1844.3 1903.8 1832.64 1892.6C1819.39 1879.88 1807.03 1860.99 1799.74 1842.31C1793.31 1825.85 1783.53 1803.11 1777.99 1791.76C1772.46 1780.41 1766.35 1763.09 1764.41 1753.27C1761.8 1739.98 1757.73 1734.66 1748.52 1732.47C1737.61 1729.89 1733.41 1720.98 1713.11 1657.49C1700.44 1617.87 1689.47 1583.13 1688.74 1580.29C1688.01 1577.45 1686.96 1572.81 1686.4 1569.97C1685.84 1567.14 1682.26 1552.63 1678.45 1537.74C1672.8 1515.67 1669.52 1510.66 1660.72 1510.66C1652.58 1510.66 1648.3 1505.59 1643.31 1490.07C1637.95 1473.38 1635.38 1470.61 1629.72 1475.43C1625.89 1478.71 1613.71 1481.02 1602.66 1480.57C1591.6 1480.13 1576.89 1476.71 1569.96 1472.98C1563.02 1469.24 1554.67 1461.38 1551.39 1455.5C1548.12 1449.62 1539.35 1434.67 1531.92 1422.28C1524.48 1409.9 1517.09 1392.09 1515.49 1382.69C1513.88 1373.31 1505.29 1344.29 1496.38 1318.22C1480.23 1270.9 1480.2 1270.64 1480.2 1167.66C1480.2 1110.93 1478.37 1061.61 1476.14 1058.06C1473.91 1054.52 1466.57 1051.61 1459.83 1051.61C1451.69 1051.61 1447.42 1054.64 1447.11 1060.64C1446.85 1065.6 1445.69 1101 1444.54 1139.29C1443.4 1177.59 1444.67 1219.37 1447.37 1232.14C1450.08 1244.9 1458.21 1280.88 1465.45 1312.08C1472.69 1343.29 1479.59 1374.14 1480.8 1380.65C1482 1387.15 1489.37 1409.2 1497.19 1429.64C1505 1450.09 1516.61 1484.22 1522.99 1505.5C1529.37 1526.78 1535.37 1547.67 1536.34 1551.92C1537.3 1556.18 1538.98 1574.74 1540.06 1593.18C1541.15 1611.62 1544.35 1649.92 1547.18 1678.29C1550.01 1706.66 1554.32 1739.19 1556.77 1750.58C1559.22 1761.96 1564.76 1777.05 1569.07 1784.1C1573.39 1791.15 1580.86 1809.68 1585.66 1825.29C1590.47 1840.89 1597.85 1857.72 1602.06 1862.68C1606.28 1867.64 1612.2 1871.77 1615.22 1871.85C1618.24 1871.93 1627.21 1878.79 1635.14 1887.11C1649.56 1902.21 1649.57 1902.25 1641.42 1923.18C1636.93 1934.7 1633.16 1953.94 1633.04 1965.94C1632.92 1977.94 1630.96 1997.68 1628.68 2009.8C1625.84 2024.9 1626.33 2033.02 1630.24 2035.59C1633.38 2037.65 1638.42 2048.62 1641.44 2059.97C1644.46 2071.31 1648.63 2084.69 1650.7 2089.69C1653.65 2096.81 1651.03 2100.01 1638.62 2104.46C1629.9 2107.58 1623.61 2112.74 1624.65 2115.92C1625.68 2119.1 1633.97 2123.9 1643.08 2126.59C1654.12 2129.84 1666.98 2141.03 1681.69 2160.19C1693.81 2175.99 1710.46 2203.03 1718.69 2220.28C1726.92 2237.54 1738.73 2254.15 1744.93 2257.21C1751.14 2260.27 1759.85 2263.94 1764.3 2265.38C1768.75 2266.81 1773.61 2272.79 1775.1 2278.66C1776.86 2285.55 1772.64 2296.68 1763.22 2310.04C1751.16 2327.16 1745.69 2330.75 1731.7 2330.75C1722.4 2330.75 1711.98 2327.27 1708.54 2323.02C1705.1 2318.76 1698.13 2315.28 1693.04 2315.28C1687.95 2315.28 1676.37 2307.62 1667.3 2298.26C1658.24 2288.91 1645.18 2272.68 1638.28 2262.2C1631.38 2251.71 1623.95 2243.13 1621.77 2243.11C1619.58 2243.09 1619.18 2270.35 1620.87 2303.68L1623.94 2364.28L1611.53 2350.4C1603.69 2341.63 1595.91 2322.46 1590.35 2298.23C1582.29 2263.09 1582.22 2258.97 1589.55 2248.21C1595.99 2238.76 1596.98 2227.82 1594.66 2192.06C1593.08 2167.64 1590.03 2144.26 1587.89 2140.11C1584.92 2134.34 1581.51 2136.9 1573.42 2150.98C1565.14 2165.42 1560.35 2168.91 1551.3 2167.13C1541.79 2165.26 1537.61 2169 1527.68 2188.22C1521.06 2201.07 1517.27 2213.25 1519.26 2215.31C1521.26 2217.36 1528.12 2214 1534.49 2207.85C1540.87 2201.69 1547.63 2196.65 1549.53 2196.65C1551.42 2196.65 1552.93 2218.12 1552.89 2244.36C1552.85 2270.6 1549.57 2306.22 1545.61 2323.52C1541.64 2340.81 1537.31 2361.08 1535.99 2368.56C1534.67 2376.03 1530.22 2387.09 1526.09 2393.15C1521.97 2399.2 1511.74 2408.44 1503.36 2413.68C1493.92 2419.58 1486.49 2429.66 1483.86 2440.16C1480.91 2451.94 1476.25 2457.63 1468.61 2458.77C1459.3 2460.16 1457.5 2457.8 1456.87 2443.3C1456.46 2433.88 1456.12 2412.25 1456.11 2395.23C1456.11 2378.21 1457.01 2359.88 1458.11 2354.5C1459.22 2349.12 1457.5 2343.77 1454.3 2342.62C1451.08 2341.46 1440.97 2354.96 1431.8 2372.62C1422.64 2390.29 1402.67 2417.68 1387.42 2433.51C1372.17 2449.33 1349.93 2470.91 1338.01 2481.46C1326.08 2492.01 1308.59 2502.13 1299.15 2503.96C1289.7 2505.78 1281.97 2509.33 1281.97 2511.85C1281.97 2514.37 1277.46 2516.44 1271.94 2516.44C1266.42 2516.44 1261.9 2514.2 1261.9 2511.46C1261.9 2508.72 1266.87 2503.75 1272.95 2500.41C1279.03 2497.06 1290.89 2487.05 1299.3 2478.16C1307.71 2469.27 1320.21 2458.31 1327.07 2453.81C1338.25 2446.48 1338.79 2444.71 1332.24 2436.59C1326.4 2429.36 1319.86 2428.1 1299.69 2430.33C1285.81 2431.85 1263.82 2437.99 1250.83 2443.96C1237.84 2449.94 1220.47 2460.66 1212.21 2467.8C1203.96 2474.94 1187.49 2482.58 1175.61 2484.79C1163.72 2487 1154.4 2490.96 1154.89 2493.6C1155.37 2496.23 1157.04 2501.86 1158.59 2506.12C1160.15 2510.38 1159.41 2517.11 1156.94 2521.09C1154.01 2525.83 1132.84 2530.7 1095.52 2535.2C1064.2 2538.98 1004.3 2544.26 962.409 2546.94C891.684 2551.46 884.879 2551.09 867.249 2541.86C856.811 2536.39 845.63 2531.91 842.413 2531.91C839.196 2531.91 833.751 2528.43 830.313 2524.17C825.988 2518.82 814.601 2516.46 793.317 2516.51C776.4 2516.56 759.177 2518.81 755.037 2521.53C749.206 2525.35 748.764 2528.53 753.08 2535.63C756.146 2540.68 765.174 2545.07 773.153 2545.39C781.133 2545.71 791.611 2546.29 796.439 2546.68C801.267 2547.06 805.221 2550.29 805.216 2553.83C805.216 2558.47 790.929 2560.68 754.304 2561.73C726.301 2562.53 701.46 2564.4 699.101 2565.9C696.743 2567.4 694.816 2576.57 694.816 2586.27C694.816 2601.24 692.718 2604.45 681.015 2607.41C673.427 2609.33 657.358 2619.77 645.314 2630.6C633.275 2641.43 615.755 2651.77 606.391 2653.58C597.027 2655.38 578.649 2655.21 565.556 2653.19C552.463 2651.17 537.237 2647.09 531.717 2644.13C526.196 2641.16 513.399 2631.12 503.277 2621.83L484.875 2604.92L422.982 2606.45C388.942 2607.3 351.209 2610.76 339.129 2614.16C327.05 2617.56 288.574 2620.75 253.625 2621.25C192.857 2622.13 189.374 2621.61 173.832 2609.28C164.889 2602.18 151.515 2591.44 144.108 2585.4C132.872 2576.24 130.603 2570.25 130.438 2549.29L130.242 2524.17L112.677 2525.96C103.017 2526.95 93.4219 2530.43 91.3593 2533.7C89.2917 2536.97 89.0256 2546.59 90.767 2555.07C92.5084 2563.55 94.6813 2578.46 95.5997 2588.2C96.5181 2597.93 103.659 2614.02 111.473 2623.93C119.282 2633.85 129.524 2644.47 134.232 2647.52C140.485 2651.57 145.157 2651.33 151.57 2646.61C156.403 2643.06 163.384 2638.68 167.082 2636.88C171.067 2634.94 181.089 2641.07 191.638 2651.92C207.049 2667.76 209.639 2673.97 210.748 2697.78C211.455 2712.93 212.263 2727.07 212.539 2729.2C212.82 2731.33 217.427 2733.06 222.787 2733.06C228.147 2733.06 233.948 2730.71 235.679 2727.82C237.416 2724.94 240.878 2723.88 243.378 2725.47C245.877 2727.06 257.58 2719.45 269.378 2708.57C287.926 2691.47 293.211 2689.17 308.396 2691.58C324.46 2694.14 326.202 2696.14 328.776 2715.01C330.327 2726.36 335.536 2743.32 340.354 2752.72C346.301 2764.31 356.614 2773.09 372.472 2780.08C385.324 2785.74 407.842 2802.04 422.515 2816.3C447.763 2840.84 450.262 2842.05 469.092 2838.78C487.58 2835.57 490.405 2836.8 509.099 2856.2C520.159 2867.69 529.208 2881.35 529.208 2886.57C529.208 2891.78 531.933 2898.85 535.265 2902.28C539.997 2907.14 539.41 2910.47 532.585 2917.49C525.599 2924.68 513.731 2926.69 473.317 2927.55L422.781 2928.61L387.873 2891.44C359.323 2861.05 347.952 2843.5 325.469 2795.2C310.354 2762.7 297.085 2735.19 295.991 2734.07C294.897 2732.94 286.511 2737.72 277.362 2744.67C268.209 2751.63 256.772 2758.76 251.939 2760.51C247.111 2762.26 243.162 2766.66 243.172 2770.3C243.177 2773.93 264.395 2804.76 290.325 2838.8C316.687 2873.41 352.323 2913.2 371.177 2929.06C389.715 2944.66 410.843 2961.48 418.119 2966.43C426.269 2971.97 441.018 2975.44 456.541 2975.46C470.396 2975.47 498.575 2970.69 519.16 2964.82C539.746 2958.96 558.897 2952.2 561.717 2949.8C564.537 2947.4 583.783 2942.93 604.484 2939.86C625.185 2936.8 655.391 2931.03 671.606 2927.05C689.265 2922.71 706.097 2914.65 713.585 2906.96C725.077 2895.15 725.599 2892.63 720.119 2875.56C716.345 2863.81 702.8 2846.61 683.158 2828.62C656.856 2804.53 653.002 2798.86 657.714 2791.16C660.771 2786.17 676.569 2774.11 692.818 2764.35C721.489 2747.13 724.525 2746.48 795.159 2742.51C835.196 2740.25 888.276 2736.23 913.118 2733.55C937.959 2730.88 974.092 2727.24 993.413 2725.46C1012.73 2723.68 1049.34 2720.03 1074.77 2717.33C1100.18 2714.64 1152.13 2712.38 1190.19 2712.31C1228.25 2712.24 1268.42 2709.93 1279.46 2707.17C1290.5 2704.41 1332.28 2699.66 1372.3 2696.61C1412.33 2693.57 1468.04 2689.49 1496.1 2687.57C1524.16 2685.64 1548.68 2682.47 1550.57 2680.52C1552.46 2678.57 1555.99 2658.84 1558.41 2636.68C1560.83 2614.52 1564.82 2585.35 1567.28 2571.88C1570.3 2555.29 1570.05 2547.38 1566.48 2547.38C1563.58 2547.38 1553.66 2550.19 1544.43 2553.62C1531.42 2558.45 1526.37 2564.27 1521.93 2579.47C1518.79 2590.25 1513.11 2601.73 1509.32 2604.96C1504.16 2609.36 1495.23 2609.31 1473.75 2604.75C1457.98 2601.41 1433.59 2594.91 1419.56 2590.31C1397.47 2583.06 1394.35 2580.38 1396.22 2570.29C1397.42 2563.89 1404.38 2552.87 1411.69 2545.8C1419.01 2538.74 1433.78 2526.92 1444.52 2519.54C1461.08 2508.15 1469.57 2506.12 1500.56 2506.12C1523.29 2506.12 1537.79 2508.32 1538.97 2511.96C1540.12 2515.51 1545.23 2516.38 1551.96 2514.19C1558.07 2512.2 1569.66 2504.86 1577.72 2497.88C1587.93 2489.05 1596.42 2472.74 1605.69 2444.14C1613.01 2421.55 1620.51 2402.12 1622.37 2400.96C1624.22 2399.81 1634.7 2398.04 1645.66 2397.04C1664.63 2395.31 1666.35 2396.42 1681.62 2420.29C1690.44 2434.08 1704.54 2449.66 1712.96 2454.92C1721.37 2460.18 1734.02 2473.87 1741.07 2485.34C1752.95 2504.68 1755.43 2506.14 1775.12 2505.39C1786.8 2504.94 1802.01 2506.4 1808.91 2508.63C1815.81 2510.87 1831.07 2519.46 1842.84 2527.75C1854.6 2536.02 1871.54 2546.24 1880.48 2550.44C1889.41 2554.64 1906.89 2564.93 1919.31 2573.31C1931.73 2581.69 1952.06 2593.22 1964.48 2598.94C1976.9 2604.66 1993.84 2613.15 2002.12 2617.81C2010.4 2622.46 2021.25 2629.88 2026.23 2634.3C2033.03 2640.33 2034.57 2646.86 2032.44 2660.61C2030.89 2670.68 2031.33 2681.46 2033.43 2684.58C2035.53 2687.7 2041.94 2692.79 2047.68 2695.9C2055.97 2700.38 2061.54 2699.39 2074.82 2691.09C2086.73 2683.64 2096.19 2681.54 2107.79 2683.78C2116.73 2685.5 2129.36 2691.15 2135.85 2696.33C2142.34 2701.51 2161.13 2710.89 2177.59 2717.17C2194.06 2723.46 2222.89 2739.09 2241.66 2751.91C2260.42 2764.73 2281.45 2782.87 2288.38 2792.21C2295.88 2802.31 2307.23 2810.48 2316.37 2812.36C2324.83 2814.1 2338.26 2822.68 2346.21 2831.42C2354.16 2840.17 2362.91 2845.89 2365.67 2844.14C2368.42 2842.39 2382.6 2845.84 2397.17 2851.81C2411.74 2857.78 2430.06 2866 2437.87 2870.07C2445.69 2874.15 2457.96 2877.48 2465.15 2877.48C2472.34 2877.48 2483.5 2882.57 2489.94 2888.8C2496.39 2895.02 2508.75 2900.62 2517.42 2901.24C2526.09 2901.85 2535.18 2906.05 2537.63 2910.56C2540.09 2915.06 2548.4 2918.75 2556.1 2918.75C2563.81 2918.75 2583.98 2925.87 2600.94 2934.58C2617.9 2943.29 2632.93 2952.35 2634.35 2954.71C2635.78 2957.07 2629.83 2961.55 2621.14 2964.67C2612.45 2967.78 2597.39 2970.32 2587.68 2970.32C2576.37 2970.32 2555.45 2978.42 2529.46 2992.85C2507.16 3005.24 2481 3017.12 2471.34 3019.24C2461.68 3021.36 2451.13 3025.28 2447.9 3027.95C2444.42 3030.83 2442.55 3043.75 2443.33 3059.6C2444.28 3078.9 2446.81 3086.81 2452.4 3087.93C2456.66 3088.78 2461.49 3096.33 2463.11 3104.69C2464.74 3113.06 2469.24 3119.9 2473.11 3119.9C2476.98 3119.9 2482.99 3116.38 2486.48 3112.07C2491.65 3105.66 2491.19 3102.41 2483.97 3094.21C2479.11 3088.69 2476.4 3080.8 2477.95 3076.66C2479.7 3071.99 2491.51 3067.77 2509.17 3065.5C2533.26 3062.4 2540.57 3063.57 2557.16 3073.15C2567.92 3079.37 2576.73 3083.27 2576.73 3081.82C2576.73 3080.36 2583.5 3081.6 2591.78 3084.57C2600.06 3087.54 2606.84 3091.94 2606.84 3094.35C2606.84 3096.77 2617.09 3109.89 2629.62 3123.51C2642.16 3137.13 2653.45 3153.49 2654.71 3159.87C2655.98 3166.25 2658.09 3176.7 2659.4 3183.08C2660.71 3189.47 2672.38 3209.31 2685.33 3227.17C2702.92 3251.42 2711.54 3259.27 2719.34 3258.12C2728.26 3256.81 2729.81 3252.94 2729.91 3231.61C2729.99 3212.92 2727.32 3203.85 2719.29 3195.51C2713.39 3189.39 2706.96 3179.1 2705 3172.67C2703.05 3166.22 2694.02 3150.96 2684.95 3138.74C2675.88 3126.53 2667.17 3109.75 2665.6 3101.45C2664.03 3093.16 2662.03 3081.89 2661.14 3076.41C2660.1 3069.97 2663.97 3064.1 2672.08 3059.79C2678.98 3056.13 2695.35 3048.56 2708.46 3042.97C2730.27 3033.67 2732.3 3031.31 2732.3 3015.32C2732.3 3005.7 2733.55 2996.55 2735.07 2994.98C2736.6 2993.41 2748.45 2995.39 2761.42 2999.36C2774.38 3003.34 2792.31 3010.14 2801.24 3014.46C2813.23 3020.26 2820.06 3020.92 2827.26 3016.96C2832.63 3014.01 2846.22 3011.59 2857.45 3011.59C2868.68 3011.59 2886.3 3016.23 2896.6 3021.9C2906.9 3027.58 2920.59 3032.22 2927.02 3032.22C2933.45 3032.22 2942.71 3030.02 2947.6 3027.33C2954.23 3023.68 2965.78 3027.26 2993.3 3041.52L3030.12 3060.59L3049.38 3107.01C3059.98 3132.54 3072.4 3165.55 3077 3180.37L3085.34 3207.31L3071.66 3220.34C3064.14 3227.51 3054.98 3233.37 3051.33 3233.37C3047.67 3233.37 3042.33 3236.28 3039.46 3239.82C3036.6 3243.37 3033.5 3248.59 3032.58 3251.43C3031.65 3254.26 3021.43 3255.9 3009.86 3255.07C2992.92 3253.85 2987.76 3255.6 2983.34 3264.09C2980.03 3270.45 2972.8 3274.64 2965.15 3274.64C2958.16 3274.64 2947.81 3277.19 2942.14 3280.31C2936.46 3283.43 2924.72 3285.98 2916.05 3285.98C2907.37 3285.98 2895.55 3289.91 2889.79 3294.71C2884.03 3299.51 2876.36 3309.14 2872.75 3316.11C2869.15 3323.09 2856.36 3337.73 2844.33 3348.65C2832.31 3359.57 2816.68 3378.65 2809.61 3391.06C2801.53 3405.23 2785.96 3420.88 2767.76 3433.11C2751.82 3443.82 2729.41 3461.28 2717.97 3471.91C2702.55 3486.24 2697.17 3495.16 2697.17 3506.42C2697.17 3514.77 2695.01 3522.98 2692.37 3524.65C2689.73 3526.33 2688.77 3530.93 2690.25 3534.87C2691.72 3538.82 2688.43 3546.67 2682.93 3552.32C2677.43 3557.98 2659.22 3567.74 2642.47 3574.02C2625.72 3580.29 2609.45 3588.61 2606.31 3592.5C2603.16 3596.4 2597.64 3599.58 2594.02 3599.58C2590.4 3599.58 2582.62 3606.54 2576.73 3615.05C2568.05 3627.58 2564.26 3629.55 2556.77 3625.43C2551.69 3622.64 2524.18 3621.01 2495.64 3621.81C2452.03 3623.04 2441.83 3621.79 2431.77 3614.01C2423.4 3607.53 2410.9 3604.74 2390.21 3604.74C2369.34 3604.74 2359.82 3602.59 2357.9 3597.44C2356.4 3593.44 2342.79 3584.99 2327.66 3578.68C2305.99 3569.64 2297.81 3568.38 2289.14 3572.75C2283.08 3575.8 2273.06 3579.76 2266.85 3581.55C2260.57 3583.35 2254.21 3590.35 2252.51 3597.35C2250.14 3607.05 2246.12 3609.9 2234.82 3609.9C2226.78 3609.9 2211.22 3603.78 2200.24 3596.31C2189.26 3588.85 2180.27 3581.16 2180.27 3579.24C2180.27 3577.31 2175.67 3570.65 2170.04 3564.45C2163.32 3557.03 2153.84 3553.16 2142.44 3553.16C2126.58 3553.16 2125.07 3554.47 2125.07 3568.27C2125.07 3576.57 2121.75 3586.78 2117.68 3590.96C2111.86 3596.94 2105.82 3597.52 2089.14 3593.66C2077.49 3590.98 2049.07 3578.44 2025.96 3565.81C1989.99 3546.15 1979.71 3542.84 1954.52 3542.84C1930.94 3542.84 1922.28 3545.26 1910.92 3555.03C1903.11 3561.74 1891.65 3568.85 1885.43 3570.86C1877.7 3573.34 1869.55 3571.12 1859.56 3563.81C1849.2 3556.23 1845.74 3550.15 1847.61 3542.8C1849.06 3537.11 1847.24 3524.93 1843.57 3515.73C1839.9 3506.53 1830.87 3489.86 1823.51 3478.7C1812.16 3461.49 1807.18 3458.24 1790.85 3457.38C1775.79 3456.59 1768.51 3452.61 1757.62 3439.2C1749.95 3429.75 1743.67 3419.04 1743.67 3415.4C1743.67 3411.75 1735.39 3399.35 1725.28 3387.85L1706.88 3366.92L1715.24 3339.67C1719.84 3324.68 1723.59 3307.8 1723.59 3302.16C1723.59 3296.52 1717.68 3286.28 1710.45 3279.4C1703.22 3272.53 1691.64 3257.77 1684.71 3246.61C1672.86 3227.51 1671.71 3226.89 1665.24 3235.99C1661.45 3241.31 1658.35 3250.85 1658.35 3257.2C1658.35 3263.54 1652.93 3272.96 1646.3 3278.13C1639.68 3283.3 1627.26 3291.49 1618.7 3296.31C1610.15 3301.15 1603.15 3307.27 1603.15 3309.93C1603.15 3312.58 1611.62 3316.34 1621.97 3318.29C1632.32 3320.23 1649.82 3327.24 1660.86 3333.84C1671.9 3340.46 1686.06 3351.5 1692.32 3358.39C1703.16 3370.33 1703.35 3371.81 1696.08 3389.67C1691.89 3399.98 1688.52 3416.03 1688.59 3425.34C1688.65 3434.65 1694.54 3456.19 1701.67 3473.21C1708.8 3490.23 1717.95 3514.6 1722 3527.37C1726.04 3540.14 1732.6 3558.25 1736.56 3567.63C1741.26 3578.75 1749.92 3587.31 1761.44 3592.27C1771.16 3596.44 1803.29 3604.71 1832.84 3610.64C1867.99 3617.7 1897.21 3620.55 1917.35 3618.89C1938.81 3617.12 1952.88 3612.74 1963.83 3604.41C1972.47 3597.85 1979.53 3589.44 1979.53 3585.72C1979.53 3581.99 1982.04 3578.95 1985.1 3578.95C1988.37 3578.95 1989.49 3583.75 1987.82 3590.59C1986.25 3597 1986.57 3604.79 1988.53 3607.91C1990.48 3611.04 2002.81 3618.43 2015.92 3624.35C2029.03 3630.26 2039.76 3637.56 2039.76 3640.55C2039.76 3644.36 2395.96 3646 3224.47 3646C4350.09 3646 4409.1 3645.55 4407.47 3636.97C4406.04 3629.5 4400.14 3627.93 4373.22 3627.84L4340.71 3627.74L4325.65 3603.77C4317.37 3590.58 4303.01 3575.54 4293.75 3570.34C4277.04 3560.97 4276.84 3560.99 4269.3 3572.5C4265.12 3578.88 4258.82 3584.11 4255.3 3584.11C4251.79 3584.11 4241.78 3575.76 4233.06 3565.56C4224.35 3555.36 4209.51 3544.83 4200.08 3542.15C4190.65 3539.48 4176.36 3531.6 4168.33 3524.65C4160.29 3517.7 4152.53 3507.34 4151.07 3501.62C4149.08 3493.79 4151.41 3490.46 4160.51 3488.1C4167.16 3486.39 4178.8 3486.62 4186.39 3488.6C4193.98 3490.59 4215.7 3493.02 4234.66 3493.99C4261.51 3495.38 4271.68 3498.23 4280.65 3506.9C4288.53 3514.51 4295.5 3516.95 4302.67 3514.6C4308.44 3512.72 4319.36 3505.89 4326.93 3499.43C4334.51 3492.97 4347.48 3484.41 4355.76 3480.4C4369.21 3473.9 4370.98 3470.32 4372.31 3446.92C4373.43 3427.21 4371.68 3418.92 4365.26 3413.44C4358.76 3407.89 4336.3 3405.92 4270.93 3405.17C4223.74 3404.63 4167.86 3402.73 4146.75 3400.95C4123.67 3399.01 4107.16 3399.72 4105.34 3402.75C4103.41 3405.97 4095.9 3405.74 4084.4 3402.12C4073.67 3398.73 4063.88 3391.16 4060 3383.26C4056.44 3376 4054.43 3367.49 4055.52 3364.35C4056.62 3361.21 4050.89 3351.35 4042.78 3342.43C4032.83 3331.48 4023.34 3326.21 4013.53 3326.21C4003.11 3326.21 3993.65 3320.39 3979.99 3305.58C3969.53 3294.24 3958.46 3284.95 3955.39 3284.95C3952.33 3284.95 3943.74 3278.96 3936.3 3271.64C3928.87 3264.33 3915.2 3256.36 3905.92 3253.94C3896.64 3251.52 3884.52 3248.1 3878.99 3246.35C3872.42 3244.26 3864.96 3246.95 3857.49 3254.09C3851.2 3260.12 3837.67 3265.85 3827.41 3266.84C3817.15 3267.83 3801.98 3272.29 3793.7 3276.77C3785.42 3281.23 3772.35 3284.9 3764.67 3284.92C3756.98 3284.94 3745.16 3288.68 3738.4 3293.23C3726.81 3301.03 3724.86 3300.75 3703.97 3288.17C3690.13 3279.83 3679.91 3269.15 3676.69 3259.67C3673.86 3251.33 3666.9 3239.74 3661.23 3233.91C3653.42 3225.88 3651.94 3220.45 3655.14 3211.58C3659.13 3200.51 3662.2 3199.82 3709.23 3199.29C3736.65 3198.98 3763.91 3196.08 3769.79 3192.84C3775.68 3189.6 3786.03 3186.95 3792.79 3186.95C3799.56 3186.95 3811.56 3183.49 3819.47 3179.25C3827.38 3175.01 3838.67 3171.53 3844.57 3171.51C3850.46 3171.5 3861.75 3168.01 3869.66 3163.77C3878.8 3158.87 3898.26 3156.06 3923.1 3156.04C3951.39 3156.02 3965.75 3158.42 3975.13 3164.73C3982.26 3169.54 3992.21 3183.34 3997.24 3195.4C4005.08 3214.2 4009.49 3218.21 4028.01 3223.41C4044.41 3228.02 4054.93 3228.06 4071.51 3223.56C4086.29 3219.56 4098.5 3219.25 4109.15 3222.59C4117.82 3225.32 4141.85 3231.05 4162.55 3235.32C4183.25 3239.6 4215.69 3245.39 4234.63 3248.19C4260.49 3252.01 4282.85 3260.57 4324.29 3282.52C4368.96 3306.18 4384.89 3312.05 4407.77 3313.26C4423.33 3314.09 4462.03 3316.21 4493.77 3317.97C4525.51 3319.73 4563.9 3323.56 4579.08 3326.48C4594.26 3329.41 4614.59 3333.79 4624.25 3336.23C4633.91 3338.66 4662.14 3346.42 4686.98 3353.47C4711.82 3360.52 4747.95 3367.84 4767.27 3369.75C4786.6 3371.66 4812.57 3376.35 4824.99 3380.18C4837.41 3384 4867.89 3392.01 4892.74 3397.98C4917.58 3403.95 4966.13 3416.68 5000.63 3426.27C5035.13 3435.85 5074.2 3447.98 5087.44 3453.21C5108.47 3461.52 5112.1 3461.76 5116.22 3455.07C5118.8 3450.86 5120.95 3430.88 5121 3410.66C5121.05 3383.61 5119.01 3372.14 5113.27 3367.23C5108.97 3363.57 5083.67 3348.2 5057.03 3333.08C5030.41 3317.96 5006.25 3305.57 5003.37 3305.55C5000.48 3305.53 4991.35 3301.74 4983.07 3297.11C4974.79 3292.48 4953.06 3281.07 4934.79 3271.74C4916.51 3262.42 4887.54 3251.95 4870.4 3248.49C4848.16 3243.99 4833.47 3237.23 4819.09 3224.88C4808.01 3215.37 4795.25 3207.58 4790.74 3207.58C4786.22 3207.58 4770.06 3199.75 4754.83 3190.19C4739.59 3180.62 4718.28 3169.6 4707.47 3165.69C4692.81 3160.39 4683.63 3151.87 4671.34 3132.16C4662.27 3117.62 4650.8 3104.11 4645.83 3102.12C4640.86 3100.14 4624.82 3097.48 4610.17 3096.22C4593.67 3094.79 4572.78 3088.01 4555.2 3078.37C4534.41 3066.96 4523.04 3063.67 4512.59 3066.03C4504.76 3067.8 4486.6 3066.35 4472.25 3062.81C4457.89 3059.27 4437.1 3052.15 4426.05 3046.99C4414.99 3041.83 4399.93 3037.55 4392.56 3037.49C4385.2 3037.43 4368.26 3032.55 4354.92 3026.65C4338.34 3019.32 4317.97 3015.55 4290.52 3014.75C4256.24 3013.75 4247.13 3011.46 4228.19 2999.07C4210.21 2987.31 4199.29 2984.28 4170.48 2983.06C4150.94 2982.23 4128.59 2979.03 4120.83 2975.94C4113.06 2972.85 4092.62 2970.32 4075.41 2970.32C4058.2 2970.32 4041.59 2967.72 4038.5 2964.55C4035.41 2961.38 4023.1 2956.53 4011.15 2953.78C3999.2 2951.04 3974.74 2946.84 3956.8 2944.45C3938.86 2942.06 3904.98 2937.74 3881.52 2934.84C3858.06 2931.95 3833.22 2928.08 3826.32 2926.26C3819.42 2924.42 3804.19 2921.2 3792.47 2919.08C3780.75 2916.96 3766.76 2911.14 3761.38 2906.13C3753.96 2899.23 3744.57 2897.36 3722.46 2898.36C3706.44 2899.09 3680.3 2899.34 3664.37 2898.9C3638.88 2898.21 3634.73 2896.6 3629.81 2885.5C3626.74 2878.57 3620.9 2871.58 3616.85 2869.98C3612.79 2868.39 3595.6 2875.8 3578.63 2886.46C3552.58 2902.84 3543.51 2905.82 3520.19 2905.61C3505.01 2905.49 3442.91 2905.09 3382.19 2904.73C3321.46 2904.37 3254.35 2904.3 3233.05 2904.58C3196.91 2905.06 3193.63 2904.19 3183.92 2891.5L3173.52 2877.9L3163.42 2888.27C3157.87 2893.98 3149.5 2897.56 3144.81 2896.23C3140.12 2894.91 3125.61 2892.33 3112.56 2890.51C3099.52 2888.69 3087.44 2884.87 3085.73 2882.03C3084.02 2879.18 3077.14 2874.71 3070.45 2872.09C3062.73 2869.08 3044.12 2869.5 3019.5 2873.25C2994.46 2877.07 2976.81 2882.74 2969.7 2889.27C2960.63 2897.59 2954.6 2898.74 2935.51 2895.8C2921.33 2893.61 2909.84 2894.35 2905.91 2897.71C2901.41 2901.55 2886.87 2901.6 2857.3 2897.88C2834.09 2894.96 2791.39 2886.56 2762.41 2879.21C2733.43 2871.85 2706.33 2865.8 2702.19 2865.74C2698.05 2865.7 2675.47 2857.5 2652 2847.53C2628.54 2837.55 2596.93 2828.03 2581.75 2826.36C2558.72 2823.83 2554.06 2821.61 2553.63 2813.01C2553.35 2807.34 2552.79 2799.8 2552.38 2796.25C2551.97 2792.7 2546.27 2789.8 2539.7 2789.8C2533.14 2789.8 2525.01 2793.22 2521.64 2797.4C2516.28 2804.04 2513.73 2804.06 2501.59 2797.61C2493.93 2793.54 2486.47 2785.48 2485 2779.69C2483.17 2772.51 2478.18 2769.17 2469.3 2769.17C2460.57 2769.17 2456.29 2766.38 2456.29 2760.69C2456.29 2756.03 2464.76 2744.67 2475.1 2735.47C2493.51 2719.1 2493.72 2718.5 2484.77 2708.31C2479.74 2702.58 2469.82 2696.39 2462.72 2694.56C2453.56 2692.2 2451.37 2689.63 2455.18 2685.72C2458.58 2682.22 2470.68 2681.5 2488.16 2683.74C2509.32 2686.46 2517.57 2690.11 2523.47 2699.38C2527.8 2706.17 2541.97 2715.16 2555.74 2719.86C2569.24 2724.47 2590.86 2735.13 2603.78 2743.54C2616.7 2751.96 2633.04 2758.85 2640.1 2758.85C2648.45 2758.85 2653.81 2755.46 2655.41 2749.16C2656.77 2743.8 2664.98 2737.37 2673.76 2734.78C2686.06 2731.16 2689.64 2727.23 2689.64 2717.4C2689.64 2707.01 2687.36 2704.89 2677.1 2705.74C2670.2 2706.31 2657.7 2708.24 2649.32 2710.03C2637.62 2712.53 2629.13 2709.94 2612.72 2698.9C2597.87 2688.9 2591.8 2681.47 2592.82 2674.51C2593.63 2668.99 2597.68 2662.65 2601.82 2660.4C2605.96 2658.15 2615.33 2655.03 2622.63 2653.46C2630.8 2651.71 2639.92 2643.64 2646.3 2632.52C2652.41 2621.88 2660.63 2614.43 2666.28 2614.43C2671.55 2614.43 2678.77 2610.83 2682.33 2606.44C2685.87 2602.04 2694.51 2599.14 2701.51 2599.99C2711.54 2601.21 2714.87 2598.81 2717.21 2588.65C2720.08 2576.19 2722.06 2575.61 2774.64 2571.76C2819.24 2568.49 2830.56 2569.12 2837.16 2575.27C2841.6 2579.39 2850.88 2585.25 2857.77 2588.27C2864.67 2591.3 2873.91 2596.44 2878.3 2599.7C2884.64 2604.4 2889.45 2603.23 2901.52 2594.06C2916.26 2582.86 2918.54 2582.66 2973.05 2587.73C3027.85 2592.83 3029.98 2592.64 3052.21 2580.5C3068.57 2571.55 3083.05 2568.01 3103.29 2568.01C3119.67 2568.01 3135.85 2564.91 3141.79 2560.64C3149.24 2555.27 3169.05 2553.13 3214.42 2552.79C3248.73 2552.54 3285.83 2552.74 3296.87 2553.25C3307.91 2553.76 3363.41 2552.48 3420.21 2550.42C3516.83 2546.91 3525.45 2547.35 3554.29 2557.34C3573.17 2563.88 3598.31 2568.06 3619.15 2568.14C3637.87 2568.2 3662.22 2570.7 3673.26 2573.68C3684.3 2576.66 3704.62 2581.15 3718.42 2583.66C3732.22 2586.17 3772.08 2592.96 3807 2598.75C3841.91 2604.54 3878.09 2609.28 3887.4 2609.28C3896.72 2609.28 3926.87 2615.05 3954.4 2622.11C3981.94 2629.17 4019.15 2640.44 4037.09 2647.17C4055.03 2653.9 4085.52 2664.6 4104.84 2670.96C4124.16 2677.33 4185.34 2705.51 4240.8 2733.59C4296.25 2761.67 4343.15 2784.64 4345.03 2784.64C4346.9 2784.64 4357.56 2790.56 4368.73 2797.81C4379.88 2805.05 4415.41 2825 4447.67 2842.14C4479.92 2859.29 4534.54 2888.49 4569.05 2907.04C4603.55 2925.6 4661.01 2955.83 4696.74 2974.23C4732.46 2992.63 4777.63 3014.55 4797.1 3022.95C4816.58 3031.35 4845.81 3043.98 4862.05 3051.02C4881.36 3059.38 4893.3 3062.07 4896.52 3058.76C4899.74 3055.45 4889.5 3041.43 4866.98 3018.25C4848.02 2998.75 4821.22 2968.97 4807.42 2952.06C4793.62 2935.16 4780.35 2920.45 4777.92 2919.39C4775.49 2918.32 4760.82 2906.16 4745.3 2892.37C4729.79 2878.58 4711.44 2862.5 4704.54 2856.65C4697.64 2850.8 4688.61 2843.84 4684.47 2841.19C4680.33 2838.55 4672.02 2836.34 4666.01 2836.3C4659.91 2836.26 4649.9 2829.41 4643.33 2820.78C4633.9 2808.39 4626.83 2804.89 4607.54 2803.03C4589.33 2801.28 4581.05 2797.51 4573.4 2787.52C4566.29 2778.24 4558.5 2774.33 4547.1 2774.33C4538.19 2774.33 4528.57 2776.73 4525.72 2779.65C4522.87 2782.58 4516.98 2783.57 4512.62 2781.86C4508.27 2780.14 4503.4 2773.38 4501.8 2766.83C4500.21 2760.29 4493.79 2753.52 4487.55 2751.8C4481.31 2750.08 4470.4 2748.65 4463.31 2748.61C4456.22 2748.57 4445.83 2743.31 4440.23 2736.93C4434.64 2730.55 4425.76 2722.56 4420.51 2719.18C4411.84 2713.6 4411.77 2713.01 4419.75 2712.74C4424.58 2712.57 4428.53 2708.89 4428.53 2704.57C4428.53 2700.24 4422.74 2694.44 4415.66 2691.67C4408.58 2688.91 4393.34 2686.64 4381.78 2686.64C4368.8 2686.64 4348.43 2680.63 4328.42 2670.9C4310.62 2662.24 4288.8 2647.49 4279.94 2638.11C4271.08 2628.74 4257.22 2619.71 4249.14 2618.05C4240.4 2616.25 4228.92 2607.58 4220.83 2596.68C4212.06 2584.86 4203.03 2578.33 4195.45 2578.33C4188.99 2578.33 4182.4 2574.85 4180.82 2570.59C4178.69 2564.91 4173.22 2563.63 4160.2 2565.75C4145.25 2568.19 4142.48 2567.15 4142.48 2559.05C4142.48 2553.77 4139.77 2546.66 4136.46 2543.26C4133.15 2539.85 4126.65 2537.07 4122.01 2537.07C4117.39 2537.07 4110.79 2540.55 4107.35 2544.8C4103.91 2549.06 4097.21 2552.54 4092.46 2552.54C4087.7 2552.54 4079.72 2547.9 4074.73 2542.22C4067.42 2533.93 4059.18 2531.89 4032.55 2531.8C4010.49 2531.72 3992.16 2528.28 3977.58 2521.48C3965.54 2515.87 3949.2 2511.28 3941.27 2511.28C3933.33 2511.28 3916.23 2508.38 3903.28 2504.83C3885.63 2500 3877.37 2494.28 3870.33 2482.04C3865.17 2473.06 3854.87 2461.61 3847.45 2456.62C3840.02 2451.62 3823.76 2447.18 3811.32 2446.75C3798.87 2446.31 3777.39 2444.23 3763.59 2442.1C3749.79 2439.97 3730.59 2435.72 3720.93 2432.65C3711.27 2429.57 3693.2 2426.67 3680.78 2426.19C3668.36 2425.72 3646.91 2422.61 3633.11 2419.29C3619.31 2415.97 3587.69 2408.64 3562.85 2403.01C3538.01 2397.38 3508.65 2391.82 3497.61 2390.65C3486.57 2389.48 3466.25 2386.78 3452.44 2384.65C3438.64 2382.52 3422.84 2377.84 3417.32 2374.25C3411.8 2370.66 3391.47 2366.95 3372.15 2366C3338.95 2364.37 3336.93 2364.92 3335.41 2375.88C3334.35 2383.59 3330.14 2387.72 3322.87 2388.18C3316.85 2388.55 3300.64 2389.53 3286.84 2390.35C3273.04 2391.16 3252.52 2393.43 3241.23 2395.39C3226.75 2397.89 3216.25 2396.56 3205.49 2390.84C3197.11 2386.39 3189.35 2383.66 3188.26 2384.79C3187.17 2385.92 3160.34 2390.66 3128.66 2395.35C3096.97 2400.02 3054.11 2405.79 3033.41 2408.17C3012.7 2410.55 2979.96 2415.07 2960.64 2418.22C2941.32 2421.37 2901.8 2425.04 2872.82 2426.37C2843.83 2427.71 2791.89 2428.5 2757.39 2428.13C2722.89 2427.76 2676.02 2426.94 2653.23 2426.3C2622.98 2425.45 2609.33 2422.84 2602.65 2416.63C2597.62 2411.95 2587.41 2408.12 2579.98 2408.12C2569.9 2408.12 2565.03 2404.5 2560.91 2393.94C2557.86 2386.14 2555.58 2357.99 2555.81 2331.39C2556.05 2304.79 2557.3 2281.96 2558.57 2280.65C2559.85 2279.33 2570.06 2276.14 2581.28 2273.55C2594.5 2270.5 2609.62 2261 2624.32 2246.53C2636.79 2234.25 2646.99 2221.44 2646.99 2218.07C2646.99 2214.68 2652.4 2203.1 2659.02 2192.33C2665.64 2181.55 2676.58 2169.01 2683.35 2164.45C2690.71 2159.5 2698.12 2147.1 2701.8 2133.59C2705.19 2121.17 2715.83 2102.42 2725.46 2091.93C2735.09 2081.44 2745.95 2072.86 2749.59 2072.86C2753.24 2072.86 2757.37 2068.36 2758.77 2062.85C2760.17 2057.34 2769.48 2049.33 2779.46 2045.05C2789.44 2040.76 2799.59 2031.92 2802.02 2025.4C2804.44 2018.88 2811.2 2009.13 2817.04 2003.72C2822.87 1998.32 2827.65 1991.04 2827.65 1987.56C2827.65 1984.08 2823.7 1979.76 2818.87 1977.96C2814.04 1976.17 2804.44 1971.26 2797.54 1967.06C2788.65 1961.65 2776.95 1960.25 2757.39 1962.27C2742.21 1963.84 2688.52 1962.98 2638.09 1960.37C2561.21 1956.38 2544.78 1954.12 2536.44 1946.37C2530.98 1941.28 2524.32 1928.78 2521.66 1918.6C2518.04 1904.8 2518.75 1894.15 2524.41 1876.86C2528.59 1864.1 2535.07 1846.69 2538.8 1838.18C2542.53 1829.67 2547.1 1810.95 2548.96 1796.58C2551.76 1774.82 2550.13 1765.35 2539.24 1740.04C2532.04 1723.32 2525.88 1702.11 2525.55 1692.91C2525.21 1683.71 2527.35 1673.17 2530.29 1669.5C2533.24 1665.82 2543.55 1637.28 2553.21 1606.08C2562.86 1574.87 2576.67 1527.01 2583.9 1499.71C2594.45 1459.84 2595.98 1447.23 2591.69 1435.63C2588.76 1427.68 2587.73 1414.73 2589.41 1406.84C2591.1 1398.95 2596.59 1391.16 2601.61 1389.52C2606.63 1387.88 2616.63 1377.38 2623.84 1366.19C2631.05 1354.99 2636.95 1338.67 2636.95 1329.91C2636.95 1321.15 2634.61 1309.49 2631.76 1304.01C2628.79 1298.32 2621.28 1294.03 2614.29 1294.03C2605.56 1294.03 2601.15 1290.5 2599.03 1281.83C2597.39 1275.12 2598.29 1260.61 2601.03 1249.59C2603.76 1238.57 2606.75 1200.59 2607.67 1165.19L2609.35 1100.82L2591.78 1091.94C2582.12 1087.05 2569.7 1082.98 2564.18 1082.89C2558.66 1082.81 2549.53 1087.92 2543.9 1094.25C2538.27 1100.59 2525.28 1116.45 2515.05 1129.51C2504.81 1142.57 2496.43 1157.32 2496.43 1162.29C2496.43 1167.27 2501.66 1177.71 2508.04 1185.51C2517.93 1197.59 2519.54 1204.96 2518.92 1235.26C2518.51 1254.81 2516.51 1278.3 2514.46 1287.44C2512.42 1296.59 2504.14 1309.78 2496.06 1316.77C2487.99 1323.75 2481.38 1331.94 2481.38 1334.96C2481.38 1337.98 2479.63 1340.45 2477.5 1340.45C2475.37 1340.45 2469.44 1348.44 2464.33 1358.2C2459.21 1367.96 2452.16 1377.08 2448.65 1378.46C2445.15 1379.85 2437.09 1390.46 2430.76 1402.05C2421.85 1418.32 2414.81 1424.33 2399.79 1428.49C2386.11 1432.28 2375.47 1432.21 2363.86 1428.27C2354.78 1425.19 2342.38 1417.23 2336.3 1410.58C2330.21 1403.92 2319.46 1381.36 2312.39 1360.44C2305.33 1339.52 2295.29 1316.24 2290.09 1308.71C2284.9 1301.18 2280.64 1292.95 2280.64 1290.42C2280.64 1287.89 2270.32 1268.52 2257.71 1247.37C2245.09 1226.23 2227.02 1201.76 2217.56 1193C2208.09 1184.23 2200.35 1174.39 2200.35 1171.12C2200.35 1167.85 2195.83 1162.27 2190.31 1158.73C2184.79 1155.19 2180.27 1150.62 2180.27 1148.58C2180.27 1146.54 2168.98 1134.01 2155.18 1120.74C2141.38 1107.48 2130.09 1093.85 2130.09 1090.46C2130.09 1087.07 2124.2 1081.06 2117 1077.1C2109.8 1073.15 2097.57 1060.43 2089.82 1048.86C2082.07 1037.28 2072.64 1025.17 2068.87 1021.95C2064.65 1018.35 2059.24 1017.85 2054.84 1020.64ZM2606.88 1477.15C2604.53 1480.03 2605.28 1487.37 2608.58 1493.7C2611.83 1499.96 2632.07 1523.53 2653.55 1546.08C2681.95 1575.89 2705.2 1594.32 2738.8 1613.65C2764.21 1628.26 2798.54 1644.87 2815.1 1650.56C2831.66 1656.26 2857.81 1668.56 2873.21 1677.89C2888.61 1687.21 2922.48 1705.74 2948.48 1719.06C2974.49 1732.38 3013.83 1753.53 3035.91 1766.05C3068.18 1784.35 3081.04 1788.86 3101.41 1789.01C3115.35 1789.1 3146.4 1784.77 3170.41 1779.38C3194.42 1773.98 3214.07 1770.58 3214.07 1771.82C3214.07 1773.06 3218.43 1771.68 3223.74 1768.75C3229.37 1765.66 3236.73 1751.73 3241.32 1735.49C3245.67 1720.13 3247.8 1703.76 3246.07 1699.11C3244.33 1694.46 3232.71 1682.65 3220.24 1672.87C3207.77 1663.08 3194.54 1655.08 3190.83 1655.08C3187.13 1655.08 3180.85 1647.1 3176.88 1637.35C3170.86 1622.53 3165.45 1618.32 3143.99 1611.77C3123.4 1605.48 3112.95 1605.04 3091.26 1609.51C3076.38 1612.58 3056.18 1613.55 3046.37 1611.66C3036.57 1609.77 3021.17 1601.19 3012.15 1592.6C3003.14 1584 2990.09 1573.88 2983.16 1570.1C2976.22 1566.33 2959.28 1561.62 2945.52 1559.64C2931.75 1557.67 2908.95 1552.73 2894.85 1548.67C2880.74 1544.61 2857.19 1532.08 2842.5 1520.82C2827.82 1509.55 2815.65 1500.26 2815.45 1500.15C2815.26 1500.04 2806.07 1498.68 2795.03 1497.11C2783.99 1495.55 2762.54 1488.68 2747.36 1481.84C2722.93 1470.82 2713.5 1469.55 2665.43 1470.69C2635.55 1471.39 2609.21 1474.3 2606.88 1477.15ZM2847.72 1969.08C2847.72 1971.56 2851.17 1976.53 2855.37 1980.12C2859.58 1983.71 2864.37 1985.26 2866.03 1983.56C2867.68 1981.86 2867.7 1976.89 2866.07 1972.51C2864.43 1968.13 2859.64 1964.55 2855.41 1964.55C2851.18 1964.55 2847.72 1966.58 2847.72 1969.08ZM1599.05 2059.97C1595.9 2067.06 1595.09 2072.86 1597.24 2072.86C1599.39 2072.86 1603.85 2070.08 1607.17 2066.67C1610.48 2063.27 1613.19 2057.47 1613.19 2053.78C1613.19 2050.09 1611.29 2047.07 1608.98 2047.07C1606.66 2047.07 1602.19 2052.88 1599.05 2059.97ZM3313.08 2119.75C3308.19 2122.68 3299.98 2123.7 3294.84 2122.02C3289.69 2120.34 3275.63 2121.23 3263.58 2124C3250.51 2127.01 3236.43 2134.87 3228.69 2143.5C3221.55 2151.46 3209.13 2161.53 3201.09 2165.87C3193.01 2170.25 3185.75 2178.89 3184.87 2185.21C3183.68 2193.69 3186.81 2198.02 3197.02 2202.01C3204.59 2204.97 3213.78 2206.2 3217.44 2204.76C3221.11 2203.31 3227.49 2203.47 3231.63 2205.1C3235.77 2206.73 3239.16 2210.14 3239.16 2212.68C3239.16 2215.21 3230.25 2217.28 3219.37 2217.28C3205.84 2217.28 3195.25 2221.11 3185.91 2229.36C3177.23 2237.03 3173.36 2244.45 3175.31 2249.66C3177.77 2256.24 3186.21 2257.83 3217.55 2257.66C3239.1 2257.54 3262.93 2255.08 3270.53 2252.21C3278.12 2249.33 3284.33 2244.54 3284.33 2241.56C3284.33 2238.58 3280.63 2231.95 3276.12 2226.82C3269.39 2219.18 3269.16 2217.05 3274.86 2215.01C3278.69 2213.64 3289.72 2211.85 3299.38 2211.04C3312.09 2209.96 3316.41 2207.41 3315.01 2201.81C3313.94 2197.55 3312.03 2189.11 3310.77 2183.05C3308.8 2173.61 3311.22 2171.67 3327.76 2169.46C3338.38 2168.03 3351.64 2165.31 3357.24 2163.41C3363.97 2161.11 3371.37 2163.45 3379.09 2170.33C3385.5 2176.05 3398.54 2183.37 3408.06 2186.6C3417.59 2189.83 3431.05 2191.01 3437.98 2189.22C3447.44 2186.78 3450.19 2183.11 3449.01 2174.55C3447.95 2166.89 3443.31 2162.53 3434.97 2161.32C3428.12 2160.33 3415.06 2152.78 3405.94 2144.56C3394.72 2134.43 3383.94 2129.6 3372.59 2129.6C3363.36 2129.6 3353 2126.12 3349.57 2121.86C3346.13 2117.61 3338.52 2114.2 3332.64 2114.28C3326.77 2114.37 3317.97 2116.83 3313.08 2119.75ZM3669.49 2211.01C3664.66 2212.04 3660.71 2217.07 3660.71 2222.19C3660.71 2227.3 3663.54 2233.78 3666.98 2236.57C3670.44 2239.36 3682.05 2243.03 3692.79 2244.73C3703.54 2246.43 3717.2 2252.52 3723.14 2258.26C3729.1 2264 3740.63 2270.07 3748.77 2271.73C3756.92 2273.4 3769.62 2272.4 3776.99 2269.52C3787.32 2265.47 3789.75 2261.76 3787.61 2253.33C3786.08 2247.33 3779.71 2238.96 3773.45 2234.75C3767.2 2230.53 3750 2222.53 3735.23 2216.97C3720.46 2211.41 3701.61 2207.38 3693.33 2208C3685.05 2208.63 3674.32 2209.99 3669.49 2211.01ZM3600.49 2268.63C3600.49 2270.75 3602.97 2279.79 3606 2288.72C3609.03 2297.66 3615.24 2305.32 3619.8 2305.75C3624.36 2306.18 3630.8 2306.79 3634.1 2307.1C3637.4 2307.41 3646.56 2314.02 3654.45 2321.79C3662.33 2329.56 3671.18 2335.91 3674.11 2335.91C3677.03 2335.91 3685.07 2340.48 3691.97 2346.05C3698.87 2351.63 3714.42 2359.45 3726.52 2363.43C3738.63 2367.42 3755.31 2370.11 3763.59 2369.41C3771.87 2368.72 3785.42 2372.14 3793.7 2377.02C3801.98 2381.91 3821.85 2388.77 3837.85 2392.28C3857.27 2396.54 3868.95 2396.95 3872.98 2393.53C3876.3 2390.71 3885.79 2387.62 3894.07 2386.65C3907.3 2385.12 3909.28 2382.72 3910.43 2366.86C3911.15 2356.93 3909.89 2345.91 3907.64 2342.37C3905.38 2338.84 3887.85 2331.47 3868.69 2326C3849.52 2320.54 3824.81 2312.51 3813.77 2308.16C3802.73 2303.81 3779.02 2300.18 3761.08 2300.08C3731.16 2299.92 3727.42 2298.63 3715.91 2284.58C3703.78 2269.76 3701.66 2269.17 3651.93 2267.02C3623.63 2265.79 3600.49 2266.52 3600.49 2268.63ZM1062.83 2504.4C1064.67 2506.29 1067.69 2506.29 1069.53 2504.4C1071.36 2502.51 1069.86 2500.96 1066.18 2500.96C1062.5 2500.96 1061 2502.51 1062.83 2504.4ZM2486.4 2769.17C2486.4 2772.01 2488.65 2774.33 2491.42 2774.33C2494.18 2774.33 2496.43 2772.01 2496.43 2769.17C2496.43 2766.33 2494.18 2764.01 2491.42 2764.01C2488.65 2764.01 2486.4 2766.33 2486.4 2769.17ZM2034.74 2847.41C2027.84 2850.36 2015.99 2852.69 2008.4 2852.58C1997.87 2852.43 1993.88 2855.37 1991.52 2865.03C1989.82 2871.99 1990.78 2884.02 1993.64 2891.77C1996.51 2899.51 2000.33 2915.14 2002.13 2926.48C2003.93 2937.83 2010.76 2952.92 2017.3 2960.01C2023.84 2967.1 2032.66 2981.45 2036.91 2991.89C2041.15 3002.34 2047.26 3012.56 2050.48 3014.6C2053.77 3016.69 2059.28 3014.02 2063.05 3008.51C2066.75 3003.11 2075.16 2992.59 2081.74 2985.12C2090.66 2974.99 2093.4 2966.47 2092.55 2951.59C2091.92 2940.62 2089.77 2923.52 2087.78 2913.59C2085.79 2903.66 2079.56 2885.09 2073.93 2872.33C2068.29 2859.56 2061.12 2847.41 2057.99 2845.32C2054.86 2843.24 2051.17 2841.65 2049.79 2841.79C2048.41 2841.92 2041.64 2844.45 2034.74 2847.41ZM2466.32 2980.64C2466.32 2983.48 2469.71 2985.8 2473.85 2985.8C2477.99 2985.8 2481.38 2983.48 2481.38 2980.64C2481.38 2977.8 2477.99 2975.48 2473.85 2975.48C2469.71 2975.48 2466.32 2977.8 2466.32 2980.64ZM1973.26 3044.96C1968.43 3051.78 1964.48 3059.75 1964.48 3062.67C1964.48 3065.58 1968.85 3070.36 1974.19 3073.3C1979.52 3076.24 1988.56 3078.64 1994.26 3078.64C1999.96 3078.64 2004.63 3077.08 2004.63 3075.17C2004.63 3073.26 2000.67 3062.88 1995.84 3052.09C1991.02 3041.31 1985.93 3032.5 1984.55 3032.51C1983.17 3032.53 1978.09 3038.13 1973.26 3044.96ZM2003.01 3221.28C2001.14 3223.2 1999.61 3228.75 1999.61 3233.6C1999.61 3238.45 2002.43 3244.81 2005.88 3247.73C2009.33 3250.65 2019.73 3254.25 2028.98 3255.73C2038.24 3257.22 2048.96 3257.19 2052.82 3255.67C2056.67 3254.14 2059.83 3249.7 2059.83 3245.78C2059.83 3241.87 2052.29 3235.43 2043.08 3231.48C2033.87 3227.52 2021.85 3222.83 2016.37 3221.04C2010.89 3219.25 2004.88 3219.36 2003.01 3221.28ZM1573.04 3318.48C1573.04 3319.9 1574.17 3321.06 1575.55 3321.06C1576.93 3321.06 1578.06 3319.9 1578.06 3318.48C1578.06 3317.06 1576.93 3315.9 1575.55 3315.9C1574.17 3315.9 1573.04 3317.06 1573.04 3318.48ZM1557.05 3324.58C1560.67 3326.07 1565 3325.88 1566.66 3324.17C1568.33 3322.46 1565.37 3321.24 1560.08 3321.46C1554.23 3321.71 1553.04 3322.93 1557.05 3324.58ZM1517.84 3337.63C1517.84 3339.86 1521.09 3341.69 1525.07 3341.69C1529.05 3341.69 1533.61 3339.51 1535.22 3336.84C1536.82 3334.18 1533.57 3332.35 1527.99 3332.78C1522.41 3333.21 1517.84 3335.4 1517.84 3337.63ZM1298.94 3413.73C1284.82 3418.9 1268.38 3425.81 1262.42 3429.09C1256.46 3432.36 1253.04 3437.47 1254.82 3440.44C1256.84 3443.79 1266.85 3444.5 1281.31 3442.31C1294.1 3440.36 1311.94 3433.03 1320.96 3426C1329.98 3418.97 1336.06 3411.06 1334.47 3408.4C1332.87 3405.75 1330 3403.75 1328.1 3403.96C1326.19 3404.16 1313.07 3408.56 1298.94 3413.73ZM4405.42 3471.92C4406.4 3483.98 4413.33 3510.09 4420.81 3529.95C4432.79 3561.74 4434.08 3570.83 4431.63 3606.03L4428.85 3646H4584.87C4726.42 3646 4740.29 3645.25 4734.33 3637.86C4730.72 3633.38 4717.45 3624.4 4704.86 3617.89C4692.26 3611.38 4669.54 3602.53 4654.36 3598.22C4639.18 3593.91 4617.11 3588.93 4605.33 3587.16C4590.41 3584.93 4579.22 3586.44 4568.51 3592.13C4553.92 3599.88 4552.26 3599.69 4536.24 3588.41C4526.96 3581.87 4518.02 3571.04 4516.38 3564.35C4514.75 3557.65 4516.02 3548.94 4519.21 3544.99C4522.39 3541.05 4523.69 3534.31 4522.09 3530.02C4520.49 3525.72 4514.26 3522.21 4508.26 3522.21C4502.26 3522.21 4489.46 3514.67 4479.83 3505.45C4470.19 3496.23 4456.4 3482.59 4449.18 3475.15C4441.96 3467.7 4431.13 3459 4425.1 3455.81C4419.07 3452.61 4411.77 3450 4408.88 3450C4405.76 3450 4404.36 3458.92 4405.42 3471.92ZM1101.31 3473.78C1080.61 3480.71 1046.73 3489.62 1026.03 3493.57C1005.33 3497.52 982.748 3502.99 975.848 3505.73C968.948 3508.47 959.001 3515.62 953.742 3521.62C947.117 3529.18 938.175 3532.53 924.635 3532.53C913.886 3532.53 898.629 3535.96 890.725 3540.16C882.826 3544.36 855.913 3550.18 830.926 3553.09C805.934 3556 779.888 3561 773.038 3564.21C765.265 3567.85 760.02 3575.1 759.067 3583.52C757.907 3593.79 753.366 3598.39 739.982 3602.82C730.321 3606.03 721.689 3612.41 720.796 3617.01C719.863 3621.82 722.452 3625.37 726.889 3625.37C731.134 3625.37 737.026 3630.01 739.982 3635.68C744.132 3643.65 750.49 3646 767.934 3646C780.355 3646 795.521 3642.74 801.633 3638.75C807.746 3634.77 825.17 3629.86 840.35 3627.83C855.531 3625.81 874.18 3620.88 881.787 3616.87C889.4 3612.87 908.039 3597.43 923.21 3582.57C944.302 3561.9 961.114 3551.36 994.682 3537.77C1018.83 3527.99 1043.35 3516.96 1049.19 3513.23C1055.02 3509.51 1075.84 3501.9 1095.44 3496.32C1115.04 3490.73 1137.92 3481.89 1146.29 3476.66C1154.65 3471.43 1159.99 3465.62 1158.17 3463.74C1156.34 3461.86 1151.26 3460.51 1146.89 3460.74C1142.52 3460.97 1122.01 3466.83 1101.31 3473.78Z" fill="black"/>
</mask>
<g mask="url(#mask0_3_42)">
<path d="M250 -338H3438V3985H250V-338Z" fill="url(#paint0_linear_3_42)"/>
</g>
<defs>
<linearGradient id="paint0_linear_3_42" x1="1844" y1="-338" x2="1844" y2="3985" gradientUnits="userSpaceOnUse">
<stop stop-color="#3C95B0"/>
<stop offset="1"/>
</linearGradient>
</defs>
</svg>
