<svg width="2678" height="2844" viewBox="0 0 2678 2844" fill="none" xmlns="http://www.w3.org/2000/svg">
<path fill-rule="evenodd" clip-rule="evenodd" d="M1409.24 5.10057C1373.11 9.81059 1271.21 33.3166 1247.27 42.467C1236.27 46.6708 1218.93 72.8785 1173.27 154.302C924.559 597.786 736.919 858.735 455.832 1152.03C403.622 1206.5 335.153 1283.26 303.674 1322.6C246.024 1394.65 164.712 1512.19 143.222 1554.55C132.094 1576.48 131.984 1578.49 140.504 1604.07C147.512 1625.1 160.575 1641.77 202.373 1683C271.744 1751.44 322.727 1782.43 562.721 1902.04C904.461 2072.35 1021.2 2142.24 1171.68 2266.64C1243.48 2325.99 1357.67 2445.32 1401.91 2507.25L1437.66 2557.29L2044.45 2557.59L2651.24 2557.88L2647.45 2545.5C2635.83 2507.55 2603.62 2435.65 2580.79 2396.68C2475.74 2217.43 2296.31 2090.98 2064.7 2032.97C1944.68 2002.91 1777.22 2007.37 1660.43 2043.74C1504.64 2092.26 1263.7 2017.29 1144.13 1883.08C1106.9 1841.3 1081.91 1791.6 1061.49 1718.77C1030.76 1609.13 1025.42 1566.13 1025.27 1427.14C1025.11 1278.9 1032.83 1218.19 1067.17 1098.06C1133.41 866.34 1256.92 658.659 1424.67 496.917C1594.21 333.442 1772.46 245.724 1961.59 232.694L2017.73 228.826L1993.95 207.884C1816.99 52.0631 1607.19 -20.7 1409.24 5.10057ZM1910.04 354.038C1815.54 371.199 1713.15 416.753 1619.17 483.442C1556.51 527.912 1437.48 646.471 1387.1 714.59C1263.77 881.372 1187.12 1058.18 1151.18 1258.76C1139.24 1325.42 1135.13 1464.25 1142.96 1536.27C1151.08 1610.84 1178.3 1721.06 1197.54 1757.21C1231.68 1821.37 1328.51 1890.44 1429.41 1922.6C1518.23 1950.92 1636.47 1946.27 1646.69 1914.06C1648.49 1908.37 1646.16 1883.65 1641.5 1859.11C1636.85 1834.57 1630.35 1780.17 1627.05 1738.23C1607.41 1488.04 1685.76 1267.65 1845.94 1122.51C1997.42 985.267 2190.06 909.797 2487.11 871.325C2517.89 867.335 2518.26 874.802 2482.75 783.083C2399.5 568.079 2276.06 424.385 2130.26 372.735C2058.5 347.314 1982.56 340.865 1910.04 354.038ZM54.0821 1735.8C38.3785 1772.44 6.73468 1877.99 2.05384 1909.35C-0.921876 1929.27 0.766737 1940.59 9.74889 1960.89C38.5985 2026.14 115.868 2108.84 199.32 2163.8C297.673 2228.56 433.214 2285.29 534.46 2304.05L560.834 2308.94L573.87 2283.21C586.307 2258.66 618.165 2222.23 627.202 2222.23C631.767 2222.23 702.03 2264.29 769.36 2307.33C836.69 2350.37 950.125 2437.73 1002.73 2487.07C1103.61 2581.69 1179.12 2681.13 1231.86 2788.85L1258.86 2844H1968.43H2678L2677.92 2771.09C2677.88 2730.99 2676.36 2692.62 2674.53 2685.81L2671.22 2673.43L2024.18 2673.33L1377.15 2673.23L1358.44 2644.44C1261.7 2495.59 1118.64 2356.88 942.623 2241.25C844.765 2176.96 784.943 2144.2 541.093 2021.36C240.832 1870.11 178.776 1831.64 103.916 1750.36L65.644 1708.82L54.0821 1735.8Z" fill="black"/>
</svg>
