<svg width="2864" height="2311" viewBox="0 0 2864 2311" fill="none"
  xmlns="http://www.w3.org/2000/svg">
  <path d="M86.613 1004.56C158.075 989.717 220.756 975.857 274.655 962.981C329.614 948.137 375.716 936.777 412.961 928.9C456.262 919.205 494.037 910.343 526.286 902.315C560.049 893.833 602.441 881.11 653.463 864.147C697.369 850.97 753.161 833.4 820.837 811.439C889.573 787.509 972.994 757.521 1071.1 721.476L1147.67 1042.6C1116.94 1099.68 1089.85 1152.38 1066.39 1200.68C1044.44 1248.52 1024.68 1289.94 1007.12 1324.91C987.899 1365.34 970.794 1401.83 955.809 1434.39C941.278 1468.45 925.309 1508.73 907.902 1555.21C892.16 1596.25 873.391 1646.44 851.595 1705.79C829.345 1763.63 804.295 1831.39 776.445 1909.06C858.352 1879.53 925.12 1854.54 976.747 1834.1C1027.92 1812.14 1067.97 1794.34 1096.88 1780.71C1131.4 1763.75 1156.53 1751.26 1172.28 1743.23C1185.6 1732.63 1199.15 1714.54 1212.92 1688.95C1224.58 1667.29 1237.52 1636.18 1251.75 1595.6C1265.98 1555.02 1279.6 1501.42 1292.61 1434.8C1306.7 1481.74 1318.74 1521.86 1328.74 1555.17C1339.79 1586.51 1348.5 1612.77 1354.86 1633.97L1373.27 1695.29L1388.94 1747.52C1393.94 1764.18 1400.07 1784.62 1407.34 1808.84C1416.13 1832.61 1425.82 1859.41 1436.42 1889.23C1375.1 1899.38 1319.77 1910.22 1270.41 1921.73C1220.6 1931.73 1178.05 1941.19 1142.78 1950.13C1101.44 1960.89 1064.35 1972.02 1031.5 1983.53C999.097 1996.55 958.371 2012.08 909.317 2030.1C867.834 2045.85 816.509 2064.55 755.343 2086.21C694.177 2107.87 621.884 2133.69 538.462 2163.68L416.252 1937.95C439.869 1917.66 465.378 1884.42 492.777 1838.24C520.176 1792.06 545.835 1745.57 569.752 1698.78C596.393 1644.58 624.17 1585.9 653.082 1522.76C680.479 1460.08 707.12 1397.62 733.003 1335.39C755.103 1282.55 778.262 1227.74 802.481 1170.96C828.214 1113.72 850.238 1063.38 868.553 1019.92C787.705 1047.49 722.149 1073.76 671.885 1098.75C621.166 1122.22 581.803 1142.29 553.794 1158.95C520.184 1178.94 496.113 1197.71 481.58 1215.28C469.015 1233.9 454.71 1260.47 438.665 1295C424.285 1324.07 407.861 1362.83 389.395 1411.28C370.474 1458.22 350.42 1517.88 329.231 1590.25C314.236 1540.29 300.075 1495.85 286.746 1456.94C272.964 1416.52 261.226 1382.91 251.533 1356.11C238.963 1325.23 228.286 1297.9 219.502 1274.13C209.204 1250.81 197.467 1225.45 184.291 1198.05C173.539 1173.22 159.379 1145.29 141.813 1114.25C125.306 1081.25 106.906 1044.68 86.613 1004.56ZM1056.99 418.74C1121.33 407.681 1185.76 394.123 1250.25 378.066C1316.26 361.556 1375.77 345.349 1428.76 329.445C1490.83 310.815 1550.94 291.126 1609.07 270.377C1669.18 250.687 1731.86 228.575 1797.11 204.04C1853.74 183.745 1917.7 160.422 1989.01 134.069C2060.32 107.717 2134.66 80.4552 2212.03 52.285L2284.95 245.774C2289.04 259.4 2295.02 276.584 2302.9 297.326C2308.35 315.494 2315.17 338.205 2323.34 365.457C2333.04 392.255 2344.09 423.595 2356.51 459.477C2316.09 522.769 2280.29 582.2 2249.11 637.769C2218.99 691.371 2193.56 738.612 2172.82 779.494C2147.84 828.25 2126.5 872.614 2108.79 912.588C2086.23 963.917 2064.13 1025.01 2042.49 1095.87C2020.39 1165.22 2000.34 1233.13 1982.33 1299.6C1965.38 1364.1 1952.89 1421.48 1944.88 1471.75C1936.4 1520.5 1935.27 1549.72 1941.48 1559.41C1945.26 1566.53 1961.77 1566.53 1990.99 1559.41C2019.75 1550.78 2054.12 1538.81 2094.09 1523.51C2135.58 1507.76 2180.39 1489.36 2228.53 1468.31C2277.74 1445.29 2323.16 1423.41 2364.79 1402.66C2407.49 1379.95 2444.88 1358.82 2476.98 1339.29C2509.07 1319.75 2529.06 1303.85 2536.93 1291.59C2546.92 1275.38 2555.47 1248.89 2562.58 1212.1C2569.55 1180.3 2574.84 1137.45 2578.47 1083.55C2583.16 1027.68 2585.12 954.475 2584.35 863.934C2604.49 925.554 2621.15 978.317 2634.33 1022.22C2649.02 1065.68 2662.43 1102.09 2674.54 1131.46C2686.51 1165.83 2697.41 1193.91 2707.25 1215.71C2716.04 1239.48 2727.25 1265.83 2740.87 1294.74C2751.63 1319.57 2765.18 1350.99 2781.54 1388.99C2797.89 1426.99 2817.13 1469.08 2839.24 1515.26C2726.14 1534.35 2631.81 1552.75 2556.27 1570.47C2480.26 1586.68 2419.32 1600.85 2373.45 1612.96C2320 1627.35 2277.61 1640.08 2246.27 1651.13C2214.32 1665.67 2170.95 1686.12 2116.14 1712.47C2069.97 1734.58 2009.26 1766 1934.01 1806.74C1858.31 1845.96 1763.76 1896.62 1650.37 1958.7C1638.71 1930.85 1628.18 1906.78 1618.79 1886.49C1609.4 1866.2 1600.69 1848.18 1592.67 1832.44C1584.64 1816.69 1576.84 1801.7 1569.27 1787.47C1562.15 1774.76 1552.69 1756.97 1540.88 1734.11C1531.49 1713.82 1518.46 1689.67 1501.81 1661.66C1486.21 1631.69 1466.82 1594.59 1443.65 1550.38C1506.32 1429.25 1557.64 1328.03 1597.6 1246.72C1638.62 1163.44 1671.17 1095.91 1695.23 1044.13C1723.09 982.958 1744.81 934.355 1760.4 898.318C1774.48 862.736 1793.55 819.053 1817.62 767.27C1837.45 723.36 1863.86 668.396 1896.86 602.379C1929.4 534.848 1968.84 454.523 2015.16 361.403C1944.6 379.277 1879.5 398.815 1819.85 420.019C1761.71 440.768 1711.6 460.759 1669.51 479.992C1619.85 501.497 1574.66 524.138 1533.93 547.913C1496.69 572.294 1460.96 604.471 1426.75 644.446C1397.23 678.062 1367.4 721.67 1337.28 775.271C1307.16 828.873 1282.94 893.904 1264.63 970.367C1246.6 921.313 1231.61 879.602 1219.65 845.234C1207.68 810.866 1197.53 782.554 1189.2 760.299C1179.96 735.015 1172.09 714.273 1165.58 698.073C1160.58 681.419 1152.48 659.92 1141.27 633.577C1131.43 611.775 1119.76 583.918 1106.28 550.004C1092.35 514.577 1075.92 470.822 1056.99 418.74Z" fill="black"/>
</svg>
