<svg width="2650" height="2185" viewBox="0 0 2650 2185" fill="none"
  xmlns="http://www.w3.org/2000/svg">
  <path fill-rule="evenodd" clip-rule="evenodd" d="M960.761 23.9944C901.697 44.243 879.622 58.5815 837.434 104.095C809.171 134.591 760.611 172.303 729.522 187.916C698.434 203.518 659.431 225.864 642.854 237.571C616.061 256.473 613.492 256.812 619.73 240.552C623.595 230.489 626.75 220.406 626.75 218.165C626.75 215.914 644.756 204.885 666.759 193.661C688.752 182.437 723.305 153.914 743.53 130.284C778.637 89.2627 809.346 22.8226 798.308 11.7733C795.441 8.91586 777.641 14.5279 758.741 24.2616C684.015 62.7648 659.113 91.1128 607.531 196.436C565.867 281.501 545.621 310.24 499.034 350.439C428.707 411.113 420.465 389.549 487.853 321.197C536.659 271.675 569.619 189.848 563.216 134.118C559.958 105.842 559.711 105.965 501.778 163.237C442.715 221.629 421.379 266.484 421.266 332.554C421.184 372.712 392.51 470.995 374.977 491.172C367.609 499.652 344.947 534.342 324.619 568.261L287.652 629.931L287.631 593.772C287.61 572.896 297.754 542.482 311.618 521.822C324.835 502.139 341.021 470.307 347.589 451.096C361.905 409.242 363.487 299.54 349.901 291.132C337.496 283.464 280.735 365.836 262.174 418.472C251.702 448.146 249.389 488.942 253.582 570.193C258.834 671.96 256.912 688.992 230.798 772.35C211.148 835.09 199.647 858.679 193.82 848.267C178.929 821.635 181.025 775.228 199.534 722.438C220.12 663.676 216.019 590.596 188.497 526.026L171.457 486.033L146.113 541.146C109.578 620.568 111.304 696.916 152.382 818.439C185.65 916.876 191.385 979.605 176.01 1077.05C168.733 1123.11 168.651 1123.2 154.119 1097.6C145.445 1082.33 139.032 1040.1 138.292 993.481C136.936 907.142 105.96 825.572 57.1122 779.668L31.7171 755.812L24.7285 783.636C20.8951 798.94 20.001 842.902 22.745 881.322C28.0481 955.502 34.4611 969.512 126.103 1107.26C167.284 1169.16 178.589 1197.19 195.475 1279.3C206.574 1333.25 215.536 1382.66 215.382 1389.1C215.228 1395.54 199.041 1383.54 179.412 1362.43C154.006 1335.1 143.657 1314.35 143.493 1290.48C143.164 1241.74 107.789 1170.84 58.8182 1120.73C35.3243 1096.7 12.4472 1077.05 7.97657 1077.05C-5.69218 1077.05 -1.10854 1147.72 16.4964 1208.28C34.9749 1271.84 86.1968 1333.82 180.223 1406.37C225.351 1441.19 244.035 1465.99 281.311 1540.58C306.469 1590.91 323.016 1632.08 318.083 1632.08C287.682 1632.08 254.754 1602.48 230.89 1553.69C215.834 1522.92 185.054 1483.2 161.005 1463.52C117.029 1427.52 39.6408 1390.92 20.9465 1397.27C5.6642 1402.46 52.9088 1496.56 95.1586 1545.09C134.356 1590.11 159.587 1604.93 278.135 1652.61C347.342 1680.44 364.505 1693.27 431.975 1767.65L507.924 1851.35L468.614 1844.97C439.457 1840.24 416.837 1825.59 381.02 1788.22C324.598 1729.37 236.913 1690.93 170.244 1695.82L128.303 1698.89L179.483 1753.88C248.146 1827.65 302.502 1853.5 418.615 1867.62C533.833 1881.63 544.583 1885.55 638.188 1947.66L712.503 1996.97L669.267 2000.15C635.033 2002.66 619.535 1997.86 594.87 1977.11C550.441 1939.72 461.42 1916.17 389.242 1922.72C305.596 1930.3 299.964 1937.39 348.884 1973.38C438.409 2039.21 518.674 2053.6 683.275 2033.29C749.059 2025.17 763.571 2027.13 852.849 2056.11C906.548 2073.54 957.421 2089.91 965.899 2092.48C975.735 2095.46 970.617 2100.22 951.789 2105.61C931.594 2111.4 907.226 2108.71 874.709 2097.12C805.07 2072.29 705.052 2075.37 642.166 2104.29L590.779 2127.91L635.393 2148.03C659.935 2159.1 706.686 2173.12 739.296 2179.19C795.019 2189.55 805.399 2187.96 912.581 2152.69C1003.54 2122.76 1042.45 2115.17 1105.02 2115.17C1163.17 2115.17 1182.34 2111.85 1179.18 2102.32C1176.59 2094.52 1145.78 2086.84 1100.71 2082.77C999.095 2073.6 955.303 2044.06 916.219 1958.31C884.38 1888.46 820.826 1822.36 751.505 1786.99C688.65 1754.92 687.786 1756.34 719.214 1840.35C744.568 1908.12 808.77 1975.21 881.307 2009.76C911.091 2023.93 938.367 2040.25 941.933 2046.02C951.162 2060.95 903.403 2047.67 813.631 2010.34C722.811 1972.57 691.661 1933.34 678.485 1840.15C673.717 1806.38 661.857 1763.35 652.135 1744.55C632.043 1705.69 536.515 1601.25 521.069 1601.25C504.265 1601.25 522.456 1714.28 548.345 1770.75C561.325 1799.07 595.846 1845.1 625.044 1873.06C691.25 1936.44 693.305 1951.87 629.72 1908.11C499.456 1818.47 462.221 1753.39 483.762 1652.96C498.13 1585.94 476.979 1494.77 429.786 1420.35C391.031 1359.24 377.054 1370.42 371.607 1466.88C367.043 1547.68 379.551 1595.73 423.209 1665.11C439.971 1691.75 452.16 1721.2 450.289 1730.55C446.219 1750.95 370.64 1652.9 332.275 1577.42C301.865 1517.6 306.336 1460.36 347.681 1380.26C370.147 1336.74 374.186 1315.49 374.063 1241.5C373.981 1193.45 368.924 1145.29 362.819 1134.49C352.624 1116.43 349.562 1118.15 324.588 1155.89C309.655 1178.46 292.914 1212.71 287.374 1231.99C274.486 1276.96 274.445 1366.21 287.302 1400.05C292.872 1414.68 293.582 1436.33 288.916 1448.95C281.382 1469.32 278.875 1467.02 263.932 1425.93C239.112 1357.71 226.06 1302.04 225.998 1264.22C225.926 1221.87 258.269 1157.11 289.81 1136.44C324.043 1114.01 366.19 1030.61 379.201 959.521C397.978 856.973 393.405 851.392 333.55 903.956C287.189 944.659 247.776 1021.25 240.479 1084.82C231.774 1160.65 226.461 1179.83 214.118 1179.83C206.163 1179.83 204.128 1147.45 207.427 1073.28C213.326 940.578 228.599 909.886 310.56 866.069C342.553 848.966 380.106 824.287 394.011 811.213C415.809 790.728 482.868 678.59 482.868 662.617C482.868 653.664 421.05 673.975 391.678 692.579C340.292 725.131 306.079 763.819 274.373 825.223C234.395 902.64 225.289 878.732 257.663 781.375C282.482 706.763 322.522 659.256 368.451 649.913C469.775 629.315 530.678 593.515 584.562 522.871L611.334 487.759L558.077 494.04C487.349 502.375 425.757 535.174 373.076 592.569C349.305 618.461 327.373 637.167 324.352 634.135C313.108 622.891 406.508 495.972 436.518 481.726C453.414 473.699 502.857 464.006 546.392 460.172C624.951 453.265 644.581 445.32 717.714 390.844C758.288 360.635 747.97 347.643 683.275 347.489C619.217 347.335 567.121 366.042 524.573 404.494C458.398 464.283 437.247 447.756 500.853 385.941C551.911 336.337 579.968 327.107 708.495 317.661C823.621 309.191 861.236 296.066 904.236 249.371L929.929 221.465L842.12 225.884C763.982 229.811 749.08 233.912 706.666 263.092C680.459 281.121 648.291 295.778 635.177 295.655L611.334 295.429L637.027 274.995C679.914 240.891 822.634 172.549 851.472 172.313C885.829 172.025 963.721 136.975 995.138 107.661C1022.83 81.8314 1048.12 36.9761 1048.12 13.7364C1048.12 -6.00851 1048.37 -6.03934 960.761 23.9944ZM1603.09 13.0375C1603.09 36.9144 1628.07 81.5436 1656.07 107.661C1687.49 136.975 1765.38 172.025 1799.73 172.313C1828.57 172.549 1971.29 240.891 2014.18 274.995C2039.37 295.028 2039.43 295.428 2017.43 295.655C2005.08 295.778 1970.81 280.854 1941.26 262.476C1894.44 233.367 1876.86 228.598 1804.4 225.422L1721.28 221.763L1746.97 249.515C1790.09 296.107 1827.72 309.202 1942.71 317.661C2002.32 322.04 2063.36 330.293 2078.34 335.987C2108.45 347.438 2188.89 416.355 2188.89 430.693C2188.89 449.082 2164.68 438.865 2126.49 404.36C2104.93 384.872 2068.28 363.822 2045.05 357.562C1996.55 344.498 1912.25 347.561 1908.68 362.516C1907.36 368.077 1932.58 390.71 1964.73 412.809C2016.2 448.198 2032.77 453.84 2103.57 460.059C2147.79 463.955 2197.79 473.699 2214.69 481.726C2244.84 496.044 2338.08 622.922 2326.76 634.238C2323.68 637.322 2301.05 618.255 2276.49 591.87C2222.27 533.653 2163.85 502.386 2093.82 494.091L2041.26 487.862L2063.81 519.541C2109.43 583.617 2176.84 628.39 2245.78 640.415C2314.42 652.38 2359.05 688.519 2382.47 751.094C2427.3 870.972 2420.25 927.699 2373.63 822.232C2349.73 768.187 2313.19 725.994 2263.76 695.405C2229.16 673.985 2168.34 653.089 2168.34 662.617C2168.34 678.59 2235.4 790.728 2257.2 811.213C2271.1 824.287 2308.65 848.966 2340.65 866.069C2422.61 909.886 2437.88 940.578 2443.78 1073.28C2447.08 1147.45 2445.04 1179.83 2437.09 1179.83C2424.72 1179.83 2419.45 1160.78 2410.56 1083.66C2403.55 1022.83 2361.22 942.212 2314.99 901.602C2258.04 851.597 2253.38 857.867 2272.01 959.521C2285.02 1030.61 2327.16 1114.01 2361.4 1136.44C2392.94 1157.11 2425.28 1221.87 2425.21 1264.22C2425.15 1301.75 2411.9 1357.14 2386.68 1425.36C2373.37 1461.39 2368.64 1466.56 2363.21 1451.07C2359.46 1440.4 2360.87 1415.47 2366.34 1395.69C2388.66 1314.86 2357.28 1170.1 2308.67 1129.76C2295.56 1118.88 2291.59 1125.53 2281.14 1175.88C2266.07 1248.53 2274.88 1321.7 2306.26 1384.24C2343.61 1458.66 2348.58 1519.21 2321.72 1572.34C2285.57 1643.84 2204.81 1749.4 2200.92 1730.24C2199.05 1721.06 2211.24 1691.75 2228 1665.11C2271.66 1595.73 2284.16 1547.68 2279.6 1466.88C2274.12 1369.84 2260.35 1359.46 2220.98 1422.69C2173.11 1499.57 2153.06 1585.85 2167.44 1652.96C2184.76 1733.69 2162.53 1792.88 2093.05 1851.15C1971.65 1952.95 1927.85 1964.69 2028.71 1868.42C2060.63 1837.94 2093.4 1794.29 2105.57 1766C2129.77 1709.74 2145.94 1601.25 2130.14 1601.25C2111.47 1601.25 2013.61 1713.32 1993.42 1757.83C1982.47 1781.95 1973.42 1817.56 1973.3 1836.97C1972.98 1887.37 1936.15 1956.73 1896.82 1981.04C1866.26 1999.93 1735.13 2053.5 1719.45 2053.5C1715.87 2053.5 1721.33 2044.25 1731.56 2032.94C1741.78 2021.64 1755.69 2012.39 1762.44 2012.39C1785.2 2012.39 1858.74 1956.09 1890.04 1914.71C1920.78 1874.06 1959.44 1779.49 1949.42 1769.46C1939.78 1759.81 1858.28 1807.99 1811.1 1851.23C1782.21 1877.71 1753 1918.79 1734.99 1958.31C1695.9 2044.06 1652.11 2073.6 1550.5 2082.77C1505.42 2086.84 1474.61 2094.52 1472.02 2102.32C1468.87 2111.85 1488.04 2115.17 1546.18 2115.17C1608.57 2115.17 1647.63 2122.75 1737.23 2152.24C1843.01 2187.05 1853.58 2188.64 1910.99 2178.53C1944.6 2172.61 1991.98 2158.79 2016.27 2147.84L2060.43 2127.91L2009.54 2104.73C1946.55 2076.02 1844.99 2072.71 1776.5 2097.12C1743.98 2108.71 1719.61 2111.4 1699.42 2105.61C1679.95 2100.03 1675.14 2095.41 1685.31 2092.04C1874.06 2029.42 1896.06 2024.66 1957.65 2033.07C2079.87 2049.76 2163.35 2045.22 2222 2018.67C2287.91 1988.84 2348.02 1944.71 2334.29 1936.23C2328.77 1932.82 2296.94 1927.17 2263.57 1923.68C2189.92 1915.99 2102.05 1938.64 2056.34 1977.11C2031.61 1997.91 2016.19 2002.67 1981.6 2000.15L1938.02 1996.97L2021.9 1942.01C2101.79 1889.66 2111.3 1886.21 2221.84 1869.43C2358.75 1848.66 2402.21 1828.56 2471.77 1753.83L2522.9 1698.89L2480.96 1695.82C2414.29 1690.93 2326.61 1729.37 2270.19 1788.22C2234.37 1825.59 2211.75 1840.24 2182.59 1844.97L2143.28 1851.35L2219.23 1767.65C2286.7 1693.27 2303.86 1680.44 2373.07 1652.61C2415.91 1635.38 2466.48 1613.47 2485.44 1603.92C2530.17 1581.41 2585.85 1516.95 2616.5 1452.21C2645.77 1390.36 2634.39 1382.16 2565.57 1415.48C2497.23 1448.56 2440.66 1502.76 2416.98 1557.8C2397.68 1602.68 2364.48 1632.08 2333.12 1632.08C2328.19 1632.08 2344.74 1590.91 2369.9 1540.58C2407.17 1465.99 2425.86 1441.19 2470.98 1406.37C2553.15 1342.97 2617.33 1269.91 2630.41 1224.87C2647.27 1166.89 2655.93 1077.05 2644.67 1077.05C2625.81 1077.05 2549.3 1165.3 2528.81 1210.67C2517.33 1236.1 2507.84 1271.79 2507.71 1289.96C2507.56 1312.05 2496.91 1335.07 2475.59 1359.34C2447.27 1391.6 2414.73 1410.79 2429.84 1386.3C2433.03 1381.15 2444.7 1332.9 2455.77 1279.07C2472.65 1197.03 2483.86 1169.32 2525.1 1107.64C2605.99 986.677 2624.61 944.926 2629.09 874.508C2631.34 839.212 2630.1 798.067 2626.33 783.071L2619.49 755.812L2594.09 779.668C2545.25 825.572 2514.27 907.142 2512.91 993.481C2512.17 1040.1 2505.76 1082.33 2497.09 1097.6C2482.56 1123.2 2482.47 1123.11 2475.2 1077.05C2459.82 979.605 2465.56 916.876 2498.82 818.439C2539.9 696.916 2541.63 620.568 2505.09 541.146L2479.75 486.033L2462.71 526.026C2435.19 590.596 2431.09 663.676 2451.67 722.438C2470.18 775.228 2472.28 821.635 2457.39 848.267C2451.56 858.679 2440.06 835.09 2420.41 772.35C2394.48 689.577 2392.42 671.755 2397.74 575.733C2401.78 502.869 2399.42 456.287 2390.14 425.451C2373.42 369.896 2314.71 282.848 2300.06 291.903C2293.25 296.117 2290.91 328.443 2293.8 378.407C2297.72 446.008 2303.39 465.938 2331.02 508.985C2351.37 540.694 2363.6 572.958 2363.58 594.861C2363.56 629.849 2363.47 629.788 2326.59 568.261C2306.26 534.342 2283 499.138 2274.91 490.021C2255.28 467.901 2241.69 419.336 2229.98 329.533C2217.48 233.706 2188.24 185.819 2102.43 120.664C2083.45 106.243 2083.01 107.805 2089.78 165.714C2098.3 238.64 2116.67 276.074 2169.3 327.662C2233.11 390.217 2219.41 408.44 2152.17 350.439C2105.36 310.045 2085.36 281.553 2042.69 194.432C1993.81 94.6178 1986.56 85.2953 1928.8 47.9638C1844.64 -6.45047 1835.68 -4.35367 1863.87 63.1246C1883.94 111.146 1938.72 170.329 1984.94 193.908C2006.68 204.998 2024.46 215.914 2024.46 218.165C2024.46 220.406 2027.61 230.489 2031.48 240.552C2037.71 256.812 2035.15 256.473 2008.35 237.571C1991.78 225.864 1952.77 203.57 1921.68 188.018C1890.6 172.467 1842.04 135.434 1813.77 105.729C1777.38 67.4724 1745.89 45.7334 1705.86 31.2099C1607.52 -4.46673 1603.09 -5.24791 1603.09 13.0375Z" fill="black"/>
</svg>
