<svg width="3220" height="3647" viewBox="0 0 3220 3647" fill="none" xmlns="http://www.w3.org/2000/svg">
<path fill-rule="evenodd" clip-rule="evenodd" d="M1776.87 5.26354C1763.05 9.04865 1740.98 19.5501 1727.82 28.605C1686.49 57.0477 1671.32 60.9743 1619.87 56.5365C1458.51 42.6306 1395.88 56.939 1336.29 121.318C1295 165.935 1280.91 197.14 1281.38 242.91C1281.69 272.467 1285.11 285.976 1299.94 316.328C1309.94 336.781 1318.93 355.359 1319.93 357.599C1320.93 359.84 1316.78 361.678 1310.7 361.678C1294.69 361.678 1252.02 385.694 1229.14 407.589C1218.28 417.998 1204.34 430.887 1198.16 436.244C1176.98 454.626 1100.21 560.201 1084.32 592.809C1070.89 620.371 1068.56 631.351 1069.34 663.508C1070.02 691.048 1067.4 707.804 1059.89 724.092C1054.17 736.469 1047.8 753.383 1045.72 761.665C1043.64 769.948 1036.22 786.736 1029.22 798.972C1022.23 811.209 1016.47 826.257 1016.44 832.419C1016.4 838.575 1013.2 847.951 1009.33 853.247C1002.63 862.417 1000.65 862.324 967.918 851.295C949.014 844.921 932.431 840.832 931.066 842.197C929.696 843.562 932.491 852.252 937.275 861.503C942.06 870.754 944.43 878.324 942.549 878.324C940.668 878.324 946.719 886.976 956 897.548C974.861 919.03 974.839 918.927 973.039 977.699C972.332 1000.95 974.214 1022.97 977.231 1026.64C980.243 1030.32 984.038 1039.44 985.664 1046.91C987.289 1054.39 987.556 1037.98 986.262 1010.45C983.016 941.572 983.761 940.43 1018.83 960.226C1034.6 969.128 1067.4 982.197 1091.72 989.267C1116.04 996.342 1141.98 1006.09 1149.36 1010.92C1165.98 1021.82 1168.6 1021.89 1168.6 1011.45C1168.6 1002.28 1113.17 943.584 1104.51 943.584C1096.91 943.584 1067.05 908.703 1062.57 894.585C1060.54 888.184 1057.55 884.263 1055.94 885.878C1054.32 887.498 1048.43 886.373 1042.84 883.381C1031.13 877.106 1029.43 854.335 1038.96 831.092C1042.4 822.673 1045.94 812.155 1046.81 807.723C1047.69 803.291 1050.84 798.853 1053.83 797.858C1056.81 796.862 1058 792.778 1056.47 788.792C1054.94 784.8 1056.3 779.916 1059.5 777.942C1062.69 775.968 1065.3 768.235 1065.3 760.757C1065.3 751.865 1067.47 748.504 1071.58 751.039C1075.31 753.35 1076.39 752.545 1074.23 749.048C1070.08 742.326 1081.05 715.173 1087.93 715.173C1090.43 715.173 1092.49 711.083 1092.49 706.085C1092.49 701.087 1096.64 692.413 1101.7 686.806C1106.78 681.204 1111.71 671.459 1112.67 665.156C1114.55 652.827 1128.81 639.487 1140.4 639.209C1144.33 639.111 1146.81 634.712 1145.91 629.426C1144.05 618.424 1165.59 579.213 1173.49 579.213C1176.38 579.213 1180.28 574.373 1182.16 568.462C1187.93 550.254 1256.57 484.673 1286.21 469.037C1311.06 455.92 1364.72 441.247 1393.82 439.61C1408.54 438.778 1422.8 435.89 1425.5 433.187C1428.2 430.485 1438.18 429.941 1447.66 431.98C1457.15 434.02 1471.59 435.091 1479.75 434.368C1487.91 433.639 1496.04 435.385 1497.8 438.24C1499.56 441.095 1503.01 442.193 1505.46 440.676C1507.91 439.159 1521.25 440.034 1535.09 442.623C1548.94 445.212 1561.52 445.293 1563.06 442.808C1564.59 440.323 1568.82 439.273 1572.47 440.469C1576.11 441.671 1592.65 443.656 1609.24 444.885C1625.81 446.109 1644.61 449.916 1651.01 453.342C1657.41 456.768 1672.39 459.569 1684.3 459.569C1696.21 459.569 1706.8 462.125 1707.84 465.247C1708.88 468.374 1720.55 472.001 1733.78 473.317C1747 474.633 1766.54 478.707 1777.19 482.367C1787.85 486.027 1806.35 488.485 1818.31 487.827C1846.57 486.277 1873.5 508.058 1864.38 525.096C1861.26 530.931 1860.32 535.706 1862.28 535.706C1864.25 535.706 1862.5 539.845 1858.39 544.908C1854.29 549.971 1853.78 552.402 1857.27 550.314C1860.75 548.225 1864.84 549.59 1866.35 553.348C1868.06 557.596 1869.27 556.698 1869.53 550.983C1869.77 545.925 1872.38 540.291 1875.34 538.464C1878.48 536.522 1879.42 539.214 1877.61 544.941C1874.85 553.696 1875.43 553.615 1883.11 544.185C1890.91 534.613 1891.71 534.521 1891.71 543.146C1891.71 548.378 1893.97 551.265 1896.73 549.558C1907.09 543.157 1905.12 565.993 1894.56 574.776C1886.88 581.171 1886.01 583.586 1891.71 582.781C1896.2 582.145 1902.71 579.849 1906.18 577.674C1910.23 575.14 1911.93 577.147 1910.9 583.265C1910.02 588.513 1906.56 592.2 1903.22 591.45C1899.88 590.705 1897.15 592.684 1897.15 595.849C1897.15 599.014 1894.32 599.863 1890.87 597.731C1886.98 595.322 1886.07 596.235 1888.48 600.124C1890.61 603.577 1897.25 606.405 1903.23 606.405C1910.48 606.405 1912.74 608.667 1910.02 613.203C1907.11 618.049 1908.5 617.918 1914.89 612.735C1919.82 608.738 1926.79 607.281 1930.37 609.494C1934.77 612.213 1935.46 611.207 1932.49 606.405C1929.51 601.598 1930.21 600.597 1934.62 603.322C1938.8 605.91 1940.33 616.863 1938.88 633.842C1937.62 648.406 1938.12 660.136 1939.98 659.913C1949.93 658.701 1956.95 661.447 1956.95 666.548C1956.95 669.713 1954.26 670.643 1950.97 668.609C1947.07 666.2 1947.3 669.213 1951.61 677.273C1957.52 688.323 1957.15 689.253 1948.07 686.072C1938.52 682.727 1938.48 682.95 1947.46 689.939C1956.91 697.302 1965.27 733.913 1956.22 728.317C1953.64 726.718 1951.52 728.143 1951.52 731.488C1951.52 734.832 1948.82 735.904 1945.54 733.87C1941.51 731.384 1941.66 734.109 1945.98 742.185C1954.25 757.641 1958.74 782.179 1952.61 778.388C1950.02 776.784 1947.89 778.927 1947.89 783.152C1947.89 787.378 1949.9 789.586 1952.36 788.069C1954.82 786.551 1955.38 789.091 1953.6 793.714C1951.83 798.342 1948.22 800.789 1945.57 799.152C1942.93 797.52 1942.38 800.381 1944.34 805.515C1946.97 812.345 1946 813.656 1940.72 810.398C1935.64 807.25 1934.81 808.027 1937.91 813.047C1941.39 818.676 1943.67 818.29 1948.87 811.165C1958.59 797.863 1967.86 800.278 1966.58 815.782C1965.96 823.26 1963.13 829.378 1960.3 829.378C1951.58 829.378 1962.03 836.813 1973.13 838.504C1978.88 839.385 1985.31 837.313 1987.42 833.903C1989.97 829.77 1988.7 829.155 1983.62 832.054C1977.47 835.562 1977.29 834.996 1982.72 829.145C1992.61 818.485 2004.98 818.148 2003.41 828.584C2002.67 833.506 2003.97 844.231 2006.29 852.421C2008.69 860.867 2008.3 868.671 2005.4 870.471C2002.58 872.211 2001.93 876.529 2003.95 880.059C2005.97 883.594 2005.62 884.665 2003.18 882.452C2000.73 880.233 1995.85 880.804 1992.34 883.724C1987.95 887.368 1985.95 886.579 1985.95 881.195C1985.95 876.888 1987.71 874.452 1989.86 875.784C1992.02 877.117 1997.09 874.207 2001.15 869.323C2007.72 861.394 2007.06 860.877 1994.97 864.505C1981.77 868.469 1981.7 868.35 1992.29 859.822C2002.64 851.496 2002.37 851.355 1986.86 856.918C1977.89 860.138 1969.32 862.846 1967.83 862.933C1966.33 863.026 1965.72 865.299 1966.47 867.991C1967.21 870.683 1965.99 872.597 1963.75 872.244C1961.5 871.885 1954.78 871.923 1948.8 872.325C1939.73 872.929 1939.28 873.93 1946.08 878.324C1953.32 883.001 1953.31 883.604 1946.02 883.681C1940.68 883.735 1937.58 889.505 1937.14 900.219C1936.62 912.825 1938.06 915.354 1943.27 911.03C1948.16 906.973 1952.19 908.077 1957.59 914.968C1964.35 923.587 1964.19 923.832 1955.93 917.366C1947.91 911.09 1945.64 912.352 1937.86 927.389C1932.97 936.852 1927.54 943.165 1925.79 941.42C1924.04 939.669 1919.33 940.968 1915.32 944.297C1910.53 948.272 1908.02 948.414 1908.02 944.705C1908.02 941.594 1911.08 937.82 1914.82 936.308C1920.14 934.16 1920.1 933.474 1914.65 933.137C1910.82 932.903 1906.3 936.297 1904.62 940.686C1901.34 949.235 1839.69 985.683 1822.96 988.962C1817.42 990.05 1803.65 995.026 1792.38 1000.01C1781.1 1005 1760.31 1010.41 1746.16 1012.02C1708.66 1016.31 1600.16 1056.63 1565.53 1079.15C1536.16 1098.26 1520.78 1117.38 1481.18 1184.1C1465.39 1210.7 1445.89 1261.65 1445.89 1276.31C1445.89 1278.76 1449.06 1280.76 1452.93 1280.76C1456.8 1280.76 1464.41 1269.98 1469.84 1256.81C1482.51 1226.09 1516.12 1177.61 1530.14 1169.85C1536.11 1166.54 1549.56 1157.44 1560.04 1149.61C1583.19 1132.32 1592.51 1128.89 1653.69 1115.16C1677.45 1109.84 1706.92 1107.8 1737.96 1109.35C1764.21 1110.66 1792.42 1111.79 1800.64 1111.86C1808.86 1111.94 1815.59 1114.41 1815.59 1117.36C1815.59 1120.3 1819.26 1121.3 1823.75 1119.58C1839.99 1113.34 1836.16 1110.45 1781.61 1087.85C1770.4 1083.2 1761.23 1078.35 1761.23 1077.07C1761.23 1074.93 1831.25 1077.47 1846.86 1080.18C1850.6 1080.83 1853.65 1083.09 1853.65 1085.22C1853.65 1089 1872.68 1088.12 1894.43 1083.33C1900.41 1082.02 1916.92 1079.26 1931.13 1077.19C1945.33 1075.13 1956.95 1070.99 1956.95 1068.01C1956.95 1065.03 1959.4 1064.1 1962.39 1065.95C1965.38 1067.8 1967.83 1067.11 1967.83 1064.42C1967.83 1061.73 1973.78 1056.82 1981.06 1053.5C1992.68 1048.21 1994.2 1048.76 1993.49 1058.07C1993.05 1063.9 1990.63 1068.67 1988.1 1068.67C1985.57 1068.67 1984.9 1070.95 1986.62 1073.73C1988.35 1076.51 1987.42 1080.23 1984.57 1082C1981.72 1083.75 1979.75 1089.92 1980.18 1095.69C1980.75 1103.21 1982.82 1104.64 1987.51 1100.75C1991.88 1097.13 1995.21 1097.22 1997.57 1101.03C1999.5 1104.17 2000.33 1106.92 1999.41 1107.15C1998.49 1107.38 1993.08 1108.44 1987.4 1109.51C1969.66 1112.84 1968.31 1123.57 1983.72 1138.65C1991.75 1146.52 1993.57 1149.29 1987.75 1144.8C1977.65 1137.03 1977.51 1137.22 1984.68 1148.88C1988.81 1155.62 1993.79 1161.12 1995.74 1161.12C1997.69 1161.12 2000.68 1164.76 2002.39 1169.21C2004.1 1173.66 2003.75 1176.85 2001.61 1176.29C1991.73 1173.71 1974.15 1184.34 1971.5 1194.48C1969.53 1202.02 1966.2 1204.3 1961.39 1201.41C1955.84 1198.07 1955.91 1199.17 1961.69 1206.3C1965.8 1211.36 1972.53 1215.5 1976.65 1215.5C1980.77 1215.5 1984.14 1217.86 1984.14 1220.75C1984.14 1227.83 1964.77 1237.82 1960.1 1233.15C1958.05 1231.11 1957.99 1233.62 1959.95 1238.75C1961.92 1243.87 1965.72 1246.72 1968.4 1245.06C1972.44 1242.56 1975.39 1252.41 1974.29 1264.68C1974.14 1266.3 1978.74 1267.98 1984.51 1268.42C1990.29 1268.85 1995.01 1266.77 1995.01 1263.79C1995.01 1260.81 1992.73 1259.78 1989.95 1261.5C1987.17 1263.22 1983.49 1262.35 1981.77 1259.58C1980.05 1256.8 1982.94 1255.21 1988.19 1256.06C1994.44 1257.06 1997.26 1261.7 1996.38 1269.5C1995.44 1277.76 1997.1 1280.15 2001.81 1277.32C2006.15 1274.72 2005.81 1276.68 2000.89 1282.74C1996.65 1287.96 1988.09 1294.68 1981.86 1297.68C1970.82 1302.98 1970.81 1302.91 1981.1 1294.66C1986.9 1290.01 1988.88 1286.2 1985.5 1286.2C1982.11 1286.2 1977.8 1288.69 1975.93 1291.73C1974.05 1294.77 1970.39 1295.95 1967.8 1294.34C1965.16 1292.71 1965.1 1298.43 1967.66 1307.38C1970.99 1318.98 1969.9 1326.66 1963.65 1335.58C1958.93 1342.32 1957.77 1346.15 1961.08 1344.12C1964.8 1341.81 1967.75 1346.13 1968.82 1355.45C1970.3 1368.36 1973.48 1370.88 1991.22 1373.22C2010.97 1375.82 2011.51 1376.42 2003.45 1386.81C1995.2 1397.44 1994.83 1397.45 1987.07 1387.42C1980.2 1378.55 1977.02 1378.03 1963.51 1383.63C1954.92 1387.19 1947.89 1393.51 1947.89 1397.68C1947.89 1402.82 1950.66 1403.84 1956.5 1400.85C1964.78 1396.62 1994.92 1398.5 1999.99 1403.57C2001.34 1404.92 1999.73 1408.74 1996.42 1412.05C1992.12 1416.35 1985.72 1416.45 1974.01 1412.36C1954.71 1405.63 1943.02 1414.83 1948.59 1432.37C1950.8 1439.34 1948.88 1444.85 1943.12 1448.08C1934.99 1452.62 1935.07 1453.88 1943.99 1462.8C1950.21 1469.02 1954.5 1470.32 1955.81 1466.4C1956.94 1463 1962.41 1460.23 1967.96 1460.23C1973.51 1460.23 1979.26 1458.29 1980.72 1455.92C1985.05 1448.92 2017 1451.82 2021.84 1459.65C2026.1 1466.55 2024.76 1480.72 2018.17 1498.3C2013 1512.12 2012.17 1519.74 2015.91 1519.24C2017.87 1518.98 2023.84 1519.05 2029.18 1519.41C2037.83 1519.98 2037.53 1521.46 2026.46 1532.93C2014.4 1545.44 2002.01 1547.04 2009.35 1535.15C2011.41 1531.82 2010.5 1530.8 2007.23 1532.81C2004.06 1534.77 2002.68 1541.88 2004.15 1548.61C2006.3 1558.44 2005.68 1559.24 2001 1552.68C1996 1545.68 1995.16 1545.91 1995.09 1554.36C1995.05 1559.77 1992.97 1562.94 1990.48 1561.4C1987.99 1559.86 1985.95 1562.03 1985.95 1566.21C1985.95 1570.41 1987.82 1573.35 1990.1 1572.77C1992.38 1572.2 1998.27 1576.61 2003.19 1582.59C2008.1 1588.58 2010.34 1590.03 2008.17 1585.83C2005.56 1580.81 2006.35 1579.52 2010.48 1582.08C2013.93 1584.21 2016.8 1591.32 2016.84 1597.87C2016.91 1607.23 2018 1608.09 2021.92 1601.89C2024.67 1597.54 2025.71 1592.04 2024.23 1589.65C2022.76 1587.26 2024.15 1585.31 2027.31 1585.31C2035.75 1585.31 2034.37 1593 2023.29 1607.69C2017.92 1614.83 2013.78 1624.33 2014.11 1628.82C2014.44 1633.31 2012.42 1640.04 2009.63 1643.77C2006.33 1648.19 2006.69 1650.57 2010.66 1650.57C2014.01 1650.57 2016.76 1648.28 2016.76 1645.47C2016.76 1642.67 2021.48 1640.73 2027.26 1641.16C2033.03 1641.6 2037.33 1643.28 2036.82 1644.91C2034.6 1651.86 2053.88 1672.8 2057.35 1667.2C2059.36 1663.94 2063.28 1662.68 2066.07 1664.4C2074.99 1669.92 2071.47 1660.21 2061.61 1652.13C2056.38 1647.84 2055.12 1645.86 2058.82 1647.72C2063.61 1650.15 2064.98 1646.33 2063.6 1634.42C2061.71 1618.22 2066.2 1609.38 2072.89 1616.09C2074.71 1617.89 2073.99 1623.47 2071.32 1628.47C2068.43 1633.86 2068.47 1640.77 2071.42 1645.43C2075.52 1651.91 2076.41 1651.6 2076.48 1643.66C2076.53 1638.36 2082.52 1631.31 2089.79 1628C2104.79 1621.16 2117.53 1594.98 2115.81 1574.56C2115.17 1567.01 2118.11 1556.36 2122.34 1550.89C2136.85 1532.15 2159.49 1555.9 2152.56 1582.59C2151.78 1585.58 2151.53 1594.76 2152 1602.99C2152.96 1619.86 2138.83 1624.3 2134.68 1608.43C2133.31 1603.19 2131.91 1608.82 2131.56 1620.93C2131.22 1633.05 2128.39 1645.5 2125.3 1648.6C2121.4 1652.49 2121.44 1658.93 2125.41 1669.38C2130.57 1682.95 2132.98 1684.12 2148.72 1680.73C2158.37 1678.64 2173.39 1675.69 2182.09 1674.17C2190.78 1672.65 2203.97 1669.09 2211.39 1666.27C2227.68 1660.07 2246.24 1673.46 2241.22 1687.79C2239.48 1692.75 2245.15 1689.34 2253.82 1680.22C2262.48 1671.1 2279.46 1656.41 2291.55 1647.59C2329.42 1619.93 2391.9 1542.24 2391.9 1522.82C2391.9 1518.66 2394.17 1513.85 2396.94 1512.14C2399.71 1510.43 2400.93 1492.69 2399.65 1472.73C2397.93 1445.94 2400.02 1429.21 2407.6 1408.9C2419.58 1376.8 2418.25 1343.8 2404.34 1328.44C2382.22 1303.99 2344.04 1294.67 2315.12 1306.68C2289.32 1317.39 2230.39 1404.39 2220.32 1446.63C2212.95 1477.52 2193.08 1489.27 2197.34 1460.21C2199.19 1447.57 2197.79 1444.18 2191.16 1445.25C2177.42 1447.47 2183.2 1422.94 2203.65 1392.25C2213.62 1377.29 2227.22 1355.88 2233.88 1344.66C2240.55 1333.45 2247.91 1324.27 2250.25 1324.27C2252.58 1324.27 2261.05 1317.71 2269.07 1309.7C2290.08 1288.68 2321.08 1276.28 2346.15 1278.87C2357.86 1280.07 2374.33 1280.94 2382.75 1280.8C2401.21 1280.48 2438.36 1312.85 2449.63 1339.05C2453.76 1348.68 2457.15 1367.9 2457.15 1381.78C2457.15 1402.28 2454.58 1409.02 2443.41 1417.81C2430.35 1428.08 2429.72 1431.08 2430.65 1478.42C2431.4 1516.68 2429.33 1533.25 2421.68 1549.96C2416.21 1561.93 2411.19 1574.52 2410.54 1577.94C2407.82 1592.1 2378.57 1635.66 2360.78 1652.04C2350.28 1661.7 2337.7 1673.59 2332.82 1678.45C2327.93 1683.31 2306.57 1698.35 2285.34 1711.89C2251.32 1733.55 2246.84 1738.32 2247.71 1751.99C2248.72 1768.02 2240.72 1798.07 2234.16 1802.85C2232.1 1804.34 2227.54 1811.05 2224.01 1817.75C2210.33 1843.73 2164.2 1854.59 2123.95 1841.3C2101.16 1833.78 2065.75 1792.64 2065.61 1773.51C2065.56 1767.22 2063.36 1758.65 2060.73 1754.48C2055.57 1746.34 2063.7 1715.83 2071.02 1715.83C2077.41 1715.83 2081.28 1696.28 2076.44 1688.45C2074.12 1684.69 2068.15 1683.18 2063.18 1685.09C2058.17 1687.02 2055.83 1691.32 2057.95 1694.75C2060.3 1698.55 2058.86 1699.87 2054.21 1698.19C2050.06 1696.67 2047.34 1692.5 2048.16 1688.92C2048.98 1685.33 2047.03 1684.02 2043.81 1686C2039.77 1688.5 2040.09 1692.16 2044.86 1697.91C2050.58 1704.79 2049.7 1707.87 2039.69 1715.97C2030.99 1723.02 2027.65 1731.54 2027.71 1746.61C2027.78 1762.1 2029.16 1765.39 2033.07 1759.34C2038.9 1750.31 2039.36 1751.74 2040.27 1782.09C2040.52 1790.12 2042.48 1795.59 2044.63 1794.26C2051.62 1789.95 2052.71 1810.83 2045.8 1816.44C2042.12 1819.43 2037.52 1828.44 2035.59 1836.46C2032.5 1849.27 2033.46 1850.67 2043.45 1848.06C2049.7 1846.43 2054.97 1841.09 2055.16 1836.2C2055.38 1830.57 2057.64 1832.29 2061.34 1840.92C2071.37 1864.33 2067.79 1955.05 2055.16 1997.48C2048.95 2018.35 2040.45 2038.27 2036.28 2041.73C2032.11 2045.19 2027.08 2054.46 2025.1 2062.34C2023.13 2070.22 2016.16 2082.22 2009.62 2089.02C2003.08 2095.82 1997.73 2104.5 1997.73 2108.3C1997.73 2112.12 1992.64 2117.77 1986.42 2120.87C1980.2 2123.98 1976.12 2129.56 1977.36 2133.27C1978.59 2136.99 1975.66 2140.03 1970.83 2140.03C1966 2140.03 1960.7 2143.55 1959.05 2147.84C1957.4 2152.14 1952.83 2154.42 1948.9 2152.91C1944.96 2151.4 1940.13 2152.77 1938.15 2155.97C1936.18 2159.16 1937.3 2161.78 1940.66 2161.78C1944.01 2161.78 1938.71 2169.12 1928.89 2178.1C1919.07 2187.07 1909.51 2194.41 1907.64 2194.41C1905.78 2194.41 1898.6 2199.3 1891.71 2205.29C1884.82 2211.27 1876.08 2216.16 1872.3 2216.16C1868.52 2216.16 1864.62 2218.05 1863.62 2220.34C1858.89 2231.24 1830.77 2247.48 1821.03 2244.93C1815.12 2243.38 1811.77 2239.71 1813.59 2236.76C1815.41 2233.81 1811.53 2234.27 1804.95 2237.79C1798.38 2241.31 1794.25 2247.45 1795.78 2251.42C1798.97 2259.75 1783.1 2275.96 1771.67 2276.04C1767.42 2276.07 1751.25 2282.01 1735.73 2289.23C1713.35 2299.65 1706.33 2300.94 1701.8 2295.48C1698.65 2291.68 1697.89 2286.58 1700.11 2284.13C1702.32 2281.69 1701.19 2281.38 1697.58 2283.45C1693.97 2285.51 1692.23 2290.36 1693.7 2294.2C1695.49 2298.88 1691.36 2301.19 1681.23 2301.19L1666.08 2301.17L1665.62 2260.03C1664.85 2191.81 1635.26 2096.13 1604.16 2061.26C1571.41 2024.56 1509.19 1914.23 1503.63 1883.01C1502.16 1874.76 1499.63 1863.75 1498.01 1858.54C1496.39 1853.34 1493.91 1837.61 1492.5 1823.61C1491.08 1809.6 1487.14 1793.67 1483.73 1788.21C1478.47 1779.79 1416.97 1746.67 1369.77 1726.85C1362.29 1723.71 1348.48 1716.46 1339.07 1710.75C1329.66 1705.04 1313.22 1698.98 1302.54 1697.28C1291.86 1695.58 1281.21 1693.88 1278.87 1693.49C1263.08 1690.89 1255.71 1696.92 1245.39 1720.92C1239.04 1735.68 1233.85 1751.77 1233.85 1756.67C1233.85 1762.28 1230.32 1764.85 1224.33 1763.61C1214.49 1761.58 1213.65 1755.55 1219.93 1731.88C1223.82 1717.21 1213.25 1707.87 1186.27 1702.12C1179.54 1700.69 1169.15 1698.44 1163.17 1697.11C1148.83 1693.94 1092.68 1692.8 1078.9 1695.41C1062.57 1698.5 1043.56 1709.99 1043.56 1716.77C1043.56 1720.06 1033.15 1739.03 1020.45 1758.91C984.739 1814.78 984.419 1815.32 975.752 1834.6C971.261 1844.59 961.551 1859.94 954.173 1868.71C940.771 1884.64 940.755 1884.65 934.448 1872.86C930.974 1866.36 927.326 1852.24 926.336 1841.47C925.347 1830.7 920.677 1804.75 915.963 1783.81C911.244 1762.88 908.77 1740 910.461 1732.99C912.157 1725.97 910.667 1716.77 907.166 1712.55C901.066 1705.2 902.354 1686.39 910.999 1656.52C913.255 1648.72 912.701 1644.72 909.629 1646.62C903.262 1650.56 911.091 1560.95 918.687 1542.91C921.579 1536.04 923.944 1519.38 923.944 1505.88C923.944 1487.7 925.706 1482.4 930.74 1485.43C935.242 1488.13 934.986 1486.36 929.974 1480.18C923.482 1472.19 923.509 1471.28 930.164 1473.84C935.253 1475.79 937.922 1473.16 937.922 1466.2C937.922 1460.37 936.492 1456.48 934.742 1457.56C932.991 1458.64 931.556 1453.73 931.556 1446.63C931.556 1439.54 933.551 1434.97 935.992 1436.49C938.434 1437.99 938.7 1442.12 936.58 1445.65C934.225 1449.58 936.188 1449.27 941.636 1444.86C948.59 1439.22 949.378 1434.58 945.235 1423.67C941.783 1414.6 941.783 1403.81 945.235 1392.83C948.155 1383.54 952.183 1363.7 954.19 1348.74C959.556 1308.74 948.492 1323.24 928.832 1381.99C901.495 1463.68 888.583 1535.32 882.858 1636.98C879.199 1702 883.809 1736.42 915.609 1881.7C925.972 1929.04 926.01 1942.87 915.821 1962.41C892.475 2007.19 874.572 2105.41 893.394 2085.45C897.526 2081.07 907.726 2061.58 916.061 2042.14C935.286 1997.3 942.283 1989.03 953.298 1998.17C957.778 2001.89 964.21 2013.31 967.581 2023.54C970.957 2033.77 975.671 2042.14 978.058 2042.14C980.439 2042.14 985.968 2049.53 990.345 2058.56C997.429 2073.19 997.179 2081.96 988.056 2138.78C982.423 2173.86 973.648 2215.81 968.548 2231.99L959.284 2261.43L907.634 2287.6C879.226 2301.99 843.75 2318.97 828.799 2325.31C767.019 2351.55 711.84 2376.4 665.692 2398.77C638.779 2411.82 598.41 2428.46 575.978 2435.76C538.936 2447.81 434.374 2495.93 393.848 2519.59C310.027 2568.51 265.472 2596.99 247.514 2613.1C235.808 2623.61 211.342 2645.57 193.145 2661.91C131.039 2717.69 27.162 2829.14 26.7053 2840.5C26.6183 2842.59 15.5542 2856.53 2.11421 2871.49C-11.3258 2886.44 -24.1623 2901.13 -26.4022 2904.12C-28.6477 2907.11 -46.8721 2930.36 -66.9071 2955.78C-99.1478 2996.7 -157.997 3087.07 -157.997 3095.67C-157.997 3097.43 -164.255 3107.08 -171.91 3117.12C-192.711 3144.4 -246.297 3260.52 -268.942 3327.39C-279.908 3359.79 -298.355 3407.51 -309.925 3433.44C-339.072 3498.76 -357.221 3556.26 -369.59 3622.47C-373.548 3643.68 -372.971 3646.78 -365.305 3645.33C-359.945 3644.31 -355.807 3637.22 -354.828 3627.37C-353.246 3611.47 -325.17 3513.03 -316.058 3491.46C-313.53 3485.48 -302.623 3460.49 -291.82 3435.93C-281.012 3411.37 -272.171 3389.14 -272.171 3386.53C-272.171 3376.77 -239.202 3279.64 -232.227 3268.85C-228.23 3262.67 -223.174 3250.27 -220.994 3241.3C-213.545 3210.69 -178.804 3146.26 -155.768 3120.33C-143.121 3106.11 -123.25 3079.78 -111.604 3061.83C-86.9746 3023.87 -43.6589 2967.87 -0.136633 2917.71C16.734 2898.27 34.1973 2876.9 38.661 2870.22C50.073 2853.16 110.401 2785.76 149.264 2746.67C177.911 2717.85 197.978 2699.67 255.207 2650.7C262.683 2644.31 277.362 2633.5 287.828 2626.7C298.294 2619.9 312.571 2608.88 319.558 2602.22C333.351 2589.07 400.046 2551.78 456.372 2525.73C475.809 2516.73 502.721 2503.59 516.178 2496.51C546.891 2480.37 599.405 2458.98 651.621 2441.35C673.788 2433.87 698.292 2423.21 706.072 2417.67C713.857 2412.12 744.652 2397.78 774.511 2385.79C804.371 2373.8 853.237 2352.86 883.113 2339.24C912.983 2325.63 939.499 2316.56 942.033 2319.1C944.566 2321.63 942.81 2336.83 938.134 2352.87C905.497 2464.86 896.004 2550.12 896.162 2730.02C896.232 2810.82 896.564 2889.16 896.896 2904.12C897.227 2919.07 897.472 2942.32 897.434 2955.78C897.396 2969.24 898.255 2987.6 899.342 2996.57C900.424 3005.54 901.512 3014.87 901.756 3017.29C901.995 3019.71 905.056 3019.92 908.558 3017.75C912.962 3015.03 913.777 3017.02 911.206 3024.23C908.482 3031.86 910.379 3031.01 918.317 3021.04C924.27 3013.57 929.234 3003.78 929.354 2999.29C929.615 2989.28 961.779 3042.48 961.91 3053.13C961.959 3057.32 980.352 3098.02 1002.78 3143.58C1025.21 3189.14 1043.56 3229.41 1043.56 3233.07C1043.56 3236.73 1049.34 3246.59 1056.39 3254.99C1063.45 3263.38 1079.72 3289.43 1092.53 3312.88C1132.05 3385.19 1206.53 3498.12 1286.52 3607.03L1315.48 3646.46H1663.4C1854.76 3646.46 2011.32 3644.62 2011.31 3642.38C2011.3 3640.13 1980.72 3607.1 1943.35 3568.96C1905.98 3530.83 1875.4 3498.3 1875.4 3496.68C1875.4 3495.06 1901.7 3467.38 1933.85 3435.18C2003.42 3365.48 2018.58 3348.74 2027.29 3332.02C2030.9 3325.08 2045.3 3306.55 2059.29 3290.85C2102.5 3242.34 2110.23 3232.72 2169.01 3154.27C2248.63 3048.02 2254.48 3039.34 2308.32 2947.63C2334.66 2902.76 2366.57 2850.49 2379.21 2831.46C2391.87 2812.44 2407.18 2781.53 2413.24 2762.76C2419.3 2744 2432.76 2707.56 2443.14 2681.8C2462.26 2634.35 2496.21 2524.81 2496.43 2509.84C2496.49 2505.35 2501.29 2481.24 2507.08 2456.27C2515.73 2418.98 2516.59 2406.04 2511.85 2383.94C2503.66 2345.78 2503.65 2345.8 2529.19 2355.99C2557.28 2367.2 2633.15 2411.36 2635.63 2417.95C2636.62 2420.56 2647.92 2427.34 2660.74 2433.01C2673.57 2438.69 2706.31 2458.29 2733.5 2476.58C2760.69 2494.87 2783.96 2509.84 2785.21 2509.84C2789.36 2509.84 2845.92 2544.99 2861.5 2557.26C2869.94 2563.9 2885.17 2572.35 2895.34 2576.03C2905.52 2579.71 2913.85 2584.67 2913.85 2587.07C2913.85 2589.45 2917.15 2591.41 2921.18 2591.41C2925.22 2591.41 2938.81 2598.86 2951.38 2607.97C2963.95 2617.08 2979.61 2626.93 2986.18 2629.87C2998.79 2635.49 3030.5 2656.53 3044.51 2668.55C3053.85 2676.57 3107.39 2713.54 3133.37 2729.91C3142.71 2735.79 3163.81 2751.2 3180.25 2764.15C3196.7 2777.09 3238.29 2808.72 3272.68 2834.45C3307.07 2860.17 3346.53 2892.49 3360.38 2906.26C3374.22 2920.04 3399.77 2943.55 3417.14 2958.5C3550.89 3073.67 3646.69 3235.4 3723.84 3476.33C3749.1 3555.22 3762 3576.21 3762 3538.44C3762 3502.56 3707.82 3327.72 3690.23 3306.83C3687.84 3303.99 3685.88 3298.62 3685.88 3294.91C3685.88 3291.19 3676.33 3267.83 3664.66 3242.97C3652.98 3218.12 3638.58 3186.48 3632.66 3172.67C3605.06 3108.35 3490.84 2972.88 3403.92 2901.4C3391.18 2890.93 3370.42 2872.58 3357.77 2860.61C3345.12 2848.65 3321.68 2829.07 3305.69 2817.1C3289.71 2805.14 3258 2780.76 3235.24 2762.93C3187.04 2725.18 3024.34 2607.73 3020.25 2607.73C3018.72 2607.73 3007 2600.6 2994.2 2591.9C2915.67 2538.45 2813.49 2473.14 2778.2 2453.85C2755.62 2441.5 2727.36 2424.48 2715.4 2416.04C2703.44 2407.58 2683.86 2394.27 2671.9 2386.43C2566.78 2317.62 2544.16 2303.18 2541.41 2303.18C2539.67 2303.18 2532.84 2298.12 2526.24 2291.94C2519.64 2285.76 2506.29 2276.92 2496.56 2272.29C2486.84 2267.66 2478.89 2260.02 2478.89 2255.32C2478.89 2250.62 2475.17 2230.71 2470.62 2211.07C2466.07 2191.44 2457.2 2152.13 2450.9 2123.71C2444.6 2095.3 2437.31 2066.42 2434.7 2059.55C2428.37 2042.88 2428.69 2008.12 2435.33 1990.66C2446.09 1962.35 2444.3 1884.48 2431.84 1838.2C2425.4 1814.27 2417.27 1778.78 2413.79 1759.34C2410.3 1739.9 2401.42 1711.12 2394.06 1695.39L2380.67 1666.79L2407.64 1621.11C2440.16 1566.04 2446.18 1546.06 2446.31 1492.86C2446.38 1464.29 2450.58 1439.05 2460.33 1408.57C2477.61 1354.5 2475.08 1328.91 2449.06 1294.82L2430.78 1270.87L2442.96 1240.89L2455.13 1210.92L2463.7 1228.17C2468.41 1237.65 2483.87 1282.12 2498.06 1326.99C2526.22 1416.06 2552.85 1485.28 2564.12 1498.73C2568.08 1503.45 2571.32 1509.26 2571.32 1511.64C2571.32 1515.45 2581.5 1540.34 2607.36 1599.73C2611.46 1609.15 2614.82 1618.95 2614.82 1621.5C2614.82 1624.05 2623.38 1643.8 2633.85 1665.38C2644.31 1686.96 2652.87 1707.16 2652.87 1710.27C2652.87 1713.39 2662.66 1738.84 2674.62 1766.85C2686.58 1794.85 2696.37 1822.36 2696.38 1827.98C2696.38 1842.09 2714.32 1888.12 2720.19 1889.08C2722.84 1889.51 2725.52 1835.41 2726.16 1768.86C2726.8 1702.31 2729.24 1632.9 2731.57 1614.63L2735.82 1581.4L2716.42 1563.75C2688.69 1538.5 2674.99 1505.61 2671.56 1456.04C2669.97 1432.92 2667.61 1407.27 2666.34 1399.05C2664.45 1386.86 2666.08 1384.09 2675.12 1384.09C2688.92 1384.09 2706.86 1393.21 2719.97 1406.88C2735.73 1423.33 2747.76 1417.37 2749.61 1392.2C2751.06 1372.45 2748.74 1368.07 2723.79 1343.51C2708.71 1328.66 2696.37 1313.3 2696.37 1309.36C2696.37 1305.43 2684.64 1286.98 2670.29 1268.37C2645.95 1236.79 2621.8 1196.49 2588.1 1131.21C2574.8 1105.44 2574.04 1099.48 2573.63 1017C2573.02 893.633 2561.59 793.855 2541.08 732.657C2530.83 702.088 2531.22 693.419 2542.85 693.419C2560.27 693.419 2611.22 672.073 2630.86 656.547C2659.59 633.82 2679.52 589.769 2680.58 546.583C2682.72 459.917 2650.71 411.548 2559.26 363.272C2506.46 335.405 2504.47 333.79 2476.94 296.423C2418.12 216.582 2317.13 120.862 2265.9 96.3835C2228.63 78.5728 2235.34 78.6435 2140.92 95.0457L2104.68 101.343L2067.52 81.0527C2047.07 69.8878 2029.13 59.234 2027.63 57.3686C2026.14 55.5087 2010.06 47.4055 1991.9 39.3676C1957.36 24.0803 1906.13 11.8548 1850.93 5.72579C1832.99 3.72991 1814.64 1.26635 1810.16 0.243937C1805.67 -0.773039 1790.69 1.48387 1776.87 5.26354ZM1585.08 179.493C1588.6 182.484 1590.39 189.826 1589.04 195.808C1587.71 201.79 1586 209.67 1585.27 213.325C1584.54 216.979 1581.84 221.874 1579.28 224.202C1576.72 226.529 1576.39 225.382 1578.54 221.64C1581.06 217.251 1578.92 214.842 1572.47 214.842C1564.12 214.842 1562.83 211.318 1564.55 193.274C1566.56 172.184 1572.09 168.469 1585.08 179.493ZM1807.2 181.837C1808.93 184.621 1808.25 188.183 1805.72 189.755C1803.18 191.327 1801.09 189.048 1801.09 184.692C1801.09 175.523 1802.81 174.723 1807.2 181.837ZM1668.8 209.404C1668.8 212.395 1666.2 214.842 1663.04 214.842C1659.88 214.842 1658.79 212.395 1660.64 209.404C1662.49 206.413 1665.08 203.965 1666.4 203.965C1667.72 203.965 1668.8 206.413 1668.8 209.404ZM1703.91 259.605C1704.2 269.384 1706.18 280.168 1708.31 283.567C1710.43 286.966 1708.39 292.888 1703.77 296.722C1699.15 300.556 1695.8 301.448 1696.32 298.696C1698.8 285.628 1695.44 268.921 1690.89 271.733C1687.93 273.56 1687.05 268.546 1688.8 259.818C1690.46 251.535 1691.94 241.615 1692.08 237.776C1692.68 222.652 1703.4 242.458 1703.91 259.605ZM1676.64 267.594C1677.77 273.49 1676.51 281.772 1673.83 286.003C1670.1 291.893 1668.94 292.029 1668.88 286.58C1668.84 282.664 1666.84 280.668 1664.45 282.148C1662.06 283.627 1660.1 279.037 1660.1 271.945C1660.1 264.853 1662.06 260.263 1664.45 261.743C1666.84 263.222 1668.8 261.427 1668.8 257.762C1668.8 248.179 1674.21 254.961 1676.64 267.594ZM1666.31 268.851C1664.59 271.635 1665.26 275.197 1667.8 276.769C1670.34 278.341 1672.42 276.062 1672.42 271.706C1672.42 262.537 1670.71 261.737 1666.31 268.851ZM1880.84 526.967C1880.84 528.141 1877.04 530.562 1872.4 532.345C1867.56 534.2 1865.38 533.286 1867.28 530.208C1870.47 525.036 1880.84 522.562 1880.84 526.967ZM1933.62 577.168C1931.76 579.034 1935.63 585.027 1942.24 590.482L1954.23 600.401L1941.97 597.323C1935.23 595.632 1926.43 596.964 1922.42 600.292C1916.6 605.127 1915.41 603.343 1916.48 591.417C1918.17 572.519 1917.36 573.775 1927.96 573.775C1932.94 573.775 1935.49 575.303 1933.62 577.168ZM1860.9 608.216C1860.9 612.208 1864.12 615.471 1868.07 615.471C1873.42 615.471 1873.71 613.638 1869.21 608.216C1865.9 604.23 1862.68 600.967 1862.05 600.967C1861.42 600.967 1860.9 604.23 1860.9 608.216ZM1959.03 745.366C1960.88 750.207 1959.97 752.387 1956.89 750.484C1953.94 748.657 1951.52 744.861 1951.52 742.044C1951.52 734.223 1955.41 735.947 1959.03 745.366ZM1996.64 784.044C1994.11 790.614 1995.14 791.875 2000.37 788.645C2005 785.774 2006.26 786.301 2003.9 790.124C2001.88 793.387 1995.47 795.699 1989.66 795.258C1979.85 794.518 1979.72 793.762 1987.89 784.729C1998.85 772.613 2001.09 772.439 1996.64 784.044ZM2027.63 807.625C2027.63 810.616 2022.13 813.025 2015.4 812.982C2005.51 812.911 2004.73 811.889 2011.32 807.625C2021.86 800.811 2027.63 800.811 2027.63 807.625ZM1056.24 837.297C1056.24 841.653 1058.32 843.931 1060.86 842.36C1063.4 840.788 1064.07 837.226 1062.35 834.442C1057.96 827.328 1056.24 828.128 1056.24 837.297ZM2034.7 836.671C2036.24 840.679 2035.59 847.059 2033.24 850.844C2030.53 855.249 2028.99 852.622 2028.99 843.556C2028.99 827.731 2030.55 825.849 2034.7 836.671ZM1943.63 849.664C1942.03 853.84 1938.66 855.988 1936.15 854.433C1933.64 852.883 1931.58 854.765 1931.58 858.621C1931.58 862.476 1934.84 865.636 1938.83 865.636C1942.82 865.636 1946.12 862.982 1946.16 859.741C1946.21 856.505 1948.32 857.136 1950.87 861.149C1954.28 866.533 1956.15 864.994 1958.01 855.26C1960.75 840.94 1948.77 836.28 1943.63 849.664ZM1965.77 848.641C1963.9 853.525 1966.64 855.129 1974.31 853.65C1990.17 850.594 1991.78 847.537 1979.27 844.269C1973.14 842.664 1967.34 844.546 1965.77 848.641ZM1926.86 898.071C1928.25 899.963 1926.92 906.114 1923.91 911.743C1920.17 918.742 1920.31 924.958 1924.36 931.419C1929.34 939.359 1929.72 938.804 1926.73 927.949C1924.65 920.422 1925.29 916.343 1928.26 918.176C1934.02 921.744 1933.84 901.839 1928.07 897.467C1926.01 895.912 1925.47 896.183 1926.86 898.071ZM2022.2 973.816C2022.2 978.129 2019.6 981.653 2016.44 981.653C2013.27 981.653 2012.43 984.481 2014.56 987.934C2016.85 991.632 2016.06 992.742 2012.65 990.632C2009.46 988.658 2007.67 982.773 2008.67 977.552C2009.67 972.332 2010.67 966.077 2010.9 963.657C2011.63 956.065 2022.2 965.577 2022.2 973.816ZM2016.76 1008.84C2016.76 1011.84 2014.31 1014.28 2011.32 1014.28C2008.33 1014.28 2005.89 1011.84 2005.89 1008.84C2005.89 1005.85 2008.33 1003.41 2011.32 1003.41C2014.31 1003.41 2016.76 1005.85 2016.76 1008.84ZM1065.3 1035.75C1065.3 1038.09 1085.6 1052.46 1110.41 1067.67C1154.96 1095 1194.35 1132.56 1214.1 1166.53C1227.42 1189.45 1237.61 1230.07 1235.59 1252.21C1234.71 1261.94 1236.48 1269.89 1239.54 1269.89C1243.15 1269.89 1243.32 1273.22 1240.01 1279.4C1232.24 1293.92 1232.28 1298.17 1240.18 1303.19C1246.05 1306.91 1246.08 1307.8 1240.32 1307.87C1236.41 1307.92 1234.72 1310.4 1236.57 1313.39C1238.41 1316.38 1237.19 1318.83 1233.85 1318.83C1230.5 1318.83 1229.28 1321.28 1231.13 1324.27C1232.98 1327.26 1232.43 1329.71 1229.92 1329.71C1227.4 1329.71 1224.79 1336.41 1224.11 1344.6C1223.44 1352.79 1213.12 1376.36 1201.18 1396.98C1189.24 1417.6 1179.48 1436.75 1179.48 1439.52C1179.48 1442.29 1176.97 1443.01 1173.91 1441.11C1170.84 1439.22 1169.01 1439.93 1169.83 1442.69C1170.65 1445.45 1165.31 1461.52 1157.96 1478.39C1147.14 1503.26 1141.21 1510.19 1126.7 1514.98C1116.86 1518.24 1108.49 1522.54 1108.1 1524.55C1104.37 1544.21 1102.45 1559.14 1100.99 1579.87C1100.04 1593.33 1096.58 1611.08 1093.29 1619.3C1086.38 1636.62 1094.52 1639.92 1103.36 1623.38C1106.56 1617.4 1113.05 1612.5 1117.78 1612.5C1124.15 1612.5 1125.44 1609.33 1122.74 1600.27C1113.34 1568.64 1112.98 1547.73 1121.67 1539.03C1126.51 1534.19 1132.93 1531.76 1135.94 1533.62C1143.83 1538.5 1142.76 1598.1 1134.62 1606.32C1129.18 1611.81 1129.72 1614.25 1137.34 1618.55C1142.57 1621.5 1146.86 1627.66 1146.86 1632.23C1146.86 1649.29 1176.52 1671.25 1204.42 1674.84C1219.11 1676.73 1233.57 1678.07 1236.57 1677.81C1269.42 1674.96 1277.92 1673.56 1281 1670.48C1282.97 1668.5 1287.24 1666.93 1290.48 1666.97C1293.72 1667.02 1292.7 1669.43 1288.22 1672.33C1276.96 1679.6 1284.8 1679.09 1301.55 1671.45C1309.17 1667.98 1315.4 1661.92 1315.4 1657.99C1315.4 1654.05 1321.52 1646.81 1328.99 1641.91C1336.47 1637.01 1342.58 1630.84 1342.58 1628.19C1342.58 1620.81 1327.95 1622.48 1319.63 1630.8C1315.55 1634.89 1295.19 1642.58 1274.38 1647.9C1240.5 1656.56 1233.75 1656.76 1209.49 1649.84C1178.74 1641.07 1160.9 1620.24 1155.24 1586.55C1151.32 1563.2 1167.32 1506.7 1184.81 1482.14C1190.85 1473.65 1195.79 1464.91 1195.79 1462.7C1195.79 1454.74 1219.58 1411.28 1223.94 1411.28C1226.4 1411.28 1228.41 1407.99 1228.41 1403.97C1228.41 1399.95 1233.17 1392.34 1239 1387.07C1251.47 1375.78 1281.34 1315.75 1283.95 1296.73C1284.95 1289.44 1287.12 1281.04 1288.77 1278.04C1295.25 1266.28 1293.79 1227.31 1285.55 1191.93C1277.72 1158.32 1255.69 1116.45 1231.41 1089.06C1221.42 1077.79 1201.85 1075.34 1211.12 1086.53C1214.9 1091.08 1215.1 1096.27 1211.69 1101.48C1207.25 1108.25 1205.27 1107.81 1198.59 1098.58C1194.26 1092.6 1188.34 1084.9 1185.43 1081.49C1182.52 1078.06 1181.43 1073.96 1183.02 1072.38C1184.61 1070.78 1181.41 1070.18 1175.9 1071.02C1170.39 1071.87 1164.66 1070.96 1163.17 1068.99C1158.54 1062.91 1065.3 1031.24 1065.3 1035.75ZM962.002 1112.22C962.002 1117.53 1001.17 1152.98 1015.5 1160.65C1025.08 1165.78 1026.08 1170.25 1023.41 1196.09C1020.42 1225.08 1020.72 1225.88 1038.75 1237.11C1062.32 1251.78 1083.65 1248.13 1107.07 1225.42C1122.49 1210.47 1125.86 1209.27 1134.4 1215.66C1156.22 1232 1174.33 1256.2 1179.72 1276.21C1187.27 1304.3 1197.78 1297.81 1192.78 1268.15C1188.01 1239.93 1169.12 1209.72 1144.49 1190.93C1126.28 1177.04 1054.77 1144.91 1041.63 1144.71C1038.21 1144.66 1018.88 1136.41 998.701 1126.36C978.52 1116.32 962.002 1109.96 962.002 1112.22ZM1230.39 1125.74C1228.67 1130.21 1225.08 1132.51 1222.4 1130.85C1214.73 1126.11 1216.73 1117.61 1225.52 1117.61C1230.37 1117.61 1232.28 1120.8 1230.39 1125.74ZM2013.3 1142.05C2011.58 1146.52 2007.95 1148.8 2005.23 1147.12C1999.52 1143.59 2004.1 1133.93 2011.47 1133.93C2014.19 1133.93 2015.01 1137.58 2013.3 1142.05ZM1915.92 1178.6C1868.61 1225.91 1805.13 1245.53 1746.74 1230.86C1706.38 1220.73 1614.99 1221.33 1579.82 1231.98C1563.16 1237.01 1547.45 1246.72 1537.38 1258.19C1521.19 1276.64 1518.51 1296.9 1531.69 1301.24C1535.52 1302.51 1538.31 1301.47 1537.89 1298.95C1535.53 1284.61 1547.1 1269.73 1566.71 1261.88C1578.75 1257.06 1589.29 1253.83 1590.13 1254.7C1590.97 1255.58 1592.88 1264.15 1594.38 1273.76C1596.62 1288.13 1595.02 1291.92 1585.38 1295.13C1568.69 1300.67 1624.8 1312.41 1688.69 1316.74C1737.71 1320.06 1739.01 1319.83 1772.59 1301.8C1807.18 1283.22 1817.11 1276.3 1838.83 1255.67C1845.49 1249.35 1864.39 1237.38 1880.84 1229.07C1909.64 1214.52 1915.85 1208.76 1936.53 1177.33C1949.74 1157.25 1936.45 1158.07 1915.92 1178.6ZM1935.93 1225.91C1930.39 1229.35 1929.95 1233.11 1934.21 1240.69C1939.48 1250.09 1940.18 1250.15 1943.51 1241.51C1948.62 1228.25 1944.8 1220.39 1935.93 1225.91ZM1752.22 1259.59C1786.76 1260.54 1795.84 1264.65 1782.13 1273.12C1777.98 1275.69 1777.35 1274.6 1780.25 1269.89C1783.03 1265.4 1782.52 1264.08 1778.88 1266.33C1775.71 1268.29 1774.36 1274.63 1775.87 1280.42C1778.11 1288.99 1774.39 1292.07 1755.73 1297.09C1729.32 1304.21 1687.29 1306.51 1681.92 1301.14C1673 1292.22 1701.87 1250.79 1712.8 1256.82C1714.57 1257.8 1732.31 1259.04 1752.22 1259.59ZM2571.32 1259.01C2571.32 1262 2570.24 1264.45 2568.92 1264.45C2567.6 1264.45 2565.01 1262 2563.17 1259.01C2561.32 1256.02 2562.4 1253.57 2565.56 1253.57C2568.73 1253.57 2571.32 1256.02 2571.32 1259.01ZM967.08 1273.54C960.279 1291.44 964.77 1307.36 974.012 1298.12C978.541 1293.59 982.184 1293.52 987.425 1297.87C991.383 1301.16 994.624 1302.63 994.624 1301.13C994.624 1295.36 978.025 1259.01 975.388 1259.01C973.86 1259.01 970.12 1265.55 967.08 1273.54ZM1829.77 1306.89C1823.52 1325.46 1749.67 1371.37 1712.97 1379.51C1670.58 1388.93 1608.96 1387.37 1563.6 1375.74C1550.42 1372.36 1548.4 1373.25 1550.03 1381.77C1552.94 1396.88 1612.86 1410.57 1667.49 1408.61C1691.64 1407.75 1714.09 1405.38 1717.37 1403.34C1720.66 1401.32 1729.83 1398.48 1737.75 1397.04C1757.18 1393.52 1774.81 1380.26 1809.11 1343.41C1825.81 1325.46 1837.12 1308.61 1835.98 1303.39C1834.45 1296.4 1833.05 1297.19 1829.77 1306.89ZM2006.89 1304.62C2010.57 1302.34 2010.66 1304.6 2007.16 1311.38C2004.28 1316.97 2003.01 1324.61 2004.35 1328.35C2005.69 1332.09 2004.14 1335.15 2000.9 1335.15C1997.66 1335.15 1995.01 1332.55 1995.01 1329.39C1995.01 1326.22 1992.56 1325.14 1989.57 1326.99C1982.47 1331.38 1982.72 1327.9 1990.73 1310.32C1994.35 1302.35 1998.23 1298.59 1999.35 1301.94C2000.46 1305.29 2003.86 1306.49 2006.89 1304.62ZM956.995 1311.13C957.256 1317.46 958.545 1318.75 960.279 1314.42C961.85 1310.49 961.654 1305.8 959.849 1303.99C958.044 1302.19 956.761 1305.39 956.995 1311.13ZM1004.9 1317.47C1018.39 1342.09 1051.58 1356.53 1093.89 1356.19C1124.21 1355.96 1124.47 1348.94 1094.23 1346.9C1082.82 1346.13 1068.05 1341.95 1061.42 1337.61C1054.8 1333.26 1046.62 1329.71 1043.25 1329.71C1039.87 1329.71 1030.89 1324.81 1023.29 1318.83C1006.18 1305.37 997.924 1304.76 1004.9 1317.47ZM2350.56 1350.18C2341.72 1356.07 2342.35 1390.37 2351.55 1404.49C2355.94 1411.22 2357.09 1416.72 2354.11 1416.72C2350.76 1416.72 2350.42 1421.42 2353.2 1428.96C2355.69 1435.69 2356.69 1444.12 2355.43 1447.69C2354.17 1451.27 2355.76 1459.09 2358.97 1465.08C2363.3 1473.16 2363.03 1477.09 2357.96 1480.34C2354.2 1482.73 2350.63 1489.6 2350.01 1495.58C2346.76 1527.37 2343.48 1537.54 2334.18 1544.58C2327.97 1549.28 2326.69 1552.4 2330.91 1552.51C2335.6 1552.63 2333.2 1561.16 2323.62 1578.51C2306.1 1610.22 2286.87 1631.38 2259.86 1648.66C2247.2 1656.77 2240.7 1664.38 2242.99 1668.44C2245.84 1673.51 2245.1 1673.57 2239.8 1668.67C2234.26 1663.55 2235.01 1659.25 2243.58 1646.91C2262.52 1619.66 2272.23 1595.11 2269.06 1582.49C2267.37 1575.72 2268.62 1568.55 2271.85 1566.55C2275.09 1564.55 2277.73 1565.51 2277.73 1568.68C2277.73 1571.84 2282.62 1574.44 2288.6 1574.44C2294.58 1574.44 2299.48 1571.84 2299.48 1568.68C2299.48 1565.51 2297.03 1564.43 2294.04 1566.28C2291.05 1568.13 2288.33 1567.66 2287.99 1565.24C2287.66 1562.82 2286.43 1552.46 2285.26 1542.22C2282.69 1519.58 2269.55 1503.84 2255.5 1506.55C2248.15 1507.96 2245.11 1505.46 2245.11 1497.99C2245.11 1492.17 2248.05 1488.04 2251.66 1488.78C2255.26 1489.53 2258.62 1487.08 2259.14 1483.34C2259.64 1479.61 2260.63 1475.93 2261.33 1475.19C2262.02 1474.44 2263.17 1461.38 2263.88 1446.16C2265.26 1416.25 2276.21 1385.84 2287.09 1381.66C2301.99 1375.94 2308.09 1412.72 2295.03 1429.51C2292.36 1432.95 2288.83 1441.26 2287.18 1447.99C2284.87 1457.42 2286.54 1460.23 2294.45 1460.23C2301.23 1460.23 2305.81 1455.16 2307.95 1445.27C2309.74 1437.05 2313.31 1425.42 2315.9 1419.44C2318.48 1413.46 2322.28 1400.04 2324.34 1389.61C2328.72 1367.46 2341.58 1345.99 2350.39 1346.11C2354.85 1346.17 2354.9 1347.3 2350.56 1350.18ZM1527.44 1367.78C1527.44 1370.77 1530.03 1373.22 1533.2 1373.22C1536.36 1373.22 1537.44 1370.77 1535.59 1367.78C1533.75 1364.79 1531.16 1362.34 1529.84 1362.34C1528.52 1362.34 1527.44 1364.79 1527.44 1367.78ZM2018.73 1400.87C2020.64 1400.61 2022.2 1401.63 2022.2 1403.13C2022.2 1404.62 2022.2 1408.5 2022.2 1411.74C2022.2 1414.98 2019.14 1416.51 2015.4 1415.13C2011.66 1413.76 2009.22 1409.89 2009.96 1406.53C2010.71 1403.16 2008.73 1400.41 2005.56 1400.41C2002.4 1400.41 2001.48 1397.7 2003.53 1394.39C2006.19 1390.07 2008.38 1390.2 2011.25 1394.86C2013.45 1398.42 2016.82 1401.13 2018.73 1400.87ZM2594.36 1416.53C2599.63 1422.69 2601.29 1428.59 2598.29 1430.45C2595.42 1432.23 2593.07 1430.93 2593.07 1427.58C2593.07 1424.22 2588.78 1421.91 2583.55 1422.44C2566.93 1424.14 2564.38 1422.37 2571.32 1414C2580.16 1403.35 2583.38 1403.7 2594.36 1416.53ZM2163.55 1413.68C2163.55 1415 2161.11 1417.59 2158.12 1419.44C2155.13 1421.29 2152.68 1420.21 2152.68 1417.04C2152.68 1413.88 2155.13 1411.28 2158.12 1411.28C2161.11 1411.28 2163.55 1412.36 2163.55 1413.68ZM2008.71 1437.47C2003.47 1442.71 1978.77 1442.77 1982 1437.54C1983.59 1434.96 1987 1434.16 1989.57 1435.76C1992.15 1437.35 1995.82 1436.13 1997.73 1433.04C1999.64 1429.95 2003.64 1428.93 2006.62 1430.78C2009.6 1432.62 2010.54 1435.63 2008.71 1437.47ZM2585.91 1439.5C2584.17 1443.83 2582.89 1442.54 2582.62 1436.21C2582.39 1430.48 2583.67 1427.27 2585.48 1429.07C2587.28 1430.88 2587.48 1435.57 2585.91 1439.5ZM2145.52 1461.25C2143.79 1465.59 2142.5 1464.3 2142.24 1457.96C2142 1452.23 2143.29 1449.02 2145.09 1450.83C2146.9 1452.63 2147.09 1457.33 2145.52 1461.25ZM1000.49 1463.4C1000.75 1469.74 1002.04 1471.02 1003.77 1466.69C1005.35 1462.76 1005.15 1458.07 1003.34 1456.27C1001.54 1454.46 1000.26 1457.67 1000.49 1463.4ZM1999.77 1457.51C1999.39 1459.01 1998.47 1462.68 1997.73 1465.67C1996.98 1468.66 1996.03 1472.94 1995.61 1475.19C1995.19 1477.43 1992.78 1476 1990.25 1472.01C1986.53 1466.15 1985.03 1466.38 1982.41 1473.19C1977.82 1485.16 1986.96 1488.97 1995.52 1478.66C2002.51 1470.22 2007.15 1454.79 2002.69 1454.79C2001.45 1454.79 2000.14 1456.02 1999.77 1457.51ZM2188.06 1469.75C2186.17 1496.49 2185.38 1498.99 2179.87 1495.58C2176.7 1493.62 2174.43 1499.15 2174.43 1508.85C2174.43 1527.96 2169.15 1529.81 2156.01 1515.29C2147.45 1505.83 2147.43 1504.82 2155.77 1501.63C2162.36 1499.1 2163.24 1496.31 2159.04 1491.26C2155.88 1487.45 2155.25 1481.18 2157.64 1477.32C2161.06 1471.78 2163.85 1472.18 2170.92 1479.25C2178.91 1487.24 2179.94 1487.28 2180.55 1479.65C2180.92 1474.95 2181.84 1468.66 2182.58 1465.67C2183.33 1462.68 2184.25 1459.01 2184.62 1457.51C2186.74 1449.04 2188.97 1456.96 2188.06 1469.75ZM1967.13 1475.19C1960.37 1483.81 1960.56 1484 1969.19 1477.24C1978.24 1470.13 1981.12 1465.67 1976.65 1465.67C1975.52 1465.67 1971.24 1469.95 1967.13 1475.19ZM1830.71 1501.03L1815.92 1518.45L1829.35 1524.58C1837.98 1528.51 1842.78 1528.73 1842.78 1525.2C1842.78 1522.18 1839.05 1518.28 1834.48 1516.53C1827.96 1514.02 1827.56 1511.69 1832.64 1505.58C1836.18 1501.3 1842.36 1499.06 1846.37 1500.6C1850.37 1502.14 1853.65 1499.95 1853.65 1495.73C1853.65 1481.61 1845.62 1483.46 1830.71 1501.03ZM1867.41 1498.03C1863.52 1504.32 1884.33 1516.26 1893.37 1512.92C1896.94 1511.6 1893.16 1508.73 1884.95 1506.55C1876.75 1504.36 1871.39 1500.39 1873.04 1497.72C1874.69 1495.05 1874.82 1492.86 1873.32 1492.86C1871.83 1492.86 1869.17 1495.18 1867.41 1498.03ZM1970.32 1504.1C1968.35 1507.29 1967.9 1511.07 1969.33 1512.49C1970.75 1513.92 1973.37 1511.31 1975.14 1506.69C1978.81 1497.11 1975.68 1495.42 1970.32 1504.1ZM1726.64 1519.74C1728.22 1529.76 1726.89 1536.37 1723.3 1536.37C1719.23 1536.37 1719.5 1540.24 1724.13 1548.6C1727.86 1555.34 1730.21 1563.22 1729.35 1566.13C1728.5 1569.04 1733.23 1566.59 1739.87 1560.69L1751.93 1549.96L1744.82 1563.56C1738.73 1575.18 1738.81 1576.27 1745.38 1571.05C1749.61 1567.7 1757.36 1565.65 1762.61 1566.5C1767.86 1567.35 1770.88 1565.98 1769.32 1563.46C1764.85 1556.23 1773.32 1553.41 1803.69 1552.02C1819.21 1551.32 1831.9 1548.58 1831.9 1545.95C1831.9 1543.32 1834.97 1543 1838.7 1545.25C1844.13 1548.51 1844.13 1547.65 1838.73 1540.97C1835.01 1536.37 1825.22 1533.07 1816.98 1533.64C1808.74 1534.2 1798.47 1531.99 1794.16 1528.72C1788.24 1524.23 1787.31 1524.42 1790.37 1529.51C1793.2 1534.22 1791.62 1535.17 1785.08 1532.66C1779.62 1530.56 1777.11 1531.28 1779.02 1534.37C1782.54 1540.07 1754.94 1539.85 1745.65 1534.1C1742.63 1532.23 1741.14 1525.53 1742.36 1519.2C1743.58 1512.88 1743.04 1509.23 1741.17 1511.11C1739.29 1512.99 1734.67 1511.95 1730.89 1508.82C1725.53 1504.37 1724.6 1506.78 1726.64 1519.74ZM1766.71 1511.83C1763.01 1516.29 1757.21 1518.27 1753.81 1516.23C1749.97 1513.92 1750.18 1515.67 1754.38 1520.87C1758.09 1525.46 1759.32 1531.41 1757.1 1534.09C1754.89 1536.77 1758.16 1534.71 1764.38 1529.5C1770.61 1524.29 1777.33 1521.67 1779.34 1523.66C1781.34 1525.66 1782.97 1524.3 1782.97 1520.64C1782.97 1516.97 1785.8 1515.72 1789.25 1517.85C1793.05 1520.2 1794.05 1519.35 1791.79 1515.69C1789.74 1512.37 1784.07 1511.18 1779.19 1513.06C1773.26 1515.33 1771.62 1514.35 1774.25 1510.1C1779.85 1501.03 1774.69 1502.22 1766.71 1511.83ZM1979.13 1512.93C1978.51 1522.29 1988.13 1526.79 1992.75 1519.3C1995.1 1515.51 1994.34 1514.39 1990.88 1516.53C1987.68 1518.5 1983.83 1517.04 1982.31 1513.29C1980.34 1508.4 1979.43 1508.3 1979.13 1512.93ZM2200.9 1535.33C2201.91 1514.67 2209.49 1512.36 2226.02 1527.68C2243.46 1543.84 2253.33 1575.37 2245.53 1589.96C2242.52 1595.59 2241.18 1601.32 2242.56 1602.7C2243.94 1604.08 2238.96 1610.95 2231.49 1617.96C2224.03 1624.97 2217.86 1633.35 2217.79 1636.56C2217.59 1645.35 2183.96 1660.31 2173.02 1656.47C2163.94 1653.28 2163.93 1652.45 2172.92 1639.61C2178.12 1632.19 2182.66 1623.66 2183.01 1620.67C2183.36 1617.68 2184.02 1612.02 2184.48 1608.1C2184.93 1604.19 2187.13 1602.12 2189.38 1603.5C2191.63 1604.89 2193.46 1597.61 2193.46 1587.32C2193.46 1577.04 2190.73 1566.87 2187.4 1564.73C2176.59 1557.79 2173.32 1537.96 2182.42 1534.46C2187 1532.71 2191.06 1526.91 2191.46 1521.58C2191.85 1516.26 2193.97 1520.46 2196.18 1530.93C2199.68 1547.6 2200.27 1548.14 2200.9 1535.33ZM1935.1 1539.21C1929.36 1546.13 1929.69 1546.93 1937.16 1544.07C1942.06 1542.18 1946.08 1538.46 1946.08 1535.79C1946.08 1528.79 1942.93 1529.78 1935.1 1539.21ZM1413.26 1547.24C1413.26 1553.23 1410.67 1558.12 1407.51 1558.12C1404.34 1558.12 1403.49 1555.29 1405.63 1551.84C1408.09 1547.86 1407.11 1547.04 1402.97 1549.61C1398.08 1552.62 1397.98 1555.53 1402.55 1561.04C1406.61 1565.92 1407.36 1579.02 1404.77 1599.73C1400.74 1631.97 1387.96 1650.01 1368.86 1650.39C1354.43 1650.68 1342.38 1656.72 1345.66 1662.02C1352.25 1672.69 1382.34 1666.35 1406.4 1649.21C1423.47 1637.06 1431.97 1633.69 1433.6 1638.43C1434.91 1642.23 1439.43 1648.78 1443.65 1653C1447.87 1657.22 1451.32 1663.37 1451.32 1666.68C1451.32 1675.3 1477.26 1725.3 1483.84 1729.36C1492.61 1734.79 1490.32 1719.96 1478.92 1697.61C1466.12 1672.49 1454.95 1643.78 1455.93 1638.49C1457.59 1629.54 1441.08 1561.85 1436.49 1558.76C1433.74 1556.91 1429.92 1551.12 1427.99 1545.88C1423.21 1532.92 1413.26 1533.84 1413.26 1547.24ZM1763.71 1552.31C1765.43 1555.09 1764.76 1558.65 1762.22 1560.23C1759.68 1561.8 1757.6 1559.52 1757.6 1555.16C1757.6 1545.99 1759.32 1545.19 1763.71 1552.31ZM1878.64 1571.27C1879.35 1577.5 1880.14 1583.58 1880.39 1584.8C1880.63 1586.01 1885.32 1582.94 1890.79 1577.99C1896.27 1573.03 1902.77 1570.81 1905.25 1573.07C1907.74 1575.32 1907.98 1574.06 1905.8 1570.27C1903.62 1566.48 1899.56 1564.79 1896.77 1566.51C1893.99 1568.23 1891.71 1567.45 1891.71 1564.79C1891.71 1562.12 1888.48 1559.93 1884.53 1559.93C1880.47 1559.93 1877.91 1564.85 1878.64 1571.27ZM1960.02 1567.4C1957.07 1575.15 1957.69 1575.78 1963.06 1570.45C1966.78 1566.76 1968.45 1562.37 1966.78 1560.7C1965.1 1559.02 1962.06 1562.04 1960.02 1567.4ZM2125.5 1568.68C2125.5 1574.48 2127.94 1580.74 2130.93 1582.59C2134.02 1584.5 2136.37 1579.93 2136.37 1572.04C2136.37 1564.39 2133.92 1558.12 2130.93 1558.12C2127.94 1558.12 2125.5 1562.87 2125.5 1568.68ZM2105.99 1601.56C2102.45 1605.1 2100.32 1602.97 2099.74 1595.31C2099.08 1586.56 2100.41 1585.23 2105.11 1589.94C2109.23 1594.06 2109.53 1598.02 2105.99 1601.56ZM2202.04 1604.8C2202.3 1611.13 2203.59 1612.42 2205.33 1608.09C2206.9 1604.16 2206.7 1599.47 2204.9 1597.66C2203.09 1595.86 2201.81 1599.07 2202.04 1604.8ZM1915.27 1620.66C1915.27 1624.58 1918.53 1626.53 1922.52 1625C1926.51 1623.47 1929.77 1621.52 1929.77 1620.66C1929.77 1619.81 1926.51 1617.86 1922.52 1616.32C1918.53 1614.79 1915.27 1616.75 1915.27 1620.66ZM2110.24 1626.1C2110.46 1632.08 2108.83 1641.26 2106.61 1646.49C2104.11 1652.42 2104.98 1656.01 2108.92 1656.01C2112.41 1656.01 2113.87 1653.75 2112.16 1650.99C2110.45 1648.22 2112.58 1645.16 2116.9 1644.19C2123.62 1642.67 2123.67 1640.47 2117.29 1628.82C2110.84 1617.06 2109.89 1616.69 2110.24 1626.1ZM2016.94 1654.84C2009.86 1662.54 2010.01 1663.11 2018.3 1659.94C2024.88 1657.41 2027.66 1659.11 2027.71 1665.7C2027.79 1673.8 2028.58 1673.96 2033.62 1666.89C2038.31 1660.33 2038.92 1661.14 2036.77 1670.97C2035.29 1677.71 2036.3 1681.85 2039.01 1680.17C2046.83 1675.34 2044.77 1663.88 2034.43 1654.64C2025.8 1646.94 2024.17 1646.96 2016.94 1654.84ZM1975.98 1661.45C1967.12 1665.26 1966.8 1666.19 1974.3 1666.51C1979.36 1666.71 1985.01 1664.44 1986.86 1661.45C1990.72 1655.2 1990.53 1655.2 1975.98 1661.45ZM2040.99 1737.21C2042.71 1740 2042.04 1743.56 2039.5 1745.13C2036.96 1746.7 2034.88 1744.42 2034.88 1740.07C2034.88 1730.9 2036.6 1730.1 2040.99 1737.21ZM1800.19 1773.91C1801.19 1777.44 1797.11 1784.3 1791.13 1789.17C1780.37 1797.91 1780.37 1797.95 1791.77 1792.46C1798.11 1789.41 1804.65 1788.28 1806.31 1789.94C1807.98 1791.61 1808.78 1789.14 1808.1 1784.47C1807.41 1779.79 1804.94 1774.06 1802.61 1771.73C1800.28 1769.41 1799.19 1770.39 1800.19 1773.91ZM1846.25 1783.81C1844.53 1788.3 1845.49 1791.97 1848.38 1791.97C1851.28 1791.97 1853.65 1788.3 1853.65 1783.81C1853.65 1779.33 1852.69 1775.66 1851.52 1775.66C1850.34 1775.66 1847.97 1779.33 1846.25 1783.81ZM1125.75 1825.96C1126.11 1829.7 1126.19 1834.34 1125.94 1836.28C1125.69 1838.22 1129.68 1838.8 1134.81 1837.57C1147.74 1834.48 1156.24 1841.23 1160.43 1857.92C1163.74 1871.13 1162.74 1872.07 1145.91 1871.68C1135.96 1871.45 1125.38 1868.46 1122.39 1865.04C1119.3 1861.49 1111.19 1860.31 1103.6 1862.29L1090.24 1865.77L1109.03 1879.17C1123.59 1889.55 1133.92 1892.38 1154.83 1891.72C1169.69 1891.24 1201.87 1895.23 1226.34 1900.58C1274.32 1911.07 1274.39 1911.05 1342.07 1883.74C1356.68 1877.84 1361.09 1877.7 1362.92 1883.06C1364.2 1886.81 1368.12 1889.86 1371.65 1889.86C1375.18 1889.86 1382.93 1896.55 1388.87 1904.72C1394.81 1912.9 1404.84 1924.91 1411.15 1931.41C1417.46 1937.91 1434.33 1960.84 1448.64 1982.36C1462.94 2003.89 1483 2030.43 1493.2 2041.34C1509.39 2058.65 1530.65 2082.81 1567.33 2125.64C1572.83 2132.06 1580.88 2145.79 1585.22 2156.15C1589.56 2166.52 1595.68 2176.59 1598.83 2178.53C1604.69 2182.16 1624.09 2243.49 1629.03 2274.01C1630.54 2283.39 1628.84 2296.58 1625.23 2303.31C1619.04 2314.88 1616.17 2315.41 1574.41 2312.78C1550.07 2311.24 1522.82 2311.71 1513.85 2313.82C1498.07 2317.53 1498.34 2317.78 1522 2321.55C1535.46 2323.69 1555.03 2325.15 1565.5 2324.8C1575.96 2324.44 1594.31 2326.19 1606.27 2328.68C1627.12 2333.03 1628.09 2334.17 1629.69 2356.27C1630.61 2368.94 1633.06 2379.2 1635.13 2379.06C1637.2 2378.92 1643.91 2368.59 1650.05 2356.1C1659.28 2337.31 1665.38 2332.15 1685.39 2326.15C1698.69 2322.16 1715.69 2318.2 1723.17 2317.36C1744.73 2314.92 1831.28 2286.82 1834.81 2281.13C1836.78 2277.93 1842.2 2278.2 1849 2281.84C1857.51 2286.4 1862.14 2285.79 1869.5 2279.13C1874.73 2274.39 1880.42 2271.95 1882.16 2273.69C1883.91 2275.43 1891.88 2272.57 1899.88 2267.32C1907.89 2262.07 1922.17 2253.63 1931.62 2248.56C1941.07 2243.49 1948.8 2236.94 1948.8 2234.01C1948.8 2227.85 1986.51 2188.97 1992.48 2188.97C2001.24 2188.97 2022.14 2160.47 2027.44 2141.31C2034.78 2114.82 2040.49 2106.45 2049.88 2108.47C2055.21 2109.62 2057.54 2104.83 2057.54 2092.71C2057.54 2083.13 2061.21 2070.86 2065.69 2065.44C2078.54 2049.91 2095.43 2013.04 2093.79 2004.07C2091.82 1993.21 2092.17 1921.95 2094.26 1911.61C2095.16 1907.13 2098.05 1900.02 2100.67 1895.82C2103.63 1891.06 2103.42 1889.43 2100.08 1891.49C2097.11 1893.32 2095.12 1889.46 2095.61 1882.81C2096.4 1872.07 2099.27 1870.91 2123.23 1871.68C2175.6 1873.35 2184.98 1875.48 2178.02 1884.11C2173.5 1889.72 2173.47 1890.89 2177.89 1888.25C2185.56 1883.65 2193.57 1893.36 2198.25 1912.97C2200.21 1921.2 2203.96 1927.93 2206.58 1927.93C2209.21 1927.93 2209.43 1936.39 2207.09 1946.8C2201.45 1971.8 2211.21 1980.76 2235.84 1973.2C2267.83 1963.38 2270.89 1968.41 2260.97 2014.68C2254.33 2045.65 2246.43 2050.13 2241.55 2025.71C2234.64 1991.12 2228.51 2004.69 2229.99 2051.32L2231.52 2099.42L2203.01 2156.43C2152.56 2257.33 2135.33 2280.86 2099.92 2297.22C2057.81 2316.66 2028.03 2334.02 2005.89 2352.01C1992.43 2362.95 1972.18 2377.47 1960.88 2384.3C1949.59 2391.12 1937.36 2399.51 1933.7 2402.96C1930.05 2406.41 1917.68 2416.23 1906.23 2424.79C1894.77 2433.35 1878.58 2446.81 1870.25 2454.7C1861.91 2462.59 1848.04 2475.31 1839.42 2482.97C1830.8 2490.62 1819.6 2501.64 1814.52 2507.44C1809.44 2513.25 1791.78 2531.28 1775.27 2547.52C1747.85 2574.5 1706.86 2640.99 1706.86 2658.49C1706.86 2667.81 1640.75 2738.39 1632.1 2738.31C1628.36 2738.28 1625.3 2740.33 1625.3 2742.88C1625.3 2745.43 1607.89 2755.54 1586.61 2765.35C1554.98 2779.94 1539.08 2783.7 1499.48 2785.95C1472.84 2787.48 1451.78 2789.47 1452.7 2790.39C1453.62 2791.3 1462.65 2793.51 1472.78 2795.3C1482.9 2797.09 1493.2 2799.79 1495.66 2801.31C1505.79 2807.57 1564.63 2803.71 1589.84 2795.13C1604.72 2790.07 1631.42 2776.06 1649.18 2764C1672.82 2747.93 1680.3 2744.83 1677.14 2752.39C1674.77 2758.08 1671.75 2768.84 1670.42 2776.32C1657.41 2849.4 1605.13 2943.19 1559.01 2976.18C1537.74 2991.39 1527.07 2994.97 1495.05 2997.66C1441.41 3002.16 1418.39 2991.27 1390.6 2948.26C1379.14 2930.53 1369.73 2910.9 1369.69 2904.63C1369.62 2895.98 1368.45 2895.05 1364.83 2900.79C1361.17 2906.55 1355.95 2902.72 1342.64 2884.47C1313.66 2844.75 1255 2754.74 1225 2703.96C1201.15 2663.6 1197.41 2653.68 1201.11 2640.75C1205.86 2624.18 1222.03 2596.7 1231 2589.94C1239.04 2583.87 1269.69 2590.35 1291.85 2602.8L1310.97 2613.55L1298.24 2596.48C1291.23 2587.09 1283.28 2576.35 1280.58 2572.61C1274.29 2563.88 1309.89 2490.24 1319.48 2492.16C1323.22 2492.91 1326.3 2490.46 1326.32 2486.72C1326.35 2482.98 1331.86 2468.91 1338.56 2455.45C1350.1 2432.27 1352.02 2430.93 1375.04 2429.94C1388.4 2429.37 1401.99 2431.11 1405.25 2433.81C1417.59 2444.06 1632.25 2454.6 1643.21 2445.51C1647.05 2442.32 1661.1 2439.23 1674.45 2438.64C1702.22 2437.41 1739.48 2427.59 1739.48 2421.5C1739.48 2419.23 1746.21 2417.35 1754.43 2417.3C1765.63 2417.24 1767.4 2415.96 1761.49 2412.22C1757.14 2409.47 1751.96 2408.24 1749.96 2409.47C1747.96 2410.7 1733.17 2413.28 1717.08 2415.19C1700.99 2417.11 1683.74 2420.8 1678.76 2423.42C1666.19 2430 1465.43 2425.74 1433.1 2418.21C1360.76 2401.36 1363.88 2403.29 1367.53 2377.74C1369.33 2365.14 1370.98 2351.89 1371.19 2348.28C1371.41 2344.68 1373.62 2342.99 1376.11 2344.53C1378.6 2346.06 1380.64 2338.82 1380.64 2328.42C1380.64 2318.03 1383.42 2308.6 1386.8 2307.47C1390.47 2306.25 1392.85 2292.96 1392.69 2274.63C1392.48 2250.8 1388.5 2236.5 1375.09 2211.33C1365.57 2193.45 1353.87 2177.33 1349.11 2175.5C1344.35 2173.67 1315.44 2169.81 1284.87 2166.91C1251.53 2163.75 1219.87 2157.37 1205.74 2150.95C1192.79 2145.07 1176.35 2140.21 1169.21 2140.15C1140.73 2139.89 1054.17 2071.57 1040.08 2038.23C1036.01 2028.61 1032.68 2008.27 1032.68 1993.04C1032.68 1962.19 1025.01 1960.83 1019.41 1990.7C1017.4 2001.35 1012.23 2011.44 1007.92 2013.09C1003.59 2014.75 1000.06 2019.52 1000.06 2023.68C1000.06 2027.85 998.065 2031.26 995.624 2031.26C988.458 2031.26 967.439 1990.14 967.439 1976.12C967.439 1959 995.961 1919.7 1035.56 1882.24C1067.05 1852.45 1071.75 1849.57 1085.76 1851.4C1089.54 1851.9 1093.83 1848.52 1095.28 1843.89C1096.73 1839.26 1099.07 1831.81 1100.47 1827.32C1103.55 1817.49 1124.84 1816.34 1125.75 1825.96ZM1290.57 1854.2C1321.98 1861.3 1324.61 1865.97 1304.22 1878.41C1285.21 1890 1255.59 1893.95 1255.59 1884.9C1255.59 1882.17 1248.29 1881.08 1239.35 1882.49C1226.85 1884.47 1219.7 1881.64 1208.32 1870.25C1194.68 1856.61 1194.31 1855.18 1203.65 1851.9C1215.64 1847.69 1267.9 1849.07 1290.57 1854.2ZM2419.41 1863.28C2423.12 1870.21 2424.79 1893.41 2423.61 1921.74C2420.93 1986.55 2394.73 2044.48 2336.73 2113.82C2291.44 2167.98 2216.06 2232.47 2183.43 2245C2171.56 2249.56 2169.87 2253.76 2208.26 2182.85C2256.16 2094.37 2278.46 2038.83 2281.78 1999.77C2284.13 1972.17 2286.9 1964.43 2296.16 1959.67C2326.59 1944.04 2367.29 1907.81 2384.27 1881.26C2394.63 1865.06 2405.4 1851.79 2408.19 1851.79C2410.98 1851.79 2416.03 1856.96 2419.41 1863.28ZM1237.18 1863.66C1238.75 1866.2 1242.31 1866.88 1245.1 1865.15C1252.21 1860.76 1251.41 1859.04 1242.24 1859.04C1237.89 1859.04 1235.61 1861.13 1237.18 1863.66ZM1148.41 1937.8C1140.45 1938.93 1130.8 1949.28 1119.87 1968.38C1110.79 1984.24 1103.36 2000.05 1103.36 2003.49C1103.36 2006.93 1109.8 2019.47 1117.68 2031.37C1130.26 2050.4 1134.53 2053.01 1153.02 2053.01C1164.58 2053.01 1174.04 2055.05 1174.04 2057.54C1174.04 2064.69 1191.49 2063.57 1210.2 2055.23C1233.77 2044.7 1244.03 2005.88 1231.3 1975.4C1226.64 1964.25 1220.87 1955.12 1218.49 1955.12C1216.1 1955.12 1209.41 1950.84 1203.61 1945.6C1193.62 1936.58 1175.24 1933.98 1148.41 1937.8ZM1010.93 2039.74C1010.93 2044.4 1008.45 2046.68 1005.41 2044.8C1002.37 2042.92 1001.29 2039.11 1003.01 2036.32C1007.67 2028.78 1010.93 2030.18 1010.93 2039.74ZM1958.76 2038.89C1958.76 2047.1 1970.5 2047.24 1977.18 2039.12C1979.51 2036.3 1979.2 2035.79 1976.48 2038.01C1973.77 2040.23 1968.67 2039.66 1965.16 2036.74C1960.79 2033.11 1958.76 2033.79 1958.76 2038.89ZM1992.91 2048.57C1994.48 2051.11 1998.04 2051.78 2000.82 2050.06C2007.93 2045.67 2007.14 2043.95 1997.97 2043.95C1993.61 2043.95 1991.34 2046.03 1992.91 2048.57ZM2321.67 2199.51C2292.77 2278.73 2224.06 2396.47 2174.04 2452.51C2160.8 2467.35 2139.99 2490.59 2127.8 2504.17C2115.62 2517.76 2091.35 2547.22 2073.87 2569.66C2002.97 2660.66 1848.87 2799.92 1725.89 2884.16C1698.97 2902.6 1664.76 2926.25 1649.87 2936.73C1616.17 2960.44 1610.2 2960.8 1626.84 2938.11C1642.24 2917.09 1668.8 2855.98 1668.8 2841.54C1668.8 2835.93 1671.24 2829.83 1674.23 2827.98C1677.23 2826.13 1679.67 2819.76 1679.67 2813.82C1679.67 2799.73 1713.63 2708.26 1737.62 2657.73C1762.7 2604.9 1809.02 2537.63 1842.9 2504.79C1870.64 2477.91 1876.24 2473.47 1965.65 2407.61C2045.26 2348.95 2096.98 2314.05 2104.29 2314.05C2106.98 2314.05 2109.19 2312.21 2109.19 2309.94C2109.19 2307.68 2117.13 2302.46 2126.86 2298.34C2158.35 2284.98 2264.94 2211.33 2300.34 2178.46C2319.3 2160.86 2335.52 2148.35 2336.39 2150.67C2337.25 2152.99 2330.62 2174.96 2321.67 2199.51ZM1867.19 2178.18C1865.31 2181.22 1862.01 2182.63 1859.87 2181.29C1857.72 2179.97 1855.62 2185.43 1855.21 2193.44C1854.8 2201.45 1855.71 2204.93 1857.24 2201.18C1858.77 2197.42 1861.98 2195.55 1864.37 2197.04C1866.77 2198.52 1871.75 2196.09 1875.45 2191.63C1880.48 2185.57 1880.55 2183.53 1875.74 2183.53C1872.21 2183.53 1870.83 2181.09 1872.68 2178.1C1874.53 2175.1 1874.82 2172.66 1873.32 2172.66C1871.83 2172.66 1869.07 2175.14 1867.19 2178.18ZM1770.62 2226.84C1767.15 2231.44 1766.44 2233.38 1769.06 2231.17C1775.62 2225.6 1789.09 2237.71 1784.83 2245.33C1782.93 2248.73 1784.79 2248.33 1788.97 2244.44C1793.14 2240.55 1796.56 2234.44 1796.56 2230.85C1796.56 2227.26 1799.42 2224.32 1802.91 2224.32C1806.39 2224.32 1810.56 2223.01 1812.16 2221.41C1813.77 2219.81 1806.49 2218.5 1796 2218.5C1785.22 2218.5 1774.19 2222.12 1770.62 2226.84ZM1792.04 2230.58C1792.04 2235.93 1790.2 2236.23 1784.78 2231.73C1780.8 2228.42 1777.54 2225.19 1777.54 2224.56C1777.54 2223.93 1780.8 2223.41 1784.78 2223.41C1788.77 2223.41 1792.04 2226.64 1792.04 2230.58ZM1693.81 2269.66C1692.43 2271.9 1696.02 2274.08 1701.79 2274.52C1714.28 2275.46 1715.38 2272.9 1704.31 2268.65C1699.92 2266.96 1695.2 2267.42 1693.81 2269.66ZM829.799 2552.96C819.039 2564.86 805.29 2583.9 799.238 2595.25C793.187 2606.6 780.878 2625.67 771.88 2637.64C762.887 2649.6 750.573 2670.07 744.516 2683.13C738.459 2696.19 728.037 2714.54 721.355 2723.92C714.673 2733.29 709.111 2742.19 709.002 2743.69C708.893 2745.18 706.072 2751.3 702.734 2757.28C699.395 2763.26 696.514 2770.02 696.329 2772.3C695.198 2786.26 681.579 2824.04 674.782 2832.06C670.351 2837.29 668.796 2841.58 671.325 2841.58C673.858 2841.58 672.167 2844.64 667.573 2848.37C662.973 2852.12 655.873 2863.74 651.784 2874.21C647.701 2884.68 638.948 2897.55 632.337 2902.82C622.654 2910.54 614.009 2930.36 611.611 2950.34C611.432 2951.84 604.576 2964.5 596.372 2978.47C588.173 2992.44 580.316 3012.81 578.919 3023.73C576.527 3042.44 567.681 3060.06 540.094 3101.07C533.625 3110.69 526.671 3127.43 524.637 3138.26C522.604 3149.1 515.889 3167.65 509.718 3179.5C503.542 3191.35 497.915 3207.84 497.208 3216.15C496.501 3224.45 492.021 3237.2 487.259 3244.47C482.496 3251.74 478.745 3262.57 478.929 3268.53C479.114 3274.49 474.297 3292.28 468.23 3308.07C462.162 3323.86 457.171 3337.32 457.138 3337.98C457.1 3338.64 455.899 3342.86 454.458 3347.35C443.111 3382.72 429.187 3434.89 429.187 3442C429.187 3446.77 427.04 3450.67 424.408 3450.67C417.319 3450.67 408.098 3477.56 406.684 3502.34C406.004 3514.3 402.22 3530.72 398.273 3538.81C394.326 3546.91 390.254 3564.68 389.226 3578.31C388.199 3591.94 385.757 3604.7 383.806 3606.65C378.222 3612.23 379.663 3630.14 385.692 3630.14C388.682 3630.14 391.129 3633.81 391.129 3638.3C391.129 3643.67 396.495 3646.46 406.82 3646.46C421.396 3646.46 422.783 3644.61 426.24 3620.62C432.014 3580.56 452.985 3502.98 480.43 3420.14C541.372 3236.2 560.733 3183.65 590.168 3122.18C594.327 3113.49 597.731 3104.18 597.731 3101.48C597.731 3098.79 602.379 3086.31 608.066 3073.77C613.748 3061.22 629.906 3025.26 643.966 2993.85C658.031 2962.44 674.38 2926.96 680.295 2915C686.211 2903.03 694.687 2881.38 699.123 2866.89C709.85 2831.87 731.359 2784.96 788.006 2672.99C824.58 2600.68 854.124 2536.07 851.704 2533.66C850.41 2532.36 840.553 2541.05 829.799 2552.96ZM1345.63 2700.18C1350.15 2717.17 1356.65 2724.53 1360.97 2717.53C1362.79 2714.6 1359.26 2706.43 1353.14 2699.39L1342.01 2686.58L1345.63 2700.18ZM2846.23 2758.92C2842.12 2771.86 2847.45 2823.82 2854.17 2836.38C2857.09 2841.84 2859.48 2851.36 2859.48 2857.53C2859.48 2863.71 2862.1 2868.77 2865.3 2868.77C2868.94 2868.77 2870.62 2880.99 2869.79 2901.36C2869.06 2919.29 2870.11 2935.6 2872.12 2937.61C2874.14 2939.63 2875.79 2946.66 2875.79 2953.24C2875.79 2959.81 2880.5 2971.18 2886.25 2978.5C2892.87 2986.92 2895.05 2994.51 2892.17 2999.16C2889.67 3003.21 2888.57 3011.43 2889.73 3017.43C2890.89 3023.44 2893.19 3040.77 2894.85 3055.96C2896.52 3071.16 2900.17 3090.93 2902.98 3099.9C2905.78 3108.87 2909.07 3127.58 2910.28 3141.47C2911.5 3155.36 2914.16 3169.42 2916.19 3172.72C2918.23 3176.02 2920.98 3183.62 2922.31 3189.61C2923.64 3195.6 2926.02 3206.02 2927.62 3212.75C2929.21 3219.47 2931.57 3244.04 2932.85 3267.33C2934.14 3290.62 2936.53 3311.83 2938.15 3314.46C2943.29 3322.77 2948.63 3380.9 2948.79 3430.28C2948.89 3456.46 2951.13 3477.87 2953.78 3477.87C2957.96 3477.87 2955.51 3555.11 2949.74 3605.67C2948.71 3614.64 2949.35 3624.43 2951.16 3627.42C2952.97 3630.41 2954.49 3635.31 2954.54 3638.3C2954.58 3641.29 2967.3 3644.47 2982.79 3645.37L3010.96 3647L3016.23 3623.62C3021.33 3601 3020.84 3351.09 3015.6 3295.68C3010.56 3242.49 3005.46 3203.11 3002.55 3195.07C3000.93 3190.58 2997.65 3172.23 2995.26 3154.28C2976.99 3017.26 2927.3 2843.15 2893.17 2796.6C2881.71 2780.96 2870.74 2763.87 2868.79 2758.64C2864.18 2746.23 2850.2 2746.41 2846.23 2758.92ZM2843.17 2863.65C2843.17 2866.82 2845.61 2867.9 2848.6 2866.05C2851.59 2864.2 2854.04 2861.61 2854.04 2860.29C2854.04 2858.97 2851.59 2857.89 2848.6 2857.89C2845.61 2857.89 2843.17 2860.49 2843.17 2863.65ZM1501.02 3026.48C1506.58 3026.48 1511.13 3028.69 1511.13 3031.38C1511.13 3035.31 1483.66 3055.16 1466.87 3063.36C1463.23 3065.14 1440.45 3030.98 1440.45 3023.74C1440.45 3021.45 1451.8 3021.12 1465.68 3023.02C1479.55 3024.93 1495.45 3026.48 1501.02 3026.48ZM137.139 3045.46C115.761 3068.75 108.541 3081.82 107.981 3098.18C107.748 3105.11 106.318 3107.72 104.812 3103.98C103.3 3100.24 99.565 3097.18 96.504 3097.18C93.4431 3097.18 92.3176 3100.79 94.0085 3105.2C95.6994 3109.6 94.0085 3115.11 90.2407 3117.43C76.8279 3125.7 59.2451 3156.55 57.7825 3174.36C56.967 3184.31 54.3192 3195.66 51.9053 3199.56C49.4913 3203.47 48.8986 3208.05 50.5895 3209.74C52.2749 3211.44 51.5627 3216.78 49.0019 3221.62C37.4812 3243.4 29.9946 3347.29 39.9332 3347.43C43.6303 3347.48 43.3476 3349.12 39.1829 3351.77C34.953 3354.46 31.4408 3375.97 29.6575 3410.15C28.108 3439.92 25.9006 3474.06 24.7534 3486.02C23.6062 3497.99 20.8063 3538.98 18.5282 3577.12C14.5049 3644.57 14.6952 3646.46 25.4493 3646.46C35.4315 3646.46 37.1332 3641.03 42.9398 3590.71C46.4738 3560.05 51.7911 3521.51 54.7596 3505.06C57.7282 3488.61 62.3713 3461.69 65.0788 3445.24C74.7239 3386.68 76.6322 3376.89 84.3907 3346.29C88.7075 3329.25 93.1332 3308.45 94.226 3300.06C97.0314 3278.51 103.007 3254.03 108.579 3241.3C111.195 3235.32 115.664 3221.86 118.513 3211.39C124.917 3187.84 145.349 3134.43 168.102 3081.76C177.579 3059.82 184.005 3038.4 182.385 3034.17C177.073 3020.33 155.19 3025.79 137.139 3045.46ZM2546 3492.27C2547.88 3506.78 2550.81 3537.01 2552.53 3559.44C2554.23 3581.88 2558.26 3610.63 2561.46 3623.34C2566.57 3643.58 2569.17 3646.46 2582.39 3646.46C2594.81 3646.46 2596.98 3644.53 2594.65 3635.58C2593.08 3629.6 2594.34 3624.7 2597.43 3624.7C2601.29 3624.7 2601.34 3618.44 2597.58 3604.81C2594.56 3593.87 2593.11 3577.92 2594.37 3569.36C2595.67 3560.46 2593.56 3551.23 2589.43 3547.8C2585.45 3544.5 2582.2 3533.12 2582.2 3522.52C2582.2 3511.92 2580.36 3505.1 2578.12 3507.36C2575.87 3509.63 2571.38 3502.08 2568.11 3490.59C2564.49 3477.82 2558.38 3468.97 2552.39 3467.8C2543.67 3466.1 2542.97 3468.81 2546 3492.27Z" fill="url(#paint0_linear_10_16)"/>
<defs>
<linearGradient id="paint0_linear_10_16" x1="1695" y1="0" x2="1695" y2="3647" gradientUnits="userSpaceOnUse">
<stop stop-color="#3C95B0"/>
<stop offset="1"/>
</linearGradient>
</defs>
</svg>
