<svg width="2268" height="2269" viewBox="0 0 2268 2269" fill="none" xmlns="http://www.w3.org/2000/svg">
<path d="M1741.92 2267.1C1404.02 2267.1 962.493 2055.08 587.939 1680.5C504.201 1596.76 426.689 1507.86 357.596 1416.23C349.227 1405.11 351.42 1389.31 362.536 1380.91C373.628 1372.54 389.458 1374.76 397.827 1385.85C465.533 1475.64 541.482 1562.78 623.557 1644.86C989.036 2010.34 1417.28 2218.75 1739.48 2218.8C1882.43 2218.8 2004.43 2177.79 2090.92 2091.3C2211.31 1970.89 2247.41 1772.53 2192.53 1532.81C2189.43 1519.25 2197.9 1505.74 2211.48 1502.64C2224.87 1499.46 2238.56 1507.98 2241.66 1521.59C2300.52 1778.81 2259.66 1993.8 2126.56 2126.94C2031.53 2221.98 1897.76 2267.1 1741.92 2267.1Z" fill="black"/>
<path d="M1879.15 878.205C1871.56 878.205 1864.08 874.802 1859.11 868.324C1794.3 783.753 1722.11 701.528 1644.5 623.94C1116.89 96.2775 458.576 -103.994 177.137 177.495C51.9835 302.649 18.105 510.205 81.7532 761.874C85.1562 775.385 76.989 789.072 63.5032 792.5C50.0929 795.828 36.3046 787.736 32.8764 774.25C-35.2838 504.634 3.30837 280.063 141.494 141.852C289.435 -6.08892 532.382 -39.6397 825.517 47.4512C1113.36 132.954 1416.85 325.008 1680.12 588.297C1759.27 667.447 1832.95 751.337 1899.12 837.646C1907.59 848.687 1905.49 864.517 1894.43 872.987C1889.89 876.491 1884.5 878.205 1879.15 878.205Z" fill="black"/>
<path d="M527.518 2268.66C368.006 2268.66 235.391 2220.84 141.495 2126.94C-159.631 1825.82 40.6405 1135.6 587.939 588.297C665.351 510.885 747.299 438.692 831.542 373.733C842.532 365.238 858.387 367.255 866.907 378.295C875.402 389.311 873.36 405.141 862.345 413.661C779.791 477.309 699.456 548.066 623.582 623.965C95.9451 1151.58 -104.326 1809.84 177.137 2091.3C308.568 2222.71 528.173 2253.33 795.647 2177.51C809.032 2173.68 822.996 2181.49 826.778 2194.88C830.584 2208.26 822.795 2222.2 809.41 2225.98C708.783 2254.54 614.18 2268.66 527.518 2268.66Z" fill="black"/>
<path d="M1364.37 1942.75C1356.56 1942.75 1348.87 1939.13 1343.95 1932.34C1335.79 1921.08 1338.28 1905.3 1349.57 1897.16C1452.19 1822.82 1551.41 1737.95 1644.52 1644.86C2172.11 1117.22 2372.41 458.984 2090.94 177.495C1962.76 49.3162 1749.31 16.9754 1489.9 86.4464C1476.49 90.0763 1462.63 82.0856 1459.05 68.625C1455.44 55.1643 1463.44 41.3508 1476.87 37.7713C1754.33 -36.5647 1985.15 0.363853 2126.61 141.877C2427.74 443.002 2227.44 1133.23 1680.17 1680.52C1585.19 1775.51 1483.93 1862.14 1379.17 1937.99C1374.66 1941.22 1369.49 1942.75 1364.37 1942.75Z" fill="black"/>
<path d="M1134.05 1542.52C909.028 1542.52 725.948 1359.44 725.948 1134.39C725.948 909.361 909.028 726.281 1134.05 726.281C1260.34 726.281 1377.48 783.35 1455.47 882.868C1464.07 893.808 1462.15 909.664 1451.18 918.259C1440.22 926.83 1424.39 924.939 1415.79 913.974C1347.43 826.757 1244.71 776.721 1134.05 776.721C936.806 776.721 776.337 937.19 776.337 1134.44C776.337 1331.71 936.806 1492.15 1134.05 1492.15C1331.32 1492.15 1491.77 1331.68 1491.77 1134.44C1491.77 1120.52 1503.04 1109.23 1516.98 1109.23C1530.91 1109.23 1542.18 1120.52 1542.18 1134.44C1542.18 1359.44 1359.08 1542.52 1134.05 1542.52Z" fill="black"/>
<path d="M1133.95 1222.51C1182.66 1222.51 1222.15 1183.02 1222.15 1134.31C1222.15 1085.6 1182.66 1046.11 1133.95 1046.11C1085.24 1046.11 1045.75 1085.6 1045.75 1134.31C1045.75 1183.02 1085.24 1222.51 1133.95 1222.51Z" fill="black"/>
</svg>
